G04 #@! TF.GenerationSoftware,KiCad,Pcbnew,5.1.5+dfsg1-2build2*
G04 #@! TF.CreationDate,2021-12-19T02:20:25+01:00*
G04 #@! TF.ProjectId,otterlinear-keyboard,6f747465-726c-4696-9e65-61722d6b6579,rev?*
G04 #@! TF.SameCoordinates,Original*
G04 #@! TF.FileFunction,Paste,Bot*
G04 #@! TF.FilePolarity,Positive*
%FSLAX46Y46*%
G04 Gerber Fmt 4.6, Leading zero omitted, Abs format (unit mm)*
G04 Created by KiCad (PCBNEW 5.1.5+dfsg1-2build2) date 2021-12-19 02:20:25*
%MOMM*%
%LPD*%
G04 APERTURE LIST*
%ADD10C,1.000000*%
%ADD11R,0.800000X0.900000*%
%ADD12C,0.100000*%
%ADD13R,0.600000X0.500000*%
%ADD14R,0.600000X1.450000*%
%ADD15R,0.300000X1.450000*%
%ADD16R,0.500000X0.600000*%
G04 APERTURE END LIST*
D10*
X245979729Y-63687915D02*
G75*
G03X245974000Y-69310000I1020271J-2812085D01*
G01*
X248020271Y-69312085D02*
G75*
G03X248026000Y-63690000I-1020271J2812085D01*
G01*
X212020271Y-86312085D02*
G75*
G03X212026000Y-80690000I-1020271J2812085D01*
G01*
X209979729Y-80687915D02*
G75*
G03X209974000Y-86310000I1020271J-2812085D01*
G01*
X104020271Y-86312085D02*
G75*
G03X104026000Y-80690000I-1020271J2812085D01*
G01*
X101979729Y-80687915D02*
G75*
G03X101974000Y-86310000I1020271J-2812085D01*
G01*
X68020271Y-69312085D02*
G75*
G03X68026000Y-63690000I-1020271J2812085D01*
G01*
X65979729Y-63687915D02*
G75*
G03X65974000Y-69310000I1020271J-2812085D01*
G01*
D11*
X157100000Y-59700000D03*
X156150000Y-61700000D03*
X158050000Y-61700000D03*
X153250000Y-60850000D03*
X152300000Y-62850000D03*
X154200000Y-62850000D03*
D12*
G36*
X157271291Y-69589452D02*
G01*
X157277358Y-69590352D01*
X157283308Y-69591842D01*
X157289083Y-69593909D01*
X157294627Y-69596531D01*
X157299888Y-69599684D01*
X157304815Y-69603338D01*
X157309359Y-69607457D01*
X157839689Y-70137787D01*
X157843808Y-70142331D01*
X157847462Y-70147258D01*
X157850615Y-70152519D01*
X157853237Y-70158063D01*
X157855304Y-70163838D01*
X157856794Y-70169788D01*
X157857694Y-70175855D01*
X157857995Y-70181981D01*
X157857694Y-70188107D01*
X157856794Y-70194174D01*
X157855304Y-70200124D01*
X157853237Y-70205899D01*
X157850615Y-70211443D01*
X157847462Y-70216704D01*
X157843808Y-70221631D01*
X157839689Y-70226175D01*
X157751301Y-70314563D01*
X157746757Y-70318682D01*
X157741830Y-70322336D01*
X157736569Y-70325489D01*
X157731025Y-70328111D01*
X157725250Y-70330178D01*
X157719300Y-70331668D01*
X157713233Y-70332568D01*
X157707107Y-70332869D01*
X157700981Y-70332568D01*
X157694914Y-70331668D01*
X157688964Y-70330178D01*
X157683189Y-70328111D01*
X157677645Y-70325489D01*
X157672384Y-70322336D01*
X157667457Y-70318682D01*
X157662913Y-70314563D01*
X157132583Y-69784233D01*
X157128464Y-69779689D01*
X157124810Y-69774762D01*
X157121657Y-69769501D01*
X157119035Y-69763957D01*
X157116968Y-69758182D01*
X157115478Y-69752232D01*
X157114578Y-69746165D01*
X157114277Y-69740039D01*
X157114578Y-69733913D01*
X157115478Y-69727846D01*
X157116968Y-69721896D01*
X157119035Y-69716121D01*
X157121657Y-69710577D01*
X157124810Y-69705316D01*
X157128464Y-69700389D01*
X157132583Y-69695845D01*
X157220971Y-69607457D01*
X157225515Y-69603338D01*
X157230442Y-69599684D01*
X157235703Y-69596531D01*
X157241247Y-69593909D01*
X157247022Y-69591842D01*
X157252972Y-69590352D01*
X157259039Y-69589452D01*
X157265165Y-69589151D01*
X157271291Y-69589452D01*
G37*
G36*
X157624844Y-69235898D02*
G01*
X157630911Y-69236798D01*
X157636861Y-69238288D01*
X157642636Y-69240355D01*
X157648180Y-69242977D01*
X157653441Y-69246130D01*
X157658368Y-69249784D01*
X157662912Y-69253903D01*
X158193242Y-69784233D01*
X158197361Y-69788777D01*
X158201015Y-69793704D01*
X158204168Y-69798965D01*
X158206790Y-69804509D01*
X158208857Y-69810284D01*
X158210347Y-69816234D01*
X158211247Y-69822301D01*
X158211548Y-69828427D01*
X158211247Y-69834553D01*
X158210347Y-69840620D01*
X158208857Y-69846570D01*
X158206790Y-69852345D01*
X158204168Y-69857889D01*
X158201015Y-69863150D01*
X158197361Y-69868077D01*
X158193242Y-69872621D01*
X158104854Y-69961009D01*
X158100310Y-69965128D01*
X158095383Y-69968782D01*
X158090122Y-69971935D01*
X158084578Y-69974557D01*
X158078803Y-69976624D01*
X158072853Y-69978114D01*
X158066786Y-69979014D01*
X158060660Y-69979315D01*
X158054534Y-69979014D01*
X158048467Y-69978114D01*
X158042517Y-69976624D01*
X158036742Y-69974557D01*
X158031198Y-69971935D01*
X158025937Y-69968782D01*
X158021010Y-69965128D01*
X158016466Y-69961009D01*
X157486136Y-69430679D01*
X157482017Y-69426135D01*
X157478363Y-69421208D01*
X157475210Y-69415947D01*
X157472588Y-69410403D01*
X157470521Y-69404628D01*
X157469031Y-69398678D01*
X157468131Y-69392611D01*
X157467830Y-69386485D01*
X157468131Y-69380359D01*
X157469031Y-69374292D01*
X157470521Y-69368342D01*
X157472588Y-69362567D01*
X157475210Y-69357023D01*
X157478363Y-69351762D01*
X157482017Y-69346835D01*
X157486136Y-69342291D01*
X157574524Y-69253903D01*
X157579068Y-69249784D01*
X157583995Y-69246130D01*
X157589256Y-69242977D01*
X157594800Y-69240355D01*
X157600575Y-69238288D01*
X157606525Y-69236798D01*
X157612592Y-69235898D01*
X157618718Y-69235597D01*
X157624844Y-69235898D01*
G37*
G36*
X157978398Y-68882345D02*
G01*
X157984465Y-68883245D01*
X157990415Y-68884735D01*
X157996190Y-68886802D01*
X158001734Y-68889424D01*
X158006995Y-68892577D01*
X158011922Y-68896231D01*
X158016466Y-68900350D01*
X158546796Y-69430680D01*
X158550915Y-69435224D01*
X158554569Y-69440151D01*
X158557722Y-69445412D01*
X158560344Y-69450956D01*
X158562411Y-69456731D01*
X158563901Y-69462681D01*
X158564801Y-69468748D01*
X158565102Y-69474874D01*
X158564801Y-69481000D01*
X158563901Y-69487067D01*
X158562411Y-69493017D01*
X158560344Y-69498792D01*
X158557722Y-69504336D01*
X158554569Y-69509597D01*
X158550915Y-69514524D01*
X158546796Y-69519068D01*
X158458408Y-69607456D01*
X158453864Y-69611575D01*
X158448937Y-69615229D01*
X158443676Y-69618382D01*
X158438132Y-69621004D01*
X158432357Y-69623071D01*
X158426407Y-69624561D01*
X158420340Y-69625461D01*
X158414214Y-69625762D01*
X158408088Y-69625461D01*
X158402021Y-69624561D01*
X158396071Y-69623071D01*
X158390296Y-69621004D01*
X158384752Y-69618382D01*
X158379491Y-69615229D01*
X158374564Y-69611575D01*
X158370020Y-69607456D01*
X157839690Y-69077126D01*
X157835571Y-69072582D01*
X157831917Y-69067655D01*
X157828764Y-69062394D01*
X157826142Y-69056850D01*
X157824075Y-69051075D01*
X157822585Y-69045125D01*
X157821685Y-69039058D01*
X157821384Y-69032932D01*
X157821685Y-69026806D01*
X157822585Y-69020739D01*
X157824075Y-69014789D01*
X157826142Y-69009014D01*
X157828764Y-69003470D01*
X157831917Y-68998209D01*
X157835571Y-68993282D01*
X157839690Y-68988738D01*
X157928078Y-68900350D01*
X157932622Y-68896231D01*
X157937549Y-68892577D01*
X157942810Y-68889424D01*
X157948354Y-68886802D01*
X157954129Y-68884735D01*
X157960079Y-68883245D01*
X157966146Y-68882345D01*
X157972272Y-68882044D01*
X157978398Y-68882345D01*
G37*
G36*
X158331951Y-68528791D02*
G01*
X158338018Y-68529691D01*
X158343968Y-68531181D01*
X158349743Y-68533248D01*
X158355287Y-68535870D01*
X158360548Y-68539023D01*
X158365475Y-68542677D01*
X158370019Y-68546796D01*
X158900349Y-69077126D01*
X158904468Y-69081670D01*
X158908122Y-69086597D01*
X158911275Y-69091858D01*
X158913897Y-69097402D01*
X158915964Y-69103177D01*
X158917454Y-69109127D01*
X158918354Y-69115194D01*
X158918655Y-69121320D01*
X158918354Y-69127446D01*
X158917454Y-69133513D01*
X158915964Y-69139463D01*
X158913897Y-69145238D01*
X158911275Y-69150782D01*
X158908122Y-69156043D01*
X158904468Y-69160970D01*
X158900349Y-69165514D01*
X158811961Y-69253902D01*
X158807417Y-69258021D01*
X158802490Y-69261675D01*
X158797229Y-69264828D01*
X158791685Y-69267450D01*
X158785910Y-69269517D01*
X158779960Y-69271007D01*
X158773893Y-69271907D01*
X158767767Y-69272208D01*
X158761641Y-69271907D01*
X158755574Y-69271007D01*
X158749624Y-69269517D01*
X158743849Y-69267450D01*
X158738305Y-69264828D01*
X158733044Y-69261675D01*
X158728117Y-69258021D01*
X158723573Y-69253902D01*
X158193243Y-68723572D01*
X158189124Y-68719028D01*
X158185470Y-68714101D01*
X158182317Y-68708840D01*
X158179695Y-68703296D01*
X158177628Y-68697521D01*
X158176138Y-68691571D01*
X158175238Y-68685504D01*
X158174937Y-68679378D01*
X158175238Y-68673252D01*
X158176138Y-68667185D01*
X158177628Y-68661235D01*
X158179695Y-68655460D01*
X158182317Y-68649916D01*
X158185470Y-68644655D01*
X158189124Y-68639728D01*
X158193243Y-68635184D01*
X158281631Y-68546796D01*
X158286175Y-68542677D01*
X158291102Y-68539023D01*
X158296363Y-68535870D01*
X158301907Y-68533248D01*
X158307682Y-68531181D01*
X158313632Y-68529691D01*
X158319699Y-68528791D01*
X158325825Y-68528490D01*
X158331951Y-68528791D01*
G37*
G36*
X158685504Y-68175238D02*
G01*
X158691571Y-68176138D01*
X158697521Y-68177628D01*
X158703296Y-68179695D01*
X158708840Y-68182317D01*
X158714101Y-68185470D01*
X158719028Y-68189124D01*
X158723572Y-68193243D01*
X159253902Y-68723573D01*
X159258021Y-68728117D01*
X159261675Y-68733044D01*
X159264828Y-68738305D01*
X159267450Y-68743849D01*
X159269517Y-68749624D01*
X159271007Y-68755574D01*
X159271907Y-68761641D01*
X159272208Y-68767767D01*
X159271907Y-68773893D01*
X159271007Y-68779960D01*
X159269517Y-68785910D01*
X159267450Y-68791685D01*
X159264828Y-68797229D01*
X159261675Y-68802490D01*
X159258021Y-68807417D01*
X159253902Y-68811961D01*
X159165514Y-68900349D01*
X159160970Y-68904468D01*
X159156043Y-68908122D01*
X159150782Y-68911275D01*
X159145238Y-68913897D01*
X159139463Y-68915964D01*
X159133513Y-68917454D01*
X159127446Y-68918354D01*
X159121320Y-68918655D01*
X159115194Y-68918354D01*
X159109127Y-68917454D01*
X159103177Y-68915964D01*
X159097402Y-68913897D01*
X159091858Y-68911275D01*
X159086597Y-68908122D01*
X159081670Y-68904468D01*
X159077126Y-68900349D01*
X158546796Y-68370019D01*
X158542677Y-68365475D01*
X158539023Y-68360548D01*
X158535870Y-68355287D01*
X158533248Y-68349743D01*
X158531181Y-68343968D01*
X158529691Y-68338018D01*
X158528791Y-68331951D01*
X158528490Y-68325825D01*
X158528791Y-68319699D01*
X158529691Y-68313632D01*
X158531181Y-68307682D01*
X158533248Y-68301907D01*
X158535870Y-68296363D01*
X158539023Y-68291102D01*
X158542677Y-68286175D01*
X158546796Y-68281631D01*
X158635184Y-68193243D01*
X158639728Y-68189124D01*
X158644655Y-68185470D01*
X158649916Y-68182317D01*
X158655460Y-68179695D01*
X158661235Y-68177628D01*
X158667185Y-68176138D01*
X158673252Y-68175238D01*
X158679378Y-68174937D01*
X158685504Y-68175238D01*
G37*
G36*
X159039058Y-67821685D02*
G01*
X159045125Y-67822585D01*
X159051075Y-67824075D01*
X159056850Y-67826142D01*
X159062394Y-67828764D01*
X159067655Y-67831917D01*
X159072582Y-67835571D01*
X159077126Y-67839690D01*
X159607456Y-68370020D01*
X159611575Y-68374564D01*
X159615229Y-68379491D01*
X159618382Y-68384752D01*
X159621004Y-68390296D01*
X159623071Y-68396071D01*
X159624561Y-68402021D01*
X159625461Y-68408088D01*
X159625762Y-68414214D01*
X159625461Y-68420340D01*
X159624561Y-68426407D01*
X159623071Y-68432357D01*
X159621004Y-68438132D01*
X159618382Y-68443676D01*
X159615229Y-68448937D01*
X159611575Y-68453864D01*
X159607456Y-68458408D01*
X159519068Y-68546796D01*
X159514524Y-68550915D01*
X159509597Y-68554569D01*
X159504336Y-68557722D01*
X159498792Y-68560344D01*
X159493017Y-68562411D01*
X159487067Y-68563901D01*
X159481000Y-68564801D01*
X159474874Y-68565102D01*
X159468748Y-68564801D01*
X159462681Y-68563901D01*
X159456731Y-68562411D01*
X159450956Y-68560344D01*
X159445412Y-68557722D01*
X159440151Y-68554569D01*
X159435224Y-68550915D01*
X159430680Y-68546796D01*
X158900350Y-68016466D01*
X158896231Y-68011922D01*
X158892577Y-68006995D01*
X158889424Y-68001734D01*
X158886802Y-67996190D01*
X158884735Y-67990415D01*
X158883245Y-67984465D01*
X158882345Y-67978398D01*
X158882044Y-67972272D01*
X158882345Y-67966146D01*
X158883245Y-67960079D01*
X158884735Y-67954129D01*
X158886802Y-67948354D01*
X158889424Y-67942810D01*
X158892577Y-67937549D01*
X158896231Y-67932622D01*
X158900350Y-67928078D01*
X158988738Y-67839690D01*
X158993282Y-67835571D01*
X158998209Y-67831917D01*
X159003470Y-67828764D01*
X159009014Y-67826142D01*
X159014789Y-67824075D01*
X159020739Y-67822585D01*
X159026806Y-67821685D01*
X159032932Y-67821384D01*
X159039058Y-67821685D01*
G37*
G36*
X159392611Y-67468131D02*
G01*
X159398678Y-67469031D01*
X159404628Y-67470521D01*
X159410403Y-67472588D01*
X159415947Y-67475210D01*
X159421208Y-67478363D01*
X159426135Y-67482017D01*
X159430679Y-67486136D01*
X159961009Y-68016466D01*
X159965128Y-68021010D01*
X159968782Y-68025937D01*
X159971935Y-68031198D01*
X159974557Y-68036742D01*
X159976624Y-68042517D01*
X159978114Y-68048467D01*
X159979014Y-68054534D01*
X159979315Y-68060660D01*
X159979014Y-68066786D01*
X159978114Y-68072853D01*
X159976624Y-68078803D01*
X159974557Y-68084578D01*
X159971935Y-68090122D01*
X159968782Y-68095383D01*
X159965128Y-68100310D01*
X159961009Y-68104854D01*
X159872621Y-68193242D01*
X159868077Y-68197361D01*
X159863150Y-68201015D01*
X159857889Y-68204168D01*
X159852345Y-68206790D01*
X159846570Y-68208857D01*
X159840620Y-68210347D01*
X159834553Y-68211247D01*
X159828427Y-68211548D01*
X159822301Y-68211247D01*
X159816234Y-68210347D01*
X159810284Y-68208857D01*
X159804509Y-68206790D01*
X159798965Y-68204168D01*
X159793704Y-68201015D01*
X159788777Y-68197361D01*
X159784233Y-68193242D01*
X159253903Y-67662912D01*
X159249784Y-67658368D01*
X159246130Y-67653441D01*
X159242977Y-67648180D01*
X159240355Y-67642636D01*
X159238288Y-67636861D01*
X159236798Y-67630911D01*
X159235898Y-67624844D01*
X159235597Y-67618718D01*
X159235898Y-67612592D01*
X159236798Y-67606525D01*
X159238288Y-67600575D01*
X159240355Y-67594800D01*
X159242977Y-67589256D01*
X159246130Y-67583995D01*
X159249784Y-67579068D01*
X159253903Y-67574524D01*
X159342291Y-67486136D01*
X159346835Y-67482017D01*
X159351762Y-67478363D01*
X159357023Y-67475210D01*
X159362567Y-67472588D01*
X159368342Y-67470521D01*
X159374292Y-67469031D01*
X159380359Y-67468131D01*
X159386485Y-67467830D01*
X159392611Y-67468131D01*
G37*
G36*
X159746165Y-67114578D02*
G01*
X159752232Y-67115478D01*
X159758182Y-67116968D01*
X159763957Y-67119035D01*
X159769501Y-67121657D01*
X159774762Y-67124810D01*
X159779689Y-67128464D01*
X159784233Y-67132583D01*
X160314563Y-67662913D01*
X160318682Y-67667457D01*
X160322336Y-67672384D01*
X160325489Y-67677645D01*
X160328111Y-67683189D01*
X160330178Y-67688964D01*
X160331668Y-67694914D01*
X160332568Y-67700981D01*
X160332869Y-67707107D01*
X160332568Y-67713233D01*
X160331668Y-67719300D01*
X160330178Y-67725250D01*
X160328111Y-67731025D01*
X160325489Y-67736569D01*
X160322336Y-67741830D01*
X160318682Y-67746757D01*
X160314563Y-67751301D01*
X160226175Y-67839689D01*
X160221631Y-67843808D01*
X160216704Y-67847462D01*
X160211443Y-67850615D01*
X160205899Y-67853237D01*
X160200124Y-67855304D01*
X160194174Y-67856794D01*
X160188107Y-67857694D01*
X160181981Y-67857995D01*
X160175855Y-67857694D01*
X160169788Y-67856794D01*
X160163838Y-67855304D01*
X160158063Y-67853237D01*
X160152519Y-67850615D01*
X160147258Y-67847462D01*
X160142331Y-67843808D01*
X160137787Y-67839689D01*
X159607457Y-67309359D01*
X159603338Y-67304815D01*
X159599684Y-67299888D01*
X159596531Y-67294627D01*
X159593909Y-67289083D01*
X159591842Y-67283308D01*
X159590352Y-67277358D01*
X159589452Y-67271291D01*
X159589151Y-67265165D01*
X159589452Y-67259039D01*
X159590352Y-67252972D01*
X159591842Y-67247022D01*
X159593909Y-67241247D01*
X159596531Y-67235703D01*
X159599684Y-67230442D01*
X159603338Y-67225515D01*
X159607457Y-67220971D01*
X159695845Y-67132583D01*
X159700389Y-67128464D01*
X159705316Y-67124810D01*
X159710577Y-67121657D01*
X159716121Y-67119035D01*
X159721896Y-67116968D01*
X159727846Y-67115478D01*
X159733913Y-67114578D01*
X159740039Y-67114277D01*
X159746165Y-67114578D01*
G37*
G36*
X160188107Y-66142306D02*
G01*
X160194174Y-66143206D01*
X160200124Y-66144696D01*
X160205899Y-66146763D01*
X160211443Y-66149385D01*
X160216704Y-66152538D01*
X160221631Y-66156192D01*
X160226175Y-66160311D01*
X160314563Y-66248699D01*
X160318682Y-66253243D01*
X160322336Y-66258170D01*
X160325489Y-66263431D01*
X160328111Y-66268975D01*
X160330178Y-66274750D01*
X160331668Y-66280700D01*
X160332568Y-66286767D01*
X160332869Y-66292893D01*
X160332568Y-66299019D01*
X160331668Y-66305086D01*
X160330178Y-66311036D01*
X160328111Y-66316811D01*
X160325489Y-66322355D01*
X160322336Y-66327616D01*
X160318682Y-66332543D01*
X160314563Y-66337087D01*
X159784233Y-66867417D01*
X159779689Y-66871536D01*
X159774762Y-66875190D01*
X159769501Y-66878343D01*
X159763957Y-66880965D01*
X159758182Y-66883032D01*
X159752232Y-66884522D01*
X159746165Y-66885422D01*
X159740039Y-66885723D01*
X159733913Y-66885422D01*
X159727846Y-66884522D01*
X159721896Y-66883032D01*
X159716121Y-66880965D01*
X159710577Y-66878343D01*
X159705316Y-66875190D01*
X159700389Y-66871536D01*
X159695845Y-66867417D01*
X159607457Y-66779029D01*
X159603338Y-66774485D01*
X159599684Y-66769558D01*
X159596531Y-66764297D01*
X159593909Y-66758753D01*
X159591842Y-66752978D01*
X159590352Y-66747028D01*
X159589452Y-66740961D01*
X159589151Y-66734835D01*
X159589452Y-66728709D01*
X159590352Y-66722642D01*
X159591842Y-66716692D01*
X159593909Y-66710917D01*
X159596531Y-66705373D01*
X159599684Y-66700112D01*
X159603338Y-66695185D01*
X159607457Y-66690641D01*
X160137787Y-66160311D01*
X160142331Y-66156192D01*
X160147258Y-66152538D01*
X160152519Y-66149385D01*
X160158063Y-66146763D01*
X160163838Y-66144696D01*
X160169788Y-66143206D01*
X160175855Y-66142306D01*
X160181981Y-66142005D01*
X160188107Y-66142306D01*
G37*
G36*
X159834553Y-65788753D02*
G01*
X159840620Y-65789653D01*
X159846570Y-65791143D01*
X159852345Y-65793210D01*
X159857889Y-65795832D01*
X159863150Y-65798985D01*
X159868077Y-65802639D01*
X159872621Y-65806758D01*
X159961009Y-65895146D01*
X159965128Y-65899690D01*
X159968782Y-65904617D01*
X159971935Y-65909878D01*
X159974557Y-65915422D01*
X159976624Y-65921197D01*
X159978114Y-65927147D01*
X159979014Y-65933214D01*
X159979315Y-65939340D01*
X159979014Y-65945466D01*
X159978114Y-65951533D01*
X159976624Y-65957483D01*
X159974557Y-65963258D01*
X159971935Y-65968802D01*
X159968782Y-65974063D01*
X159965128Y-65978990D01*
X159961009Y-65983534D01*
X159430679Y-66513864D01*
X159426135Y-66517983D01*
X159421208Y-66521637D01*
X159415947Y-66524790D01*
X159410403Y-66527412D01*
X159404628Y-66529479D01*
X159398678Y-66530969D01*
X159392611Y-66531869D01*
X159386485Y-66532170D01*
X159380359Y-66531869D01*
X159374292Y-66530969D01*
X159368342Y-66529479D01*
X159362567Y-66527412D01*
X159357023Y-66524790D01*
X159351762Y-66521637D01*
X159346835Y-66517983D01*
X159342291Y-66513864D01*
X159253903Y-66425476D01*
X159249784Y-66420932D01*
X159246130Y-66416005D01*
X159242977Y-66410744D01*
X159240355Y-66405200D01*
X159238288Y-66399425D01*
X159236798Y-66393475D01*
X159235898Y-66387408D01*
X159235597Y-66381282D01*
X159235898Y-66375156D01*
X159236798Y-66369089D01*
X159238288Y-66363139D01*
X159240355Y-66357364D01*
X159242977Y-66351820D01*
X159246130Y-66346559D01*
X159249784Y-66341632D01*
X159253903Y-66337088D01*
X159784233Y-65806758D01*
X159788777Y-65802639D01*
X159793704Y-65798985D01*
X159798965Y-65795832D01*
X159804509Y-65793210D01*
X159810284Y-65791143D01*
X159816234Y-65789653D01*
X159822301Y-65788753D01*
X159828427Y-65788452D01*
X159834553Y-65788753D01*
G37*
G36*
X159481000Y-65435199D02*
G01*
X159487067Y-65436099D01*
X159493017Y-65437589D01*
X159498792Y-65439656D01*
X159504336Y-65442278D01*
X159509597Y-65445431D01*
X159514524Y-65449085D01*
X159519068Y-65453204D01*
X159607456Y-65541592D01*
X159611575Y-65546136D01*
X159615229Y-65551063D01*
X159618382Y-65556324D01*
X159621004Y-65561868D01*
X159623071Y-65567643D01*
X159624561Y-65573593D01*
X159625461Y-65579660D01*
X159625762Y-65585786D01*
X159625461Y-65591912D01*
X159624561Y-65597979D01*
X159623071Y-65603929D01*
X159621004Y-65609704D01*
X159618382Y-65615248D01*
X159615229Y-65620509D01*
X159611575Y-65625436D01*
X159607456Y-65629980D01*
X159077126Y-66160310D01*
X159072582Y-66164429D01*
X159067655Y-66168083D01*
X159062394Y-66171236D01*
X159056850Y-66173858D01*
X159051075Y-66175925D01*
X159045125Y-66177415D01*
X159039058Y-66178315D01*
X159032932Y-66178616D01*
X159026806Y-66178315D01*
X159020739Y-66177415D01*
X159014789Y-66175925D01*
X159009014Y-66173858D01*
X159003470Y-66171236D01*
X158998209Y-66168083D01*
X158993282Y-66164429D01*
X158988738Y-66160310D01*
X158900350Y-66071922D01*
X158896231Y-66067378D01*
X158892577Y-66062451D01*
X158889424Y-66057190D01*
X158886802Y-66051646D01*
X158884735Y-66045871D01*
X158883245Y-66039921D01*
X158882345Y-66033854D01*
X158882044Y-66027728D01*
X158882345Y-66021602D01*
X158883245Y-66015535D01*
X158884735Y-66009585D01*
X158886802Y-66003810D01*
X158889424Y-65998266D01*
X158892577Y-65993005D01*
X158896231Y-65988078D01*
X158900350Y-65983534D01*
X159430680Y-65453204D01*
X159435224Y-65449085D01*
X159440151Y-65445431D01*
X159445412Y-65442278D01*
X159450956Y-65439656D01*
X159456731Y-65437589D01*
X159462681Y-65436099D01*
X159468748Y-65435199D01*
X159474874Y-65434898D01*
X159481000Y-65435199D01*
G37*
G36*
X159127446Y-65081646D02*
G01*
X159133513Y-65082546D01*
X159139463Y-65084036D01*
X159145238Y-65086103D01*
X159150782Y-65088725D01*
X159156043Y-65091878D01*
X159160970Y-65095532D01*
X159165514Y-65099651D01*
X159253902Y-65188039D01*
X159258021Y-65192583D01*
X159261675Y-65197510D01*
X159264828Y-65202771D01*
X159267450Y-65208315D01*
X159269517Y-65214090D01*
X159271007Y-65220040D01*
X159271907Y-65226107D01*
X159272208Y-65232233D01*
X159271907Y-65238359D01*
X159271007Y-65244426D01*
X159269517Y-65250376D01*
X159267450Y-65256151D01*
X159264828Y-65261695D01*
X159261675Y-65266956D01*
X159258021Y-65271883D01*
X159253902Y-65276427D01*
X158723572Y-65806757D01*
X158719028Y-65810876D01*
X158714101Y-65814530D01*
X158708840Y-65817683D01*
X158703296Y-65820305D01*
X158697521Y-65822372D01*
X158691571Y-65823862D01*
X158685504Y-65824762D01*
X158679378Y-65825063D01*
X158673252Y-65824762D01*
X158667185Y-65823862D01*
X158661235Y-65822372D01*
X158655460Y-65820305D01*
X158649916Y-65817683D01*
X158644655Y-65814530D01*
X158639728Y-65810876D01*
X158635184Y-65806757D01*
X158546796Y-65718369D01*
X158542677Y-65713825D01*
X158539023Y-65708898D01*
X158535870Y-65703637D01*
X158533248Y-65698093D01*
X158531181Y-65692318D01*
X158529691Y-65686368D01*
X158528791Y-65680301D01*
X158528490Y-65674175D01*
X158528791Y-65668049D01*
X158529691Y-65661982D01*
X158531181Y-65656032D01*
X158533248Y-65650257D01*
X158535870Y-65644713D01*
X158539023Y-65639452D01*
X158542677Y-65634525D01*
X158546796Y-65629981D01*
X159077126Y-65099651D01*
X159081670Y-65095532D01*
X159086597Y-65091878D01*
X159091858Y-65088725D01*
X159097402Y-65086103D01*
X159103177Y-65084036D01*
X159109127Y-65082546D01*
X159115194Y-65081646D01*
X159121320Y-65081345D01*
X159127446Y-65081646D01*
G37*
G36*
X158773893Y-64728093D02*
G01*
X158779960Y-64728993D01*
X158785910Y-64730483D01*
X158791685Y-64732550D01*
X158797229Y-64735172D01*
X158802490Y-64738325D01*
X158807417Y-64741979D01*
X158811961Y-64746098D01*
X158900349Y-64834486D01*
X158904468Y-64839030D01*
X158908122Y-64843957D01*
X158911275Y-64849218D01*
X158913897Y-64854762D01*
X158915964Y-64860537D01*
X158917454Y-64866487D01*
X158918354Y-64872554D01*
X158918655Y-64878680D01*
X158918354Y-64884806D01*
X158917454Y-64890873D01*
X158915964Y-64896823D01*
X158913897Y-64902598D01*
X158911275Y-64908142D01*
X158908122Y-64913403D01*
X158904468Y-64918330D01*
X158900349Y-64922874D01*
X158370019Y-65453204D01*
X158365475Y-65457323D01*
X158360548Y-65460977D01*
X158355287Y-65464130D01*
X158349743Y-65466752D01*
X158343968Y-65468819D01*
X158338018Y-65470309D01*
X158331951Y-65471209D01*
X158325825Y-65471510D01*
X158319699Y-65471209D01*
X158313632Y-65470309D01*
X158307682Y-65468819D01*
X158301907Y-65466752D01*
X158296363Y-65464130D01*
X158291102Y-65460977D01*
X158286175Y-65457323D01*
X158281631Y-65453204D01*
X158193243Y-65364816D01*
X158189124Y-65360272D01*
X158185470Y-65355345D01*
X158182317Y-65350084D01*
X158179695Y-65344540D01*
X158177628Y-65338765D01*
X158176138Y-65332815D01*
X158175238Y-65326748D01*
X158174937Y-65320622D01*
X158175238Y-65314496D01*
X158176138Y-65308429D01*
X158177628Y-65302479D01*
X158179695Y-65296704D01*
X158182317Y-65291160D01*
X158185470Y-65285899D01*
X158189124Y-65280972D01*
X158193243Y-65276428D01*
X158723573Y-64746098D01*
X158728117Y-64741979D01*
X158733044Y-64738325D01*
X158738305Y-64735172D01*
X158743849Y-64732550D01*
X158749624Y-64730483D01*
X158755574Y-64728993D01*
X158761641Y-64728093D01*
X158767767Y-64727792D01*
X158773893Y-64728093D01*
G37*
G36*
X158420340Y-64374539D02*
G01*
X158426407Y-64375439D01*
X158432357Y-64376929D01*
X158438132Y-64378996D01*
X158443676Y-64381618D01*
X158448937Y-64384771D01*
X158453864Y-64388425D01*
X158458408Y-64392544D01*
X158546796Y-64480932D01*
X158550915Y-64485476D01*
X158554569Y-64490403D01*
X158557722Y-64495664D01*
X158560344Y-64501208D01*
X158562411Y-64506983D01*
X158563901Y-64512933D01*
X158564801Y-64519000D01*
X158565102Y-64525126D01*
X158564801Y-64531252D01*
X158563901Y-64537319D01*
X158562411Y-64543269D01*
X158560344Y-64549044D01*
X158557722Y-64554588D01*
X158554569Y-64559849D01*
X158550915Y-64564776D01*
X158546796Y-64569320D01*
X158016466Y-65099650D01*
X158011922Y-65103769D01*
X158006995Y-65107423D01*
X158001734Y-65110576D01*
X157996190Y-65113198D01*
X157990415Y-65115265D01*
X157984465Y-65116755D01*
X157978398Y-65117655D01*
X157972272Y-65117956D01*
X157966146Y-65117655D01*
X157960079Y-65116755D01*
X157954129Y-65115265D01*
X157948354Y-65113198D01*
X157942810Y-65110576D01*
X157937549Y-65107423D01*
X157932622Y-65103769D01*
X157928078Y-65099650D01*
X157839690Y-65011262D01*
X157835571Y-65006718D01*
X157831917Y-65001791D01*
X157828764Y-64996530D01*
X157826142Y-64990986D01*
X157824075Y-64985211D01*
X157822585Y-64979261D01*
X157821685Y-64973194D01*
X157821384Y-64967068D01*
X157821685Y-64960942D01*
X157822585Y-64954875D01*
X157824075Y-64948925D01*
X157826142Y-64943150D01*
X157828764Y-64937606D01*
X157831917Y-64932345D01*
X157835571Y-64927418D01*
X157839690Y-64922874D01*
X158370020Y-64392544D01*
X158374564Y-64388425D01*
X158379491Y-64384771D01*
X158384752Y-64381618D01*
X158390296Y-64378996D01*
X158396071Y-64376929D01*
X158402021Y-64375439D01*
X158408088Y-64374539D01*
X158414214Y-64374238D01*
X158420340Y-64374539D01*
G37*
G36*
X158066786Y-64020986D02*
G01*
X158072853Y-64021886D01*
X158078803Y-64023376D01*
X158084578Y-64025443D01*
X158090122Y-64028065D01*
X158095383Y-64031218D01*
X158100310Y-64034872D01*
X158104854Y-64038991D01*
X158193242Y-64127379D01*
X158197361Y-64131923D01*
X158201015Y-64136850D01*
X158204168Y-64142111D01*
X158206790Y-64147655D01*
X158208857Y-64153430D01*
X158210347Y-64159380D01*
X158211247Y-64165447D01*
X158211548Y-64171573D01*
X158211247Y-64177699D01*
X158210347Y-64183766D01*
X158208857Y-64189716D01*
X158206790Y-64195491D01*
X158204168Y-64201035D01*
X158201015Y-64206296D01*
X158197361Y-64211223D01*
X158193242Y-64215767D01*
X157662912Y-64746097D01*
X157658368Y-64750216D01*
X157653441Y-64753870D01*
X157648180Y-64757023D01*
X157642636Y-64759645D01*
X157636861Y-64761712D01*
X157630911Y-64763202D01*
X157624844Y-64764102D01*
X157618718Y-64764403D01*
X157612592Y-64764102D01*
X157606525Y-64763202D01*
X157600575Y-64761712D01*
X157594800Y-64759645D01*
X157589256Y-64757023D01*
X157583995Y-64753870D01*
X157579068Y-64750216D01*
X157574524Y-64746097D01*
X157486136Y-64657709D01*
X157482017Y-64653165D01*
X157478363Y-64648238D01*
X157475210Y-64642977D01*
X157472588Y-64637433D01*
X157470521Y-64631658D01*
X157469031Y-64625708D01*
X157468131Y-64619641D01*
X157467830Y-64613515D01*
X157468131Y-64607389D01*
X157469031Y-64601322D01*
X157470521Y-64595372D01*
X157472588Y-64589597D01*
X157475210Y-64584053D01*
X157478363Y-64578792D01*
X157482017Y-64573865D01*
X157486136Y-64569321D01*
X158016466Y-64038991D01*
X158021010Y-64034872D01*
X158025937Y-64031218D01*
X158031198Y-64028065D01*
X158036742Y-64025443D01*
X158042517Y-64023376D01*
X158048467Y-64021886D01*
X158054534Y-64020986D01*
X158060660Y-64020685D01*
X158066786Y-64020986D01*
G37*
G36*
X157713233Y-63667432D02*
G01*
X157719300Y-63668332D01*
X157725250Y-63669822D01*
X157731025Y-63671889D01*
X157736569Y-63674511D01*
X157741830Y-63677664D01*
X157746757Y-63681318D01*
X157751301Y-63685437D01*
X157839689Y-63773825D01*
X157843808Y-63778369D01*
X157847462Y-63783296D01*
X157850615Y-63788557D01*
X157853237Y-63794101D01*
X157855304Y-63799876D01*
X157856794Y-63805826D01*
X157857694Y-63811893D01*
X157857995Y-63818019D01*
X157857694Y-63824145D01*
X157856794Y-63830212D01*
X157855304Y-63836162D01*
X157853237Y-63841937D01*
X157850615Y-63847481D01*
X157847462Y-63852742D01*
X157843808Y-63857669D01*
X157839689Y-63862213D01*
X157309359Y-64392543D01*
X157304815Y-64396662D01*
X157299888Y-64400316D01*
X157294627Y-64403469D01*
X157289083Y-64406091D01*
X157283308Y-64408158D01*
X157277358Y-64409648D01*
X157271291Y-64410548D01*
X157265165Y-64410849D01*
X157259039Y-64410548D01*
X157252972Y-64409648D01*
X157247022Y-64408158D01*
X157241247Y-64406091D01*
X157235703Y-64403469D01*
X157230442Y-64400316D01*
X157225515Y-64396662D01*
X157220971Y-64392543D01*
X157132583Y-64304155D01*
X157128464Y-64299611D01*
X157124810Y-64294684D01*
X157121657Y-64289423D01*
X157119035Y-64283879D01*
X157116968Y-64278104D01*
X157115478Y-64272154D01*
X157114578Y-64266087D01*
X157114277Y-64259961D01*
X157114578Y-64253835D01*
X157115478Y-64247768D01*
X157116968Y-64241818D01*
X157119035Y-64236043D01*
X157121657Y-64230499D01*
X157124810Y-64225238D01*
X157128464Y-64220311D01*
X157132583Y-64215767D01*
X157662913Y-63685437D01*
X157667457Y-63681318D01*
X157672384Y-63677664D01*
X157677645Y-63674511D01*
X157683189Y-63671889D01*
X157688964Y-63669822D01*
X157694914Y-63668332D01*
X157700981Y-63667432D01*
X157707107Y-63667131D01*
X157713233Y-63667432D01*
G37*
G36*
X156299019Y-63667432D02*
G01*
X156305086Y-63668332D01*
X156311036Y-63669822D01*
X156316811Y-63671889D01*
X156322355Y-63674511D01*
X156327616Y-63677664D01*
X156332543Y-63681318D01*
X156337087Y-63685437D01*
X156867417Y-64215767D01*
X156871536Y-64220311D01*
X156875190Y-64225238D01*
X156878343Y-64230499D01*
X156880965Y-64236043D01*
X156883032Y-64241818D01*
X156884522Y-64247768D01*
X156885422Y-64253835D01*
X156885723Y-64259961D01*
X156885422Y-64266087D01*
X156884522Y-64272154D01*
X156883032Y-64278104D01*
X156880965Y-64283879D01*
X156878343Y-64289423D01*
X156875190Y-64294684D01*
X156871536Y-64299611D01*
X156867417Y-64304155D01*
X156779029Y-64392543D01*
X156774485Y-64396662D01*
X156769558Y-64400316D01*
X156764297Y-64403469D01*
X156758753Y-64406091D01*
X156752978Y-64408158D01*
X156747028Y-64409648D01*
X156740961Y-64410548D01*
X156734835Y-64410849D01*
X156728709Y-64410548D01*
X156722642Y-64409648D01*
X156716692Y-64408158D01*
X156710917Y-64406091D01*
X156705373Y-64403469D01*
X156700112Y-64400316D01*
X156695185Y-64396662D01*
X156690641Y-64392543D01*
X156160311Y-63862213D01*
X156156192Y-63857669D01*
X156152538Y-63852742D01*
X156149385Y-63847481D01*
X156146763Y-63841937D01*
X156144696Y-63836162D01*
X156143206Y-63830212D01*
X156142306Y-63824145D01*
X156142005Y-63818019D01*
X156142306Y-63811893D01*
X156143206Y-63805826D01*
X156144696Y-63799876D01*
X156146763Y-63794101D01*
X156149385Y-63788557D01*
X156152538Y-63783296D01*
X156156192Y-63778369D01*
X156160311Y-63773825D01*
X156248699Y-63685437D01*
X156253243Y-63681318D01*
X156258170Y-63677664D01*
X156263431Y-63674511D01*
X156268975Y-63671889D01*
X156274750Y-63669822D01*
X156280700Y-63668332D01*
X156286767Y-63667432D01*
X156292893Y-63667131D01*
X156299019Y-63667432D01*
G37*
G36*
X155945466Y-64020986D02*
G01*
X155951533Y-64021886D01*
X155957483Y-64023376D01*
X155963258Y-64025443D01*
X155968802Y-64028065D01*
X155974063Y-64031218D01*
X155978990Y-64034872D01*
X155983534Y-64038991D01*
X156513864Y-64569321D01*
X156517983Y-64573865D01*
X156521637Y-64578792D01*
X156524790Y-64584053D01*
X156527412Y-64589597D01*
X156529479Y-64595372D01*
X156530969Y-64601322D01*
X156531869Y-64607389D01*
X156532170Y-64613515D01*
X156531869Y-64619641D01*
X156530969Y-64625708D01*
X156529479Y-64631658D01*
X156527412Y-64637433D01*
X156524790Y-64642977D01*
X156521637Y-64648238D01*
X156517983Y-64653165D01*
X156513864Y-64657709D01*
X156425476Y-64746097D01*
X156420932Y-64750216D01*
X156416005Y-64753870D01*
X156410744Y-64757023D01*
X156405200Y-64759645D01*
X156399425Y-64761712D01*
X156393475Y-64763202D01*
X156387408Y-64764102D01*
X156381282Y-64764403D01*
X156375156Y-64764102D01*
X156369089Y-64763202D01*
X156363139Y-64761712D01*
X156357364Y-64759645D01*
X156351820Y-64757023D01*
X156346559Y-64753870D01*
X156341632Y-64750216D01*
X156337088Y-64746097D01*
X155806758Y-64215767D01*
X155802639Y-64211223D01*
X155798985Y-64206296D01*
X155795832Y-64201035D01*
X155793210Y-64195491D01*
X155791143Y-64189716D01*
X155789653Y-64183766D01*
X155788753Y-64177699D01*
X155788452Y-64171573D01*
X155788753Y-64165447D01*
X155789653Y-64159380D01*
X155791143Y-64153430D01*
X155793210Y-64147655D01*
X155795832Y-64142111D01*
X155798985Y-64136850D01*
X155802639Y-64131923D01*
X155806758Y-64127379D01*
X155895146Y-64038991D01*
X155899690Y-64034872D01*
X155904617Y-64031218D01*
X155909878Y-64028065D01*
X155915422Y-64025443D01*
X155921197Y-64023376D01*
X155927147Y-64021886D01*
X155933214Y-64020986D01*
X155939340Y-64020685D01*
X155945466Y-64020986D01*
G37*
G36*
X155591912Y-64374539D02*
G01*
X155597979Y-64375439D01*
X155603929Y-64376929D01*
X155609704Y-64378996D01*
X155615248Y-64381618D01*
X155620509Y-64384771D01*
X155625436Y-64388425D01*
X155629980Y-64392544D01*
X156160310Y-64922874D01*
X156164429Y-64927418D01*
X156168083Y-64932345D01*
X156171236Y-64937606D01*
X156173858Y-64943150D01*
X156175925Y-64948925D01*
X156177415Y-64954875D01*
X156178315Y-64960942D01*
X156178616Y-64967068D01*
X156178315Y-64973194D01*
X156177415Y-64979261D01*
X156175925Y-64985211D01*
X156173858Y-64990986D01*
X156171236Y-64996530D01*
X156168083Y-65001791D01*
X156164429Y-65006718D01*
X156160310Y-65011262D01*
X156071922Y-65099650D01*
X156067378Y-65103769D01*
X156062451Y-65107423D01*
X156057190Y-65110576D01*
X156051646Y-65113198D01*
X156045871Y-65115265D01*
X156039921Y-65116755D01*
X156033854Y-65117655D01*
X156027728Y-65117956D01*
X156021602Y-65117655D01*
X156015535Y-65116755D01*
X156009585Y-65115265D01*
X156003810Y-65113198D01*
X155998266Y-65110576D01*
X155993005Y-65107423D01*
X155988078Y-65103769D01*
X155983534Y-65099650D01*
X155453204Y-64569320D01*
X155449085Y-64564776D01*
X155445431Y-64559849D01*
X155442278Y-64554588D01*
X155439656Y-64549044D01*
X155437589Y-64543269D01*
X155436099Y-64537319D01*
X155435199Y-64531252D01*
X155434898Y-64525126D01*
X155435199Y-64519000D01*
X155436099Y-64512933D01*
X155437589Y-64506983D01*
X155439656Y-64501208D01*
X155442278Y-64495664D01*
X155445431Y-64490403D01*
X155449085Y-64485476D01*
X155453204Y-64480932D01*
X155541592Y-64392544D01*
X155546136Y-64388425D01*
X155551063Y-64384771D01*
X155556324Y-64381618D01*
X155561868Y-64378996D01*
X155567643Y-64376929D01*
X155573593Y-64375439D01*
X155579660Y-64374539D01*
X155585786Y-64374238D01*
X155591912Y-64374539D01*
G37*
G36*
X155238359Y-64728093D02*
G01*
X155244426Y-64728993D01*
X155250376Y-64730483D01*
X155256151Y-64732550D01*
X155261695Y-64735172D01*
X155266956Y-64738325D01*
X155271883Y-64741979D01*
X155276427Y-64746098D01*
X155806757Y-65276428D01*
X155810876Y-65280972D01*
X155814530Y-65285899D01*
X155817683Y-65291160D01*
X155820305Y-65296704D01*
X155822372Y-65302479D01*
X155823862Y-65308429D01*
X155824762Y-65314496D01*
X155825063Y-65320622D01*
X155824762Y-65326748D01*
X155823862Y-65332815D01*
X155822372Y-65338765D01*
X155820305Y-65344540D01*
X155817683Y-65350084D01*
X155814530Y-65355345D01*
X155810876Y-65360272D01*
X155806757Y-65364816D01*
X155718369Y-65453204D01*
X155713825Y-65457323D01*
X155708898Y-65460977D01*
X155703637Y-65464130D01*
X155698093Y-65466752D01*
X155692318Y-65468819D01*
X155686368Y-65470309D01*
X155680301Y-65471209D01*
X155674175Y-65471510D01*
X155668049Y-65471209D01*
X155661982Y-65470309D01*
X155656032Y-65468819D01*
X155650257Y-65466752D01*
X155644713Y-65464130D01*
X155639452Y-65460977D01*
X155634525Y-65457323D01*
X155629981Y-65453204D01*
X155099651Y-64922874D01*
X155095532Y-64918330D01*
X155091878Y-64913403D01*
X155088725Y-64908142D01*
X155086103Y-64902598D01*
X155084036Y-64896823D01*
X155082546Y-64890873D01*
X155081646Y-64884806D01*
X155081345Y-64878680D01*
X155081646Y-64872554D01*
X155082546Y-64866487D01*
X155084036Y-64860537D01*
X155086103Y-64854762D01*
X155088725Y-64849218D01*
X155091878Y-64843957D01*
X155095532Y-64839030D01*
X155099651Y-64834486D01*
X155188039Y-64746098D01*
X155192583Y-64741979D01*
X155197510Y-64738325D01*
X155202771Y-64735172D01*
X155208315Y-64732550D01*
X155214090Y-64730483D01*
X155220040Y-64728993D01*
X155226107Y-64728093D01*
X155232233Y-64727792D01*
X155238359Y-64728093D01*
G37*
G36*
X154884806Y-65081646D02*
G01*
X154890873Y-65082546D01*
X154896823Y-65084036D01*
X154902598Y-65086103D01*
X154908142Y-65088725D01*
X154913403Y-65091878D01*
X154918330Y-65095532D01*
X154922874Y-65099651D01*
X155453204Y-65629981D01*
X155457323Y-65634525D01*
X155460977Y-65639452D01*
X155464130Y-65644713D01*
X155466752Y-65650257D01*
X155468819Y-65656032D01*
X155470309Y-65661982D01*
X155471209Y-65668049D01*
X155471510Y-65674175D01*
X155471209Y-65680301D01*
X155470309Y-65686368D01*
X155468819Y-65692318D01*
X155466752Y-65698093D01*
X155464130Y-65703637D01*
X155460977Y-65708898D01*
X155457323Y-65713825D01*
X155453204Y-65718369D01*
X155364816Y-65806757D01*
X155360272Y-65810876D01*
X155355345Y-65814530D01*
X155350084Y-65817683D01*
X155344540Y-65820305D01*
X155338765Y-65822372D01*
X155332815Y-65823862D01*
X155326748Y-65824762D01*
X155320622Y-65825063D01*
X155314496Y-65824762D01*
X155308429Y-65823862D01*
X155302479Y-65822372D01*
X155296704Y-65820305D01*
X155291160Y-65817683D01*
X155285899Y-65814530D01*
X155280972Y-65810876D01*
X155276428Y-65806757D01*
X154746098Y-65276427D01*
X154741979Y-65271883D01*
X154738325Y-65266956D01*
X154735172Y-65261695D01*
X154732550Y-65256151D01*
X154730483Y-65250376D01*
X154728993Y-65244426D01*
X154728093Y-65238359D01*
X154727792Y-65232233D01*
X154728093Y-65226107D01*
X154728993Y-65220040D01*
X154730483Y-65214090D01*
X154732550Y-65208315D01*
X154735172Y-65202771D01*
X154738325Y-65197510D01*
X154741979Y-65192583D01*
X154746098Y-65188039D01*
X154834486Y-65099651D01*
X154839030Y-65095532D01*
X154843957Y-65091878D01*
X154849218Y-65088725D01*
X154854762Y-65086103D01*
X154860537Y-65084036D01*
X154866487Y-65082546D01*
X154872554Y-65081646D01*
X154878680Y-65081345D01*
X154884806Y-65081646D01*
G37*
G36*
X154531252Y-65435199D02*
G01*
X154537319Y-65436099D01*
X154543269Y-65437589D01*
X154549044Y-65439656D01*
X154554588Y-65442278D01*
X154559849Y-65445431D01*
X154564776Y-65449085D01*
X154569320Y-65453204D01*
X155099650Y-65983534D01*
X155103769Y-65988078D01*
X155107423Y-65993005D01*
X155110576Y-65998266D01*
X155113198Y-66003810D01*
X155115265Y-66009585D01*
X155116755Y-66015535D01*
X155117655Y-66021602D01*
X155117956Y-66027728D01*
X155117655Y-66033854D01*
X155116755Y-66039921D01*
X155115265Y-66045871D01*
X155113198Y-66051646D01*
X155110576Y-66057190D01*
X155107423Y-66062451D01*
X155103769Y-66067378D01*
X155099650Y-66071922D01*
X155011262Y-66160310D01*
X155006718Y-66164429D01*
X155001791Y-66168083D01*
X154996530Y-66171236D01*
X154990986Y-66173858D01*
X154985211Y-66175925D01*
X154979261Y-66177415D01*
X154973194Y-66178315D01*
X154967068Y-66178616D01*
X154960942Y-66178315D01*
X154954875Y-66177415D01*
X154948925Y-66175925D01*
X154943150Y-66173858D01*
X154937606Y-66171236D01*
X154932345Y-66168083D01*
X154927418Y-66164429D01*
X154922874Y-66160310D01*
X154392544Y-65629980D01*
X154388425Y-65625436D01*
X154384771Y-65620509D01*
X154381618Y-65615248D01*
X154378996Y-65609704D01*
X154376929Y-65603929D01*
X154375439Y-65597979D01*
X154374539Y-65591912D01*
X154374238Y-65585786D01*
X154374539Y-65579660D01*
X154375439Y-65573593D01*
X154376929Y-65567643D01*
X154378996Y-65561868D01*
X154381618Y-65556324D01*
X154384771Y-65551063D01*
X154388425Y-65546136D01*
X154392544Y-65541592D01*
X154480932Y-65453204D01*
X154485476Y-65449085D01*
X154490403Y-65445431D01*
X154495664Y-65442278D01*
X154501208Y-65439656D01*
X154506983Y-65437589D01*
X154512933Y-65436099D01*
X154519000Y-65435199D01*
X154525126Y-65434898D01*
X154531252Y-65435199D01*
G37*
G36*
X154177699Y-65788753D02*
G01*
X154183766Y-65789653D01*
X154189716Y-65791143D01*
X154195491Y-65793210D01*
X154201035Y-65795832D01*
X154206296Y-65798985D01*
X154211223Y-65802639D01*
X154215767Y-65806758D01*
X154746097Y-66337088D01*
X154750216Y-66341632D01*
X154753870Y-66346559D01*
X154757023Y-66351820D01*
X154759645Y-66357364D01*
X154761712Y-66363139D01*
X154763202Y-66369089D01*
X154764102Y-66375156D01*
X154764403Y-66381282D01*
X154764102Y-66387408D01*
X154763202Y-66393475D01*
X154761712Y-66399425D01*
X154759645Y-66405200D01*
X154757023Y-66410744D01*
X154753870Y-66416005D01*
X154750216Y-66420932D01*
X154746097Y-66425476D01*
X154657709Y-66513864D01*
X154653165Y-66517983D01*
X154648238Y-66521637D01*
X154642977Y-66524790D01*
X154637433Y-66527412D01*
X154631658Y-66529479D01*
X154625708Y-66530969D01*
X154619641Y-66531869D01*
X154613515Y-66532170D01*
X154607389Y-66531869D01*
X154601322Y-66530969D01*
X154595372Y-66529479D01*
X154589597Y-66527412D01*
X154584053Y-66524790D01*
X154578792Y-66521637D01*
X154573865Y-66517983D01*
X154569321Y-66513864D01*
X154038991Y-65983534D01*
X154034872Y-65978990D01*
X154031218Y-65974063D01*
X154028065Y-65968802D01*
X154025443Y-65963258D01*
X154023376Y-65957483D01*
X154021886Y-65951533D01*
X154020986Y-65945466D01*
X154020685Y-65939340D01*
X154020986Y-65933214D01*
X154021886Y-65927147D01*
X154023376Y-65921197D01*
X154025443Y-65915422D01*
X154028065Y-65909878D01*
X154031218Y-65904617D01*
X154034872Y-65899690D01*
X154038991Y-65895146D01*
X154127379Y-65806758D01*
X154131923Y-65802639D01*
X154136850Y-65798985D01*
X154142111Y-65795832D01*
X154147655Y-65793210D01*
X154153430Y-65791143D01*
X154159380Y-65789653D01*
X154165447Y-65788753D01*
X154171573Y-65788452D01*
X154177699Y-65788753D01*
G37*
G36*
X153824145Y-66142306D02*
G01*
X153830212Y-66143206D01*
X153836162Y-66144696D01*
X153841937Y-66146763D01*
X153847481Y-66149385D01*
X153852742Y-66152538D01*
X153857669Y-66156192D01*
X153862213Y-66160311D01*
X154392543Y-66690641D01*
X154396662Y-66695185D01*
X154400316Y-66700112D01*
X154403469Y-66705373D01*
X154406091Y-66710917D01*
X154408158Y-66716692D01*
X154409648Y-66722642D01*
X154410548Y-66728709D01*
X154410849Y-66734835D01*
X154410548Y-66740961D01*
X154409648Y-66747028D01*
X154408158Y-66752978D01*
X154406091Y-66758753D01*
X154403469Y-66764297D01*
X154400316Y-66769558D01*
X154396662Y-66774485D01*
X154392543Y-66779029D01*
X154304155Y-66867417D01*
X154299611Y-66871536D01*
X154294684Y-66875190D01*
X154289423Y-66878343D01*
X154283879Y-66880965D01*
X154278104Y-66883032D01*
X154272154Y-66884522D01*
X154266087Y-66885422D01*
X154259961Y-66885723D01*
X154253835Y-66885422D01*
X154247768Y-66884522D01*
X154241818Y-66883032D01*
X154236043Y-66880965D01*
X154230499Y-66878343D01*
X154225238Y-66875190D01*
X154220311Y-66871536D01*
X154215767Y-66867417D01*
X153685437Y-66337087D01*
X153681318Y-66332543D01*
X153677664Y-66327616D01*
X153674511Y-66322355D01*
X153671889Y-66316811D01*
X153669822Y-66311036D01*
X153668332Y-66305086D01*
X153667432Y-66299019D01*
X153667131Y-66292893D01*
X153667432Y-66286767D01*
X153668332Y-66280700D01*
X153669822Y-66274750D01*
X153671889Y-66268975D01*
X153674511Y-66263431D01*
X153677664Y-66258170D01*
X153681318Y-66253243D01*
X153685437Y-66248699D01*
X153773825Y-66160311D01*
X153778369Y-66156192D01*
X153783296Y-66152538D01*
X153788557Y-66149385D01*
X153794101Y-66146763D01*
X153799876Y-66144696D01*
X153805826Y-66143206D01*
X153811893Y-66142306D01*
X153818019Y-66142005D01*
X153824145Y-66142306D01*
G37*
G36*
X154266087Y-67114578D02*
G01*
X154272154Y-67115478D01*
X154278104Y-67116968D01*
X154283879Y-67119035D01*
X154289423Y-67121657D01*
X154294684Y-67124810D01*
X154299611Y-67128464D01*
X154304155Y-67132583D01*
X154392543Y-67220971D01*
X154396662Y-67225515D01*
X154400316Y-67230442D01*
X154403469Y-67235703D01*
X154406091Y-67241247D01*
X154408158Y-67247022D01*
X154409648Y-67252972D01*
X154410548Y-67259039D01*
X154410849Y-67265165D01*
X154410548Y-67271291D01*
X154409648Y-67277358D01*
X154408158Y-67283308D01*
X154406091Y-67289083D01*
X154403469Y-67294627D01*
X154400316Y-67299888D01*
X154396662Y-67304815D01*
X154392543Y-67309359D01*
X153862213Y-67839689D01*
X153857669Y-67843808D01*
X153852742Y-67847462D01*
X153847481Y-67850615D01*
X153841937Y-67853237D01*
X153836162Y-67855304D01*
X153830212Y-67856794D01*
X153824145Y-67857694D01*
X153818019Y-67857995D01*
X153811893Y-67857694D01*
X153805826Y-67856794D01*
X153799876Y-67855304D01*
X153794101Y-67853237D01*
X153788557Y-67850615D01*
X153783296Y-67847462D01*
X153778369Y-67843808D01*
X153773825Y-67839689D01*
X153685437Y-67751301D01*
X153681318Y-67746757D01*
X153677664Y-67741830D01*
X153674511Y-67736569D01*
X153671889Y-67731025D01*
X153669822Y-67725250D01*
X153668332Y-67719300D01*
X153667432Y-67713233D01*
X153667131Y-67707107D01*
X153667432Y-67700981D01*
X153668332Y-67694914D01*
X153669822Y-67688964D01*
X153671889Y-67683189D01*
X153674511Y-67677645D01*
X153677664Y-67672384D01*
X153681318Y-67667457D01*
X153685437Y-67662913D01*
X154215767Y-67132583D01*
X154220311Y-67128464D01*
X154225238Y-67124810D01*
X154230499Y-67121657D01*
X154236043Y-67119035D01*
X154241818Y-67116968D01*
X154247768Y-67115478D01*
X154253835Y-67114578D01*
X154259961Y-67114277D01*
X154266087Y-67114578D01*
G37*
G36*
X154619641Y-67468131D02*
G01*
X154625708Y-67469031D01*
X154631658Y-67470521D01*
X154637433Y-67472588D01*
X154642977Y-67475210D01*
X154648238Y-67478363D01*
X154653165Y-67482017D01*
X154657709Y-67486136D01*
X154746097Y-67574524D01*
X154750216Y-67579068D01*
X154753870Y-67583995D01*
X154757023Y-67589256D01*
X154759645Y-67594800D01*
X154761712Y-67600575D01*
X154763202Y-67606525D01*
X154764102Y-67612592D01*
X154764403Y-67618718D01*
X154764102Y-67624844D01*
X154763202Y-67630911D01*
X154761712Y-67636861D01*
X154759645Y-67642636D01*
X154757023Y-67648180D01*
X154753870Y-67653441D01*
X154750216Y-67658368D01*
X154746097Y-67662912D01*
X154215767Y-68193242D01*
X154211223Y-68197361D01*
X154206296Y-68201015D01*
X154201035Y-68204168D01*
X154195491Y-68206790D01*
X154189716Y-68208857D01*
X154183766Y-68210347D01*
X154177699Y-68211247D01*
X154171573Y-68211548D01*
X154165447Y-68211247D01*
X154159380Y-68210347D01*
X154153430Y-68208857D01*
X154147655Y-68206790D01*
X154142111Y-68204168D01*
X154136850Y-68201015D01*
X154131923Y-68197361D01*
X154127379Y-68193242D01*
X154038991Y-68104854D01*
X154034872Y-68100310D01*
X154031218Y-68095383D01*
X154028065Y-68090122D01*
X154025443Y-68084578D01*
X154023376Y-68078803D01*
X154021886Y-68072853D01*
X154020986Y-68066786D01*
X154020685Y-68060660D01*
X154020986Y-68054534D01*
X154021886Y-68048467D01*
X154023376Y-68042517D01*
X154025443Y-68036742D01*
X154028065Y-68031198D01*
X154031218Y-68025937D01*
X154034872Y-68021010D01*
X154038991Y-68016466D01*
X154569321Y-67486136D01*
X154573865Y-67482017D01*
X154578792Y-67478363D01*
X154584053Y-67475210D01*
X154589597Y-67472588D01*
X154595372Y-67470521D01*
X154601322Y-67469031D01*
X154607389Y-67468131D01*
X154613515Y-67467830D01*
X154619641Y-67468131D01*
G37*
G36*
X154973194Y-67821685D02*
G01*
X154979261Y-67822585D01*
X154985211Y-67824075D01*
X154990986Y-67826142D01*
X154996530Y-67828764D01*
X155001791Y-67831917D01*
X155006718Y-67835571D01*
X155011262Y-67839690D01*
X155099650Y-67928078D01*
X155103769Y-67932622D01*
X155107423Y-67937549D01*
X155110576Y-67942810D01*
X155113198Y-67948354D01*
X155115265Y-67954129D01*
X155116755Y-67960079D01*
X155117655Y-67966146D01*
X155117956Y-67972272D01*
X155117655Y-67978398D01*
X155116755Y-67984465D01*
X155115265Y-67990415D01*
X155113198Y-67996190D01*
X155110576Y-68001734D01*
X155107423Y-68006995D01*
X155103769Y-68011922D01*
X155099650Y-68016466D01*
X154569320Y-68546796D01*
X154564776Y-68550915D01*
X154559849Y-68554569D01*
X154554588Y-68557722D01*
X154549044Y-68560344D01*
X154543269Y-68562411D01*
X154537319Y-68563901D01*
X154531252Y-68564801D01*
X154525126Y-68565102D01*
X154519000Y-68564801D01*
X154512933Y-68563901D01*
X154506983Y-68562411D01*
X154501208Y-68560344D01*
X154495664Y-68557722D01*
X154490403Y-68554569D01*
X154485476Y-68550915D01*
X154480932Y-68546796D01*
X154392544Y-68458408D01*
X154388425Y-68453864D01*
X154384771Y-68448937D01*
X154381618Y-68443676D01*
X154378996Y-68438132D01*
X154376929Y-68432357D01*
X154375439Y-68426407D01*
X154374539Y-68420340D01*
X154374238Y-68414214D01*
X154374539Y-68408088D01*
X154375439Y-68402021D01*
X154376929Y-68396071D01*
X154378996Y-68390296D01*
X154381618Y-68384752D01*
X154384771Y-68379491D01*
X154388425Y-68374564D01*
X154392544Y-68370020D01*
X154922874Y-67839690D01*
X154927418Y-67835571D01*
X154932345Y-67831917D01*
X154937606Y-67828764D01*
X154943150Y-67826142D01*
X154948925Y-67824075D01*
X154954875Y-67822585D01*
X154960942Y-67821685D01*
X154967068Y-67821384D01*
X154973194Y-67821685D01*
G37*
G36*
X155326748Y-68175238D02*
G01*
X155332815Y-68176138D01*
X155338765Y-68177628D01*
X155344540Y-68179695D01*
X155350084Y-68182317D01*
X155355345Y-68185470D01*
X155360272Y-68189124D01*
X155364816Y-68193243D01*
X155453204Y-68281631D01*
X155457323Y-68286175D01*
X155460977Y-68291102D01*
X155464130Y-68296363D01*
X155466752Y-68301907D01*
X155468819Y-68307682D01*
X155470309Y-68313632D01*
X155471209Y-68319699D01*
X155471510Y-68325825D01*
X155471209Y-68331951D01*
X155470309Y-68338018D01*
X155468819Y-68343968D01*
X155466752Y-68349743D01*
X155464130Y-68355287D01*
X155460977Y-68360548D01*
X155457323Y-68365475D01*
X155453204Y-68370019D01*
X154922874Y-68900349D01*
X154918330Y-68904468D01*
X154913403Y-68908122D01*
X154908142Y-68911275D01*
X154902598Y-68913897D01*
X154896823Y-68915964D01*
X154890873Y-68917454D01*
X154884806Y-68918354D01*
X154878680Y-68918655D01*
X154872554Y-68918354D01*
X154866487Y-68917454D01*
X154860537Y-68915964D01*
X154854762Y-68913897D01*
X154849218Y-68911275D01*
X154843957Y-68908122D01*
X154839030Y-68904468D01*
X154834486Y-68900349D01*
X154746098Y-68811961D01*
X154741979Y-68807417D01*
X154738325Y-68802490D01*
X154735172Y-68797229D01*
X154732550Y-68791685D01*
X154730483Y-68785910D01*
X154728993Y-68779960D01*
X154728093Y-68773893D01*
X154727792Y-68767767D01*
X154728093Y-68761641D01*
X154728993Y-68755574D01*
X154730483Y-68749624D01*
X154732550Y-68743849D01*
X154735172Y-68738305D01*
X154738325Y-68733044D01*
X154741979Y-68728117D01*
X154746098Y-68723573D01*
X155276428Y-68193243D01*
X155280972Y-68189124D01*
X155285899Y-68185470D01*
X155291160Y-68182317D01*
X155296704Y-68179695D01*
X155302479Y-68177628D01*
X155308429Y-68176138D01*
X155314496Y-68175238D01*
X155320622Y-68174937D01*
X155326748Y-68175238D01*
G37*
G36*
X155680301Y-68528791D02*
G01*
X155686368Y-68529691D01*
X155692318Y-68531181D01*
X155698093Y-68533248D01*
X155703637Y-68535870D01*
X155708898Y-68539023D01*
X155713825Y-68542677D01*
X155718369Y-68546796D01*
X155806757Y-68635184D01*
X155810876Y-68639728D01*
X155814530Y-68644655D01*
X155817683Y-68649916D01*
X155820305Y-68655460D01*
X155822372Y-68661235D01*
X155823862Y-68667185D01*
X155824762Y-68673252D01*
X155825063Y-68679378D01*
X155824762Y-68685504D01*
X155823862Y-68691571D01*
X155822372Y-68697521D01*
X155820305Y-68703296D01*
X155817683Y-68708840D01*
X155814530Y-68714101D01*
X155810876Y-68719028D01*
X155806757Y-68723572D01*
X155276427Y-69253902D01*
X155271883Y-69258021D01*
X155266956Y-69261675D01*
X155261695Y-69264828D01*
X155256151Y-69267450D01*
X155250376Y-69269517D01*
X155244426Y-69271007D01*
X155238359Y-69271907D01*
X155232233Y-69272208D01*
X155226107Y-69271907D01*
X155220040Y-69271007D01*
X155214090Y-69269517D01*
X155208315Y-69267450D01*
X155202771Y-69264828D01*
X155197510Y-69261675D01*
X155192583Y-69258021D01*
X155188039Y-69253902D01*
X155099651Y-69165514D01*
X155095532Y-69160970D01*
X155091878Y-69156043D01*
X155088725Y-69150782D01*
X155086103Y-69145238D01*
X155084036Y-69139463D01*
X155082546Y-69133513D01*
X155081646Y-69127446D01*
X155081345Y-69121320D01*
X155081646Y-69115194D01*
X155082546Y-69109127D01*
X155084036Y-69103177D01*
X155086103Y-69097402D01*
X155088725Y-69091858D01*
X155091878Y-69086597D01*
X155095532Y-69081670D01*
X155099651Y-69077126D01*
X155629981Y-68546796D01*
X155634525Y-68542677D01*
X155639452Y-68539023D01*
X155644713Y-68535870D01*
X155650257Y-68533248D01*
X155656032Y-68531181D01*
X155661982Y-68529691D01*
X155668049Y-68528791D01*
X155674175Y-68528490D01*
X155680301Y-68528791D01*
G37*
G36*
X156033854Y-68882345D02*
G01*
X156039921Y-68883245D01*
X156045871Y-68884735D01*
X156051646Y-68886802D01*
X156057190Y-68889424D01*
X156062451Y-68892577D01*
X156067378Y-68896231D01*
X156071922Y-68900350D01*
X156160310Y-68988738D01*
X156164429Y-68993282D01*
X156168083Y-68998209D01*
X156171236Y-69003470D01*
X156173858Y-69009014D01*
X156175925Y-69014789D01*
X156177415Y-69020739D01*
X156178315Y-69026806D01*
X156178616Y-69032932D01*
X156178315Y-69039058D01*
X156177415Y-69045125D01*
X156175925Y-69051075D01*
X156173858Y-69056850D01*
X156171236Y-69062394D01*
X156168083Y-69067655D01*
X156164429Y-69072582D01*
X156160310Y-69077126D01*
X155629980Y-69607456D01*
X155625436Y-69611575D01*
X155620509Y-69615229D01*
X155615248Y-69618382D01*
X155609704Y-69621004D01*
X155603929Y-69623071D01*
X155597979Y-69624561D01*
X155591912Y-69625461D01*
X155585786Y-69625762D01*
X155579660Y-69625461D01*
X155573593Y-69624561D01*
X155567643Y-69623071D01*
X155561868Y-69621004D01*
X155556324Y-69618382D01*
X155551063Y-69615229D01*
X155546136Y-69611575D01*
X155541592Y-69607456D01*
X155453204Y-69519068D01*
X155449085Y-69514524D01*
X155445431Y-69509597D01*
X155442278Y-69504336D01*
X155439656Y-69498792D01*
X155437589Y-69493017D01*
X155436099Y-69487067D01*
X155435199Y-69481000D01*
X155434898Y-69474874D01*
X155435199Y-69468748D01*
X155436099Y-69462681D01*
X155437589Y-69456731D01*
X155439656Y-69450956D01*
X155442278Y-69445412D01*
X155445431Y-69440151D01*
X155449085Y-69435224D01*
X155453204Y-69430680D01*
X155983534Y-68900350D01*
X155988078Y-68896231D01*
X155993005Y-68892577D01*
X155998266Y-68889424D01*
X156003810Y-68886802D01*
X156009585Y-68884735D01*
X156015535Y-68883245D01*
X156021602Y-68882345D01*
X156027728Y-68882044D01*
X156033854Y-68882345D01*
G37*
G36*
X156387408Y-69235898D02*
G01*
X156393475Y-69236798D01*
X156399425Y-69238288D01*
X156405200Y-69240355D01*
X156410744Y-69242977D01*
X156416005Y-69246130D01*
X156420932Y-69249784D01*
X156425476Y-69253903D01*
X156513864Y-69342291D01*
X156517983Y-69346835D01*
X156521637Y-69351762D01*
X156524790Y-69357023D01*
X156527412Y-69362567D01*
X156529479Y-69368342D01*
X156530969Y-69374292D01*
X156531869Y-69380359D01*
X156532170Y-69386485D01*
X156531869Y-69392611D01*
X156530969Y-69398678D01*
X156529479Y-69404628D01*
X156527412Y-69410403D01*
X156524790Y-69415947D01*
X156521637Y-69421208D01*
X156517983Y-69426135D01*
X156513864Y-69430679D01*
X155983534Y-69961009D01*
X155978990Y-69965128D01*
X155974063Y-69968782D01*
X155968802Y-69971935D01*
X155963258Y-69974557D01*
X155957483Y-69976624D01*
X155951533Y-69978114D01*
X155945466Y-69979014D01*
X155939340Y-69979315D01*
X155933214Y-69979014D01*
X155927147Y-69978114D01*
X155921197Y-69976624D01*
X155915422Y-69974557D01*
X155909878Y-69971935D01*
X155904617Y-69968782D01*
X155899690Y-69965128D01*
X155895146Y-69961009D01*
X155806758Y-69872621D01*
X155802639Y-69868077D01*
X155798985Y-69863150D01*
X155795832Y-69857889D01*
X155793210Y-69852345D01*
X155791143Y-69846570D01*
X155789653Y-69840620D01*
X155788753Y-69834553D01*
X155788452Y-69828427D01*
X155788753Y-69822301D01*
X155789653Y-69816234D01*
X155791143Y-69810284D01*
X155793210Y-69804509D01*
X155795832Y-69798965D01*
X155798985Y-69793704D01*
X155802639Y-69788777D01*
X155806758Y-69784233D01*
X156337088Y-69253903D01*
X156341632Y-69249784D01*
X156346559Y-69246130D01*
X156351820Y-69242977D01*
X156357364Y-69240355D01*
X156363139Y-69238288D01*
X156369089Y-69236798D01*
X156375156Y-69235898D01*
X156381282Y-69235597D01*
X156387408Y-69235898D01*
G37*
G36*
X156740961Y-69589452D02*
G01*
X156747028Y-69590352D01*
X156752978Y-69591842D01*
X156758753Y-69593909D01*
X156764297Y-69596531D01*
X156769558Y-69599684D01*
X156774485Y-69603338D01*
X156779029Y-69607457D01*
X156867417Y-69695845D01*
X156871536Y-69700389D01*
X156875190Y-69705316D01*
X156878343Y-69710577D01*
X156880965Y-69716121D01*
X156883032Y-69721896D01*
X156884522Y-69727846D01*
X156885422Y-69733913D01*
X156885723Y-69740039D01*
X156885422Y-69746165D01*
X156884522Y-69752232D01*
X156883032Y-69758182D01*
X156880965Y-69763957D01*
X156878343Y-69769501D01*
X156875190Y-69774762D01*
X156871536Y-69779689D01*
X156867417Y-69784233D01*
X156337087Y-70314563D01*
X156332543Y-70318682D01*
X156327616Y-70322336D01*
X156322355Y-70325489D01*
X156316811Y-70328111D01*
X156311036Y-70330178D01*
X156305086Y-70331668D01*
X156299019Y-70332568D01*
X156292893Y-70332869D01*
X156286767Y-70332568D01*
X156280700Y-70331668D01*
X156274750Y-70330178D01*
X156268975Y-70328111D01*
X156263431Y-70325489D01*
X156258170Y-70322336D01*
X156253243Y-70318682D01*
X156248699Y-70314563D01*
X156160311Y-70226175D01*
X156156192Y-70221631D01*
X156152538Y-70216704D01*
X156149385Y-70211443D01*
X156146763Y-70205899D01*
X156144696Y-70200124D01*
X156143206Y-70194174D01*
X156142306Y-70188107D01*
X156142005Y-70181981D01*
X156142306Y-70175855D01*
X156143206Y-70169788D01*
X156144696Y-70163838D01*
X156146763Y-70158063D01*
X156149385Y-70152519D01*
X156152538Y-70147258D01*
X156156192Y-70142331D01*
X156160311Y-70137787D01*
X156690641Y-69607457D01*
X156695185Y-69603338D01*
X156700112Y-69599684D01*
X156705373Y-69596531D01*
X156710917Y-69593909D01*
X156716692Y-69591842D01*
X156722642Y-69590352D01*
X156728709Y-69589452D01*
X156734835Y-69589151D01*
X156740961Y-69589452D01*
G37*
G36*
X157022789Y-64813469D02*
G01*
X157045358Y-64816816D01*
X157067491Y-64822360D01*
X157088974Y-64830047D01*
X157109600Y-64839802D01*
X157129170Y-64851532D01*
X157147496Y-64865124D01*
X157164402Y-64880447D01*
X157493207Y-65209252D01*
X157508530Y-65226158D01*
X157522122Y-65244484D01*
X157533852Y-65264054D01*
X157543607Y-65284680D01*
X157551294Y-65306163D01*
X157556838Y-65328296D01*
X157560185Y-65350865D01*
X157561305Y-65373654D01*
X157560185Y-65396443D01*
X157556838Y-65419012D01*
X157551294Y-65441145D01*
X157543607Y-65462628D01*
X157533852Y-65483254D01*
X157522122Y-65502824D01*
X157508530Y-65521150D01*
X157493207Y-65538056D01*
X157164402Y-65866861D01*
X157147496Y-65882184D01*
X157129170Y-65895776D01*
X157109600Y-65907506D01*
X157088974Y-65917261D01*
X157067491Y-65924948D01*
X157045358Y-65930492D01*
X157022789Y-65933839D01*
X157000000Y-65934959D01*
X156977211Y-65933839D01*
X156954642Y-65930492D01*
X156932509Y-65924948D01*
X156911026Y-65917261D01*
X156890400Y-65907506D01*
X156870830Y-65895776D01*
X156852504Y-65882184D01*
X156835598Y-65866861D01*
X156506793Y-65538056D01*
X156491470Y-65521150D01*
X156477878Y-65502824D01*
X156466148Y-65483254D01*
X156456393Y-65462628D01*
X156448706Y-65441145D01*
X156443162Y-65419012D01*
X156439815Y-65396443D01*
X156438695Y-65373654D01*
X156439815Y-65350865D01*
X156443162Y-65328296D01*
X156448706Y-65306163D01*
X156456393Y-65284680D01*
X156466148Y-65264054D01*
X156477878Y-65244484D01*
X156491470Y-65226158D01*
X156506793Y-65209252D01*
X156835598Y-64880447D01*
X156852504Y-64865124D01*
X156870830Y-64851532D01*
X156890400Y-64839802D01*
X156911026Y-64830047D01*
X156932509Y-64822360D01*
X156954642Y-64816816D01*
X156977211Y-64813469D01*
X157000000Y-64812349D01*
X157022789Y-64813469D01*
G37*
G36*
X157835962Y-65626642D02*
G01*
X157858531Y-65629989D01*
X157880664Y-65635533D01*
X157902147Y-65643220D01*
X157922773Y-65652975D01*
X157942343Y-65664705D01*
X157960669Y-65678297D01*
X157977575Y-65693620D01*
X158306380Y-66022425D01*
X158321703Y-66039331D01*
X158335295Y-66057657D01*
X158347025Y-66077227D01*
X158356780Y-66097853D01*
X158364467Y-66119336D01*
X158370011Y-66141469D01*
X158373358Y-66164038D01*
X158374478Y-66186827D01*
X158373358Y-66209616D01*
X158370011Y-66232185D01*
X158364467Y-66254318D01*
X158356780Y-66275801D01*
X158347025Y-66296427D01*
X158335295Y-66315997D01*
X158321703Y-66334323D01*
X158306380Y-66351229D01*
X157977575Y-66680034D01*
X157960669Y-66695357D01*
X157942343Y-66708949D01*
X157922773Y-66720679D01*
X157902147Y-66730434D01*
X157880664Y-66738121D01*
X157858531Y-66743665D01*
X157835962Y-66747012D01*
X157813173Y-66748132D01*
X157790384Y-66747012D01*
X157767815Y-66743665D01*
X157745682Y-66738121D01*
X157724199Y-66730434D01*
X157703573Y-66720679D01*
X157684003Y-66708949D01*
X157665677Y-66695357D01*
X157648771Y-66680034D01*
X157319966Y-66351229D01*
X157304643Y-66334323D01*
X157291051Y-66315997D01*
X157279321Y-66296427D01*
X157269566Y-66275801D01*
X157261879Y-66254318D01*
X157256335Y-66232185D01*
X157252988Y-66209616D01*
X157251868Y-66186827D01*
X157252988Y-66164038D01*
X157256335Y-66141469D01*
X157261879Y-66119336D01*
X157269566Y-66097853D01*
X157279321Y-66077227D01*
X157291051Y-66057657D01*
X157304643Y-66039331D01*
X157319966Y-66022425D01*
X157648771Y-65693620D01*
X157665677Y-65678297D01*
X157684003Y-65664705D01*
X157703573Y-65652975D01*
X157724199Y-65643220D01*
X157745682Y-65635533D01*
X157767815Y-65629989D01*
X157790384Y-65626642D01*
X157813173Y-65625522D01*
X157835962Y-65626642D01*
G37*
G36*
X158649135Y-66439815D02*
G01*
X158671704Y-66443162D01*
X158693837Y-66448706D01*
X158715320Y-66456393D01*
X158735946Y-66466148D01*
X158755516Y-66477878D01*
X158773842Y-66491470D01*
X158790748Y-66506793D01*
X159119553Y-66835598D01*
X159134876Y-66852504D01*
X159148468Y-66870830D01*
X159160198Y-66890400D01*
X159169953Y-66911026D01*
X159177640Y-66932509D01*
X159183184Y-66954642D01*
X159186531Y-66977211D01*
X159187651Y-67000000D01*
X159186531Y-67022789D01*
X159183184Y-67045358D01*
X159177640Y-67067491D01*
X159169953Y-67088974D01*
X159160198Y-67109600D01*
X159148468Y-67129170D01*
X159134876Y-67147496D01*
X159119553Y-67164402D01*
X158790748Y-67493207D01*
X158773842Y-67508530D01*
X158755516Y-67522122D01*
X158735946Y-67533852D01*
X158715320Y-67543607D01*
X158693837Y-67551294D01*
X158671704Y-67556838D01*
X158649135Y-67560185D01*
X158626346Y-67561305D01*
X158603557Y-67560185D01*
X158580988Y-67556838D01*
X158558855Y-67551294D01*
X158537372Y-67543607D01*
X158516746Y-67533852D01*
X158497176Y-67522122D01*
X158478850Y-67508530D01*
X158461944Y-67493207D01*
X158133139Y-67164402D01*
X158117816Y-67147496D01*
X158104224Y-67129170D01*
X158092494Y-67109600D01*
X158082739Y-67088974D01*
X158075052Y-67067491D01*
X158069508Y-67045358D01*
X158066161Y-67022789D01*
X158065041Y-67000000D01*
X158066161Y-66977211D01*
X158069508Y-66954642D01*
X158075052Y-66932509D01*
X158082739Y-66911026D01*
X158092494Y-66890400D01*
X158104224Y-66870830D01*
X158117816Y-66852504D01*
X158133139Y-66835598D01*
X158461944Y-66506793D01*
X158478850Y-66491470D01*
X158497176Y-66477878D01*
X158516746Y-66466148D01*
X158537372Y-66456393D01*
X158558855Y-66448706D01*
X158580988Y-66443162D01*
X158603557Y-66439815D01*
X158626346Y-66438695D01*
X158649135Y-66439815D01*
G37*
G36*
X156209616Y-65626642D02*
G01*
X156232185Y-65629989D01*
X156254318Y-65635533D01*
X156275801Y-65643220D01*
X156296427Y-65652975D01*
X156315997Y-65664705D01*
X156334323Y-65678297D01*
X156351229Y-65693620D01*
X156680034Y-66022425D01*
X156695357Y-66039331D01*
X156708949Y-66057657D01*
X156720679Y-66077227D01*
X156730434Y-66097853D01*
X156738121Y-66119336D01*
X156743665Y-66141469D01*
X156747012Y-66164038D01*
X156748132Y-66186827D01*
X156747012Y-66209616D01*
X156743665Y-66232185D01*
X156738121Y-66254318D01*
X156730434Y-66275801D01*
X156720679Y-66296427D01*
X156708949Y-66315997D01*
X156695357Y-66334323D01*
X156680034Y-66351229D01*
X156351229Y-66680034D01*
X156334323Y-66695357D01*
X156315997Y-66708949D01*
X156296427Y-66720679D01*
X156275801Y-66730434D01*
X156254318Y-66738121D01*
X156232185Y-66743665D01*
X156209616Y-66747012D01*
X156186827Y-66748132D01*
X156164038Y-66747012D01*
X156141469Y-66743665D01*
X156119336Y-66738121D01*
X156097853Y-66730434D01*
X156077227Y-66720679D01*
X156057657Y-66708949D01*
X156039331Y-66695357D01*
X156022425Y-66680034D01*
X155693620Y-66351229D01*
X155678297Y-66334323D01*
X155664705Y-66315997D01*
X155652975Y-66296427D01*
X155643220Y-66275801D01*
X155635533Y-66254318D01*
X155629989Y-66232185D01*
X155626642Y-66209616D01*
X155625522Y-66186827D01*
X155626642Y-66164038D01*
X155629989Y-66141469D01*
X155635533Y-66119336D01*
X155643220Y-66097853D01*
X155652975Y-66077227D01*
X155664705Y-66057657D01*
X155678297Y-66039331D01*
X155693620Y-66022425D01*
X156022425Y-65693620D01*
X156039331Y-65678297D01*
X156057657Y-65664705D01*
X156077227Y-65652975D01*
X156097853Y-65643220D01*
X156119336Y-65635533D01*
X156141469Y-65629989D01*
X156164038Y-65626642D01*
X156186827Y-65625522D01*
X156209616Y-65626642D01*
G37*
G36*
X157022789Y-66439815D02*
G01*
X157045358Y-66443162D01*
X157067491Y-66448706D01*
X157088974Y-66456393D01*
X157109600Y-66466148D01*
X157129170Y-66477878D01*
X157147496Y-66491470D01*
X157164402Y-66506793D01*
X157493207Y-66835598D01*
X157508530Y-66852504D01*
X157522122Y-66870830D01*
X157533852Y-66890400D01*
X157543607Y-66911026D01*
X157551294Y-66932509D01*
X157556838Y-66954642D01*
X157560185Y-66977211D01*
X157561305Y-67000000D01*
X157560185Y-67022789D01*
X157556838Y-67045358D01*
X157551294Y-67067491D01*
X157543607Y-67088974D01*
X157533852Y-67109600D01*
X157522122Y-67129170D01*
X157508530Y-67147496D01*
X157493207Y-67164402D01*
X157164402Y-67493207D01*
X157147496Y-67508530D01*
X157129170Y-67522122D01*
X157109600Y-67533852D01*
X157088974Y-67543607D01*
X157067491Y-67551294D01*
X157045358Y-67556838D01*
X157022789Y-67560185D01*
X157000000Y-67561305D01*
X156977211Y-67560185D01*
X156954642Y-67556838D01*
X156932509Y-67551294D01*
X156911026Y-67543607D01*
X156890400Y-67533852D01*
X156870830Y-67522122D01*
X156852504Y-67508530D01*
X156835598Y-67493207D01*
X156506793Y-67164402D01*
X156491470Y-67147496D01*
X156477878Y-67129170D01*
X156466148Y-67109600D01*
X156456393Y-67088974D01*
X156448706Y-67067491D01*
X156443162Y-67045358D01*
X156439815Y-67022789D01*
X156438695Y-67000000D01*
X156439815Y-66977211D01*
X156443162Y-66954642D01*
X156448706Y-66932509D01*
X156456393Y-66911026D01*
X156466148Y-66890400D01*
X156477878Y-66870830D01*
X156491470Y-66852504D01*
X156506793Y-66835598D01*
X156835598Y-66506793D01*
X156852504Y-66491470D01*
X156870830Y-66477878D01*
X156890400Y-66466148D01*
X156911026Y-66456393D01*
X156932509Y-66448706D01*
X156954642Y-66443162D01*
X156977211Y-66439815D01*
X157000000Y-66438695D01*
X157022789Y-66439815D01*
G37*
G36*
X157835962Y-67252988D02*
G01*
X157858531Y-67256335D01*
X157880664Y-67261879D01*
X157902147Y-67269566D01*
X157922773Y-67279321D01*
X157942343Y-67291051D01*
X157960669Y-67304643D01*
X157977575Y-67319966D01*
X158306380Y-67648771D01*
X158321703Y-67665677D01*
X158335295Y-67684003D01*
X158347025Y-67703573D01*
X158356780Y-67724199D01*
X158364467Y-67745682D01*
X158370011Y-67767815D01*
X158373358Y-67790384D01*
X158374478Y-67813173D01*
X158373358Y-67835962D01*
X158370011Y-67858531D01*
X158364467Y-67880664D01*
X158356780Y-67902147D01*
X158347025Y-67922773D01*
X158335295Y-67942343D01*
X158321703Y-67960669D01*
X158306380Y-67977575D01*
X157977575Y-68306380D01*
X157960669Y-68321703D01*
X157942343Y-68335295D01*
X157922773Y-68347025D01*
X157902147Y-68356780D01*
X157880664Y-68364467D01*
X157858531Y-68370011D01*
X157835962Y-68373358D01*
X157813173Y-68374478D01*
X157790384Y-68373358D01*
X157767815Y-68370011D01*
X157745682Y-68364467D01*
X157724199Y-68356780D01*
X157703573Y-68347025D01*
X157684003Y-68335295D01*
X157665677Y-68321703D01*
X157648771Y-68306380D01*
X157319966Y-67977575D01*
X157304643Y-67960669D01*
X157291051Y-67942343D01*
X157279321Y-67922773D01*
X157269566Y-67902147D01*
X157261879Y-67880664D01*
X157256335Y-67858531D01*
X157252988Y-67835962D01*
X157251868Y-67813173D01*
X157252988Y-67790384D01*
X157256335Y-67767815D01*
X157261879Y-67745682D01*
X157269566Y-67724199D01*
X157279321Y-67703573D01*
X157291051Y-67684003D01*
X157304643Y-67665677D01*
X157319966Y-67648771D01*
X157648771Y-67319966D01*
X157665677Y-67304643D01*
X157684003Y-67291051D01*
X157703573Y-67279321D01*
X157724199Y-67269566D01*
X157745682Y-67261879D01*
X157767815Y-67256335D01*
X157790384Y-67252988D01*
X157813173Y-67251868D01*
X157835962Y-67252988D01*
G37*
G36*
X155396443Y-66439815D02*
G01*
X155419012Y-66443162D01*
X155441145Y-66448706D01*
X155462628Y-66456393D01*
X155483254Y-66466148D01*
X155502824Y-66477878D01*
X155521150Y-66491470D01*
X155538056Y-66506793D01*
X155866861Y-66835598D01*
X155882184Y-66852504D01*
X155895776Y-66870830D01*
X155907506Y-66890400D01*
X155917261Y-66911026D01*
X155924948Y-66932509D01*
X155930492Y-66954642D01*
X155933839Y-66977211D01*
X155934959Y-67000000D01*
X155933839Y-67022789D01*
X155930492Y-67045358D01*
X155924948Y-67067491D01*
X155917261Y-67088974D01*
X155907506Y-67109600D01*
X155895776Y-67129170D01*
X155882184Y-67147496D01*
X155866861Y-67164402D01*
X155538056Y-67493207D01*
X155521150Y-67508530D01*
X155502824Y-67522122D01*
X155483254Y-67533852D01*
X155462628Y-67543607D01*
X155441145Y-67551294D01*
X155419012Y-67556838D01*
X155396443Y-67560185D01*
X155373654Y-67561305D01*
X155350865Y-67560185D01*
X155328296Y-67556838D01*
X155306163Y-67551294D01*
X155284680Y-67543607D01*
X155264054Y-67533852D01*
X155244484Y-67522122D01*
X155226158Y-67508530D01*
X155209252Y-67493207D01*
X154880447Y-67164402D01*
X154865124Y-67147496D01*
X154851532Y-67129170D01*
X154839802Y-67109600D01*
X154830047Y-67088974D01*
X154822360Y-67067491D01*
X154816816Y-67045358D01*
X154813469Y-67022789D01*
X154812349Y-67000000D01*
X154813469Y-66977211D01*
X154816816Y-66954642D01*
X154822360Y-66932509D01*
X154830047Y-66911026D01*
X154839802Y-66890400D01*
X154851532Y-66870830D01*
X154865124Y-66852504D01*
X154880447Y-66835598D01*
X155209252Y-66506793D01*
X155226158Y-66491470D01*
X155244484Y-66477878D01*
X155264054Y-66466148D01*
X155284680Y-66456393D01*
X155306163Y-66448706D01*
X155328296Y-66443162D01*
X155350865Y-66439815D01*
X155373654Y-66438695D01*
X155396443Y-66439815D01*
G37*
G36*
X156209616Y-67252988D02*
G01*
X156232185Y-67256335D01*
X156254318Y-67261879D01*
X156275801Y-67269566D01*
X156296427Y-67279321D01*
X156315997Y-67291051D01*
X156334323Y-67304643D01*
X156351229Y-67319966D01*
X156680034Y-67648771D01*
X156695357Y-67665677D01*
X156708949Y-67684003D01*
X156720679Y-67703573D01*
X156730434Y-67724199D01*
X156738121Y-67745682D01*
X156743665Y-67767815D01*
X156747012Y-67790384D01*
X156748132Y-67813173D01*
X156747012Y-67835962D01*
X156743665Y-67858531D01*
X156738121Y-67880664D01*
X156730434Y-67902147D01*
X156720679Y-67922773D01*
X156708949Y-67942343D01*
X156695357Y-67960669D01*
X156680034Y-67977575D01*
X156351229Y-68306380D01*
X156334323Y-68321703D01*
X156315997Y-68335295D01*
X156296427Y-68347025D01*
X156275801Y-68356780D01*
X156254318Y-68364467D01*
X156232185Y-68370011D01*
X156209616Y-68373358D01*
X156186827Y-68374478D01*
X156164038Y-68373358D01*
X156141469Y-68370011D01*
X156119336Y-68364467D01*
X156097853Y-68356780D01*
X156077227Y-68347025D01*
X156057657Y-68335295D01*
X156039331Y-68321703D01*
X156022425Y-68306380D01*
X155693620Y-67977575D01*
X155678297Y-67960669D01*
X155664705Y-67942343D01*
X155652975Y-67922773D01*
X155643220Y-67902147D01*
X155635533Y-67880664D01*
X155629989Y-67858531D01*
X155626642Y-67835962D01*
X155625522Y-67813173D01*
X155626642Y-67790384D01*
X155629989Y-67767815D01*
X155635533Y-67745682D01*
X155643220Y-67724199D01*
X155652975Y-67703573D01*
X155664705Y-67684003D01*
X155678297Y-67665677D01*
X155693620Y-67648771D01*
X156022425Y-67319966D01*
X156039331Y-67304643D01*
X156057657Y-67291051D01*
X156077227Y-67279321D01*
X156097853Y-67269566D01*
X156119336Y-67261879D01*
X156141469Y-67256335D01*
X156164038Y-67252988D01*
X156186827Y-67251868D01*
X156209616Y-67252988D01*
G37*
G36*
X157022789Y-68066161D02*
G01*
X157045358Y-68069508D01*
X157067491Y-68075052D01*
X157088974Y-68082739D01*
X157109600Y-68092494D01*
X157129170Y-68104224D01*
X157147496Y-68117816D01*
X157164402Y-68133139D01*
X157493207Y-68461944D01*
X157508530Y-68478850D01*
X157522122Y-68497176D01*
X157533852Y-68516746D01*
X157543607Y-68537372D01*
X157551294Y-68558855D01*
X157556838Y-68580988D01*
X157560185Y-68603557D01*
X157561305Y-68626346D01*
X157560185Y-68649135D01*
X157556838Y-68671704D01*
X157551294Y-68693837D01*
X157543607Y-68715320D01*
X157533852Y-68735946D01*
X157522122Y-68755516D01*
X157508530Y-68773842D01*
X157493207Y-68790748D01*
X157164402Y-69119553D01*
X157147496Y-69134876D01*
X157129170Y-69148468D01*
X157109600Y-69160198D01*
X157088974Y-69169953D01*
X157067491Y-69177640D01*
X157045358Y-69183184D01*
X157022789Y-69186531D01*
X157000000Y-69187651D01*
X156977211Y-69186531D01*
X156954642Y-69183184D01*
X156932509Y-69177640D01*
X156911026Y-69169953D01*
X156890400Y-69160198D01*
X156870830Y-69148468D01*
X156852504Y-69134876D01*
X156835598Y-69119553D01*
X156506793Y-68790748D01*
X156491470Y-68773842D01*
X156477878Y-68755516D01*
X156466148Y-68735946D01*
X156456393Y-68715320D01*
X156448706Y-68693837D01*
X156443162Y-68671704D01*
X156439815Y-68649135D01*
X156438695Y-68626346D01*
X156439815Y-68603557D01*
X156443162Y-68580988D01*
X156448706Y-68558855D01*
X156456393Y-68537372D01*
X156466148Y-68516746D01*
X156477878Y-68497176D01*
X156491470Y-68478850D01*
X156506793Y-68461944D01*
X156835598Y-68133139D01*
X156852504Y-68117816D01*
X156870830Y-68104224D01*
X156890400Y-68092494D01*
X156911026Y-68082739D01*
X156932509Y-68075052D01*
X156954642Y-68069508D01*
X156977211Y-68066161D01*
X157000000Y-68065041D01*
X157022789Y-68066161D01*
G37*
D13*
X159300000Y-60570000D03*
X159300000Y-59630000D03*
X154900000Y-59630000D03*
X154900000Y-60570000D03*
D14*
X154600000Y-57750000D03*
X159400000Y-57750000D03*
X160200000Y-57750000D03*
X153800000Y-57750000D03*
X160200000Y-57750000D03*
X159400000Y-57750000D03*
D15*
X158750000Y-57750000D03*
X158250000Y-57750000D03*
X157750000Y-57750000D03*
X157250000Y-57750000D03*
X156750000Y-57750000D03*
X156250000Y-57750000D03*
X155750000Y-57750000D03*
X155250000Y-57750000D03*
D14*
X154600000Y-57750000D03*
X153800000Y-57750000D03*
D12*
G36*
X253371231Y-123689429D02*
G01*
X253689429Y-123371231D01*
X254113693Y-123795495D01*
X253795495Y-124113693D01*
X253371231Y-123689429D01*
G37*
G36*
X251886307Y-122204505D02*
G01*
X252204505Y-121886307D01*
X252628769Y-122310571D01*
X252310571Y-122628769D01*
X251886307Y-122204505D01*
G37*
G36*
X254689429Y-117628769D02*
G01*
X254371231Y-117310571D01*
X254795495Y-116886307D01*
X255113693Y-117204505D01*
X254689429Y-117628769D01*
G37*
G36*
X253204505Y-119113693D02*
G01*
X252886307Y-118795495D01*
X253310571Y-118371231D01*
X253628769Y-118689429D01*
X253204505Y-119113693D01*
G37*
G36*
X254689429Y-100628769D02*
G01*
X254371231Y-100310571D01*
X254795495Y-99886307D01*
X255113693Y-100204505D01*
X254689429Y-100628769D01*
G37*
G36*
X253204505Y-102113693D02*
G01*
X252886307Y-101795495D01*
X253310571Y-101371231D01*
X253628769Y-101689429D01*
X253204505Y-102113693D01*
G37*
G36*
X254689429Y-87628769D02*
G01*
X254371231Y-87310571D01*
X254795495Y-86886307D01*
X255113693Y-87204505D01*
X254689429Y-87628769D01*
G37*
G36*
X253204505Y-89113693D02*
G01*
X252886307Y-88795495D01*
X253310571Y-88371231D01*
X253628769Y-88689429D01*
X253204505Y-89113693D01*
G37*
G36*
X254689429Y-70628769D02*
G01*
X254371231Y-70310571D01*
X254795495Y-69886307D01*
X255113693Y-70204505D01*
X254689429Y-70628769D01*
G37*
G36*
X253204505Y-72113693D02*
G01*
X252886307Y-71795495D01*
X253310571Y-71371231D01*
X253628769Y-71689429D01*
X253204505Y-72113693D01*
G37*
G36*
X241310571Y-123371231D02*
G01*
X241628769Y-123689429D01*
X241204505Y-124113693D01*
X240886307Y-123795495D01*
X241310571Y-123371231D01*
G37*
G36*
X242795495Y-121886307D02*
G01*
X243113693Y-122204505D01*
X242689429Y-122628769D01*
X242371231Y-122310571D01*
X242795495Y-121886307D01*
G37*
G36*
X241628769Y-117310571D02*
G01*
X241310571Y-117628769D01*
X240886307Y-117204505D01*
X241204505Y-116886307D01*
X241628769Y-117310571D01*
G37*
G36*
X243113693Y-118795495D02*
G01*
X242795495Y-119113693D01*
X242371231Y-118689429D01*
X242689429Y-118371231D01*
X243113693Y-118795495D01*
G37*
G36*
X241628769Y-100310571D02*
G01*
X241310571Y-100628769D01*
X240886307Y-100204505D01*
X241204505Y-99886307D01*
X241628769Y-100310571D01*
G37*
G36*
X243113693Y-101795495D02*
G01*
X242795495Y-102113693D01*
X242371231Y-101689429D01*
X242689429Y-101371231D01*
X243113693Y-101795495D01*
G37*
G36*
X241628769Y-87310571D02*
G01*
X241310571Y-87628769D01*
X240886307Y-87204505D01*
X241204505Y-86886307D01*
X241628769Y-87310571D01*
G37*
G36*
X243113693Y-88795495D02*
G01*
X242795495Y-89113693D01*
X242371231Y-88689429D01*
X242689429Y-88371231D01*
X243113693Y-88795495D01*
G37*
G36*
X241628769Y-70310571D02*
G01*
X241310571Y-70628769D01*
X240886307Y-70204505D01*
X241204505Y-69886307D01*
X241628769Y-70310571D01*
G37*
G36*
X243113693Y-71795495D02*
G01*
X242795495Y-72113693D01*
X242371231Y-71689429D01*
X242689429Y-71371231D01*
X243113693Y-71795495D01*
G37*
G36*
X223310571Y-123371231D02*
G01*
X223628769Y-123689429D01*
X223204505Y-124113693D01*
X222886307Y-123795495D01*
X223310571Y-123371231D01*
G37*
G36*
X224795495Y-121886307D02*
G01*
X225113693Y-122204505D01*
X224689429Y-122628769D01*
X224371231Y-122310571D01*
X224795495Y-121886307D01*
G37*
G36*
X223628769Y-117310571D02*
G01*
X223310571Y-117628769D01*
X222886307Y-117204505D01*
X223204505Y-116886307D01*
X223628769Y-117310571D01*
G37*
G36*
X225113693Y-118795495D02*
G01*
X224795495Y-119113693D01*
X224371231Y-118689429D01*
X224689429Y-118371231D01*
X225113693Y-118795495D01*
G37*
G36*
X223628769Y-100310571D02*
G01*
X223310571Y-100628769D01*
X222886307Y-100204505D01*
X223204505Y-99886307D01*
X223628769Y-100310571D01*
G37*
G36*
X225113693Y-101795495D02*
G01*
X224795495Y-102113693D01*
X224371231Y-101689429D01*
X224689429Y-101371231D01*
X225113693Y-101795495D01*
G37*
G36*
X223628769Y-87310571D02*
G01*
X223310571Y-87628769D01*
X222886307Y-87204505D01*
X223204505Y-86886307D01*
X223628769Y-87310571D01*
G37*
G36*
X225113693Y-88795495D02*
G01*
X224795495Y-89113693D01*
X224371231Y-88689429D01*
X224689429Y-88371231D01*
X225113693Y-88795495D01*
G37*
G36*
X223628769Y-70310571D02*
G01*
X223310571Y-70628769D01*
X222886307Y-70204505D01*
X223204505Y-69886307D01*
X223628769Y-70310571D01*
G37*
G36*
X225113693Y-71795495D02*
G01*
X224795495Y-72113693D01*
X224371231Y-71689429D01*
X224689429Y-71371231D01*
X225113693Y-71795495D01*
G37*
G36*
X205310571Y-123371231D02*
G01*
X205628769Y-123689429D01*
X205204505Y-124113693D01*
X204886307Y-123795495D01*
X205310571Y-123371231D01*
G37*
G36*
X206795495Y-121886307D02*
G01*
X207113693Y-122204505D01*
X206689429Y-122628769D01*
X206371231Y-122310571D01*
X206795495Y-121886307D01*
G37*
G36*
X205628769Y-117310571D02*
G01*
X205310571Y-117628769D01*
X204886307Y-117204505D01*
X205204505Y-116886307D01*
X205628769Y-117310571D01*
G37*
G36*
X207113693Y-118795495D02*
G01*
X206795495Y-119113693D01*
X206371231Y-118689429D01*
X206689429Y-118371231D01*
X207113693Y-118795495D01*
G37*
G36*
X205628769Y-100310571D02*
G01*
X205310571Y-100628769D01*
X204886307Y-100204505D01*
X205204505Y-99886307D01*
X205628769Y-100310571D01*
G37*
G36*
X207113693Y-101795495D02*
G01*
X206795495Y-102113693D01*
X206371231Y-101689429D01*
X206689429Y-101371231D01*
X207113693Y-101795495D01*
G37*
G36*
X205628769Y-87310571D02*
G01*
X205310571Y-87628769D01*
X204886307Y-87204505D01*
X205204505Y-86886307D01*
X205628769Y-87310571D01*
G37*
G36*
X207113693Y-88795495D02*
G01*
X206795495Y-89113693D01*
X206371231Y-88689429D01*
X206689429Y-88371231D01*
X207113693Y-88795495D01*
G37*
G36*
X205628769Y-70310571D02*
G01*
X205310571Y-70628769D01*
X204886307Y-70204505D01*
X205204505Y-69886307D01*
X205628769Y-70310571D01*
G37*
G36*
X207113693Y-71795495D02*
G01*
X206795495Y-72113693D01*
X206371231Y-71689429D01*
X206689429Y-71371231D01*
X207113693Y-71795495D01*
G37*
G36*
X187310571Y-123371231D02*
G01*
X187628769Y-123689429D01*
X187204505Y-124113693D01*
X186886307Y-123795495D01*
X187310571Y-123371231D01*
G37*
G36*
X188795495Y-121886307D02*
G01*
X189113693Y-122204505D01*
X188689429Y-122628769D01*
X188371231Y-122310571D01*
X188795495Y-121886307D01*
G37*
G36*
X187628769Y-117310571D02*
G01*
X187310571Y-117628769D01*
X186886307Y-117204505D01*
X187204505Y-116886307D01*
X187628769Y-117310571D01*
G37*
G36*
X189113693Y-118795495D02*
G01*
X188795495Y-119113693D01*
X188371231Y-118689429D01*
X188689429Y-118371231D01*
X189113693Y-118795495D01*
G37*
G36*
X187628769Y-100310571D02*
G01*
X187310571Y-100628769D01*
X186886307Y-100204505D01*
X187204505Y-99886307D01*
X187628769Y-100310571D01*
G37*
G36*
X189113693Y-101795495D02*
G01*
X188795495Y-102113693D01*
X188371231Y-101689429D01*
X188689429Y-101371231D01*
X189113693Y-101795495D01*
G37*
G36*
X187628769Y-87310571D02*
G01*
X187310571Y-87628769D01*
X186886307Y-87204505D01*
X187204505Y-86886307D01*
X187628769Y-87310571D01*
G37*
G36*
X189113693Y-88795495D02*
G01*
X188795495Y-89113693D01*
X188371231Y-88689429D01*
X188689429Y-88371231D01*
X189113693Y-88795495D01*
G37*
G36*
X187628769Y-70310571D02*
G01*
X187310571Y-70628769D01*
X186886307Y-70204505D01*
X187204505Y-69886307D01*
X187628769Y-70310571D01*
G37*
G36*
X189113693Y-71795495D02*
G01*
X188795495Y-72113693D01*
X188371231Y-71689429D01*
X188689429Y-71371231D01*
X189113693Y-71795495D01*
G37*
G36*
X169310571Y-123371231D02*
G01*
X169628769Y-123689429D01*
X169204505Y-124113693D01*
X168886307Y-123795495D01*
X169310571Y-123371231D01*
G37*
G36*
X170795495Y-121886307D02*
G01*
X171113693Y-122204505D01*
X170689429Y-122628769D01*
X170371231Y-122310571D01*
X170795495Y-121886307D01*
G37*
G36*
X169628769Y-117310571D02*
G01*
X169310571Y-117628769D01*
X168886307Y-117204505D01*
X169204505Y-116886307D01*
X169628769Y-117310571D01*
G37*
G36*
X171113693Y-118795495D02*
G01*
X170795495Y-119113693D01*
X170371231Y-118689429D01*
X170689429Y-118371231D01*
X171113693Y-118795495D01*
G37*
G36*
X169628769Y-100310571D02*
G01*
X169310571Y-100628769D01*
X168886307Y-100204505D01*
X169204505Y-99886307D01*
X169628769Y-100310571D01*
G37*
G36*
X171113693Y-101795495D02*
G01*
X170795495Y-102113693D01*
X170371231Y-101689429D01*
X170689429Y-101371231D01*
X171113693Y-101795495D01*
G37*
G36*
X169628769Y-87310571D02*
G01*
X169310571Y-87628769D01*
X168886307Y-87204505D01*
X169204505Y-86886307D01*
X169628769Y-87310571D01*
G37*
G36*
X171113693Y-88795495D02*
G01*
X170795495Y-89113693D01*
X170371231Y-88689429D01*
X170689429Y-88371231D01*
X171113693Y-88795495D01*
G37*
G36*
X169628769Y-70310571D02*
G01*
X169310571Y-70628769D01*
X168886307Y-70204505D01*
X169204505Y-69886307D01*
X169628769Y-70310571D01*
G37*
G36*
X171113693Y-71795495D02*
G01*
X170795495Y-72113693D01*
X170371231Y-71689429D01*
X170689429Y-71371231D01*
X171113693Y-71795495D01*
G37*
G36*
X151310571Y-123371231D02*
G01*
X151628769Y-123689429D01*
X151204505Y-124113693D01*
X150886307Y-123795495D01*
X151310571Y-123371231D01*
G37*
G36*
X152795495Y-121886307D02*
G01*
X153113693Y-122204505D01*
X152689429Y-122628769D01*
X152371231Y-122310571D01*
X152795495Y-121886307D01*
G37*
G36*
X151628769Y-117310571D02*
G01*
X151310571Y-117628769D01*
X150886307Y-117204505D01*
X151204505Y-116886307D01*
X151628769Y-117310571D01*
G37*
G36*
X153113693Y-118795495D02*
G01*
X152795495Y-119113693D01*
X152371231Y-118689429D01*
X152689429Y-118371231D01*
X153113693Y-118795495D01*
G37*
G36*
X151628769Y-100310571D02*
G01*
X151310571Y-100628769D01*
X150886307Y-100204505D01*
X151204505Y-99886307D01*
X151628769Y-100310571D01*
G37*
G36*
X153113693Y-101795495D02*
G01*
X152795495Y-102113693D01*
X152371231Y-101689429D01*
X152689429Y-101371231D01*
X153113693Y-101795495D01*
G37*
G36*
X151628769Y-87310571D02*
G01*
X151310571Y-87628769D01*
X150886307Y-87204505D01*
X151204505Y-86886307D01*
X151628769Y-87310571D01*
G37*
G36*
X153113693Y-88795495D02*
G01*
X152795495Y-89113693D01*
X152371231Y-88689429D01*
X152689429Y-88371231D01*
X153113693Y-88795495D01*
G37*
G36*
X151628769Y-70310571D02*
G01*
X151310571Y-70628769D01*
X150886307Y-70204505D01*
X151204505Y-69886307D01*
X151628769Y-70310571D01*
G37*
G36*
X153113693Y-71795495D02*
G01*
X152795495Y-72113693D01*
X152371231Y-71689429D01*
X152689429Y-71371231D01*
X153113693Y-71795495D01*
G37*
G36*
X133310571Y-123371231D02*
G01*
X133628769Y-123689429D01*
X133204505Y-124113693D01*
X132886307Y-123795495D01*
X133310571Y-123371231D01*
G37*
G36*
X134795495Y-121886307D02*
G01*
X135113693Y-122204505D01*
X134689429Y-122628769D01*
X134371231Y-122310571D01*
X134795495Y-121886307D01*
G37*
G36*
X133628769Y-117310571D02*
G01*
X133310571Y-117628769D01*
X132886307Y-117204505D01*
X133204505Y-116886307D01*
X133628769Y-117310571D01*
G37*
G36*
X135113693Y-118795495D02*
G01*
X134795495Y-119113693D01*
X134371231Y-118689429D01*
X134689429Y-118371231D01*
X135113693Y-118795495D01*
G37*
G36*
X133628769Y-100310571D02*
G01*
X133310571Y-100628769D01*
X132886307Y-100204505D01*
X133204505Y-99886307D01*
X133628769Y-100310571D01*
G37*
G36*
X135113693Y-101795495D02*
G01*
X134795495Y-102113693D01*
X134371231Y-101689429D01*
X134689429Y-101371231D01*
X135113693Y-101795495D01*
G37*
G36*
X133628769Y-87310571D02*
G01*
X133310571Y-87628769D01*
X132886307Y-87204505D01*
X133204505Y-86886307D01*
X133628769Y-87310571D01*
G37*
G36*
X135113693Y-88795495D02*
G01*
X134795495Y-89113693D01*
X134371231Y-88689429D01*
X134689429Y-88371231D01*
X135113693Y-88795495D01*
G37*
G36*
X133628769Y-70310571D02*
G01*
X133310571Y-70628769D01*
X132886307Y-70204505D01*
X133204505Y-69886307D01*
X133628769Y-70310571D01*
G37*
G36*
X135113693Y-71795495D02*
G01*
X134795495Y-72113693D01*
X134371231Y-71689429D01*
X134689429Y-71371231D01*
X135113693Y-71795495D01*
G37*
G36*
X115310571Y-123371231D02*
G01*
X115628769Y-123689429D01*
X115204505Y-124113693D01*
X114886307Y-123795495D01*
X115310571Y-123371231D01*
G37*
G36*
X116795495Y-121886307D02*
G01*
X117113693Y-122204505D01*
X116689429Y-122628769D01*
X116371231Y-122310571D01*
X116795495Y-121886307D01*
G37*
G36*
X115628769Y-117310571D02*
G01*
X115310571Y-117628769D01*
X114886307Y-117204505D01*
X115204505Y-116886307D01*
X115628769Y-117310571D01*
G37*
G36*
X117113693Y-118795495D02*
G01*
X116795495Y-119113693D01*
X116371231Y-118689429D01*
X116689429Y-118371231D01*
X117113693Y-118795495D01*
G37*
G36*
X115628769Y-100310571D02*
G01*
X115310571Y-100628769D01*
X114886307Y-100204505D01*
X115204505Y-99886307D01*
X115628769Y-100310571D01*
G37*
G36*
X117113693Y-101795495D02*
G01*
X116795495Y-102113693D01*
X116371231Y-101689429D01*
X116689429Y-101371231D01*
X117113693Y-101795495D01*
G37*
G36*
X115628769Y-87310571D02*
G01*
X115310571Y-87628769D01*
X114886307Y-87204505D01*
X115204505Y-86886307D01*
X115628769Y-87310571D01*
G37*
G36*
X117113693Y-88795495D02*
G01*
X116795495Y-89113693D01*
X116371231Y-88689429D01*
X116689429Y-88371231D01*
X117113693Y-88795495D01*
G37*
G36*
X115628769Y-70310571D02*
G01*
X115310571Y-70628769D01*
X114886307Y-70204505D01*
X115204505Y-69886307D01*
X115628769Y-70310571D01*
G37*
G36*
X117113693Y-71795495D02*
G01*
X116795495Y-72113693D01*
X116371231Y-71689429D01*
X116689429Y-71371231D01*
X117113693Y-71795495D01*
G37*
G36*
X97310571Y-123371231D02*
G01*
X97628769Y-123689429D01*
X97204505Y-124113693D01*
X96886307Y-123795495D01*
X97310571Y-123371231D01*
G37*
G36*
X98795495Y-121886307D02*
G01*
X99113693Y-122204505D01*
X98689429Y-122628769D01*
X98371231Y-122310571D01*
X98795495Y-121886307D01*
G37*
G36*
X97628769Y-117310571D02*
G01*
X97310571Y-117628769D01*
X96886307Y-117204505D01*
X97204505Y-116886307D01*
X97628769Y-117310571D01*
G37*
G36*
X99113693Y-118795495D02*
G01*
X98795495Y-119113693D01*
X98371231Y-118689429D01*
X98689429Y-118371231D01*
X99113693Y-118795495D01*
G37*
G36*
X97628769Y-100310571D02*
G01*
X97310571Y-100628769D01*
X96886307Y-100204505D01*
X97204505Y-99886307D01*
X97628769Y-100310571D01*
G37*
G36*
X99113693Y-101795495D02*
G01*
X98795495Y-102113693D01*
X98371231Y-101689429D01*
X98689429Y-101371231D01*
X99113693Y-101795495D01*
G37*
G36*
X97628769Y-87310571D02*
G01*
X97310571Y-87628769D01*
X96886307Y-87204505D01*
X97204505Y-86886307D01*
X97628769Y-87310571D01*
G37*
G36*
X99113693Y-88795495D02*
G01*
X98795495Y-89113693D01*
X98371231Y-88689429D01*
X98689429Y-88371231D01*
X99113693Y-88795495D01*
G37*
G36*
X97628769Y-70310571D02*
G01*
X97310571Y-70628769D01*
X96886307Y-70204505D01*
X97204505Y-69886307D01*
X97628769Y-70310571D01*
G37*
G36*
X99113693Y-71795495D02*
G01*
X98795495Y-72113693D01*
X98371231Y-71689429D01*
X98689429Y-71371231D01*
X99113693Y-71795495D01*
G37*
G36*
X79310571Y-123371231D02*
G01*
X79628769Y-123689429D01*
X79204505Y-124113693D01*
X78886307Y-123795495D01*
X79310571Y-123371231D01*
G37*
G36*
X80795495Y-121886307D02*
G01*
X81113693Y-122204505D01*
X80689429Y-122628769D01*
X80371231Y-122310571D01*
X80795495Y-121886307D01*
G37*
G36*
X79628769Y-117310571D02*
G01*
X79310571Y-117628769D01*
X78886307Y-117204505D01*
X79204505Y-116886307D01*
X79628769Y-117310571D01*
G37*
G36*
X81113693Y-118795495D02*
G01*
X80795495Y-119113693D01*
X80371231Y-118689429D01*
X80689429Y-118371231D01*
X81113693Y-118795495D01*
G37*
G36*
X79628769Y-100310571D02*
G01*
X79310571Y-100628769D01*
X78886307Y-100204505D01*
X79204505Y-99886307D01*
X79628769Y-100310571D01*
G37*
G36*
X81113693Y-101795495D02*
G01*
X80795495Y-102113693D01*
X80371231Y-101689429D01*
X80689429Y-101371231D01*
X81113693Y-101795495D01*
G37*
G36*
X79628769Y-87310571D02*
G01*
X79310571Y-87628769D01*
X78886307Y-87204505D01*
X79204505Y-86886307D01*
X79628769Y-87310571D01*
G37*
G36*
X81113693Y-88795495D02*
G01*
X80795495Y-89113693D01*
X80371231Y-88689429D01*
X80689429Y-88371231D01*
X81113693Y-88795495D01*
G37*
G36*
X79628769Y-70310571D02*
G01*
X79310571Y-70628769D01*
X78886307Y-70204505D01*
X79204505Y-69886307D01*
X79628769Y-70310571D01*
G37*
G36*
X81113693Y-71795495D02*
G01*
X80795495Y-72113693D01*
X80371231Y-71689429D01*
X80689429Y-71371231D01*
X81113693Y-71795495D01*
G37*
G36*
X61310571Y-123371231D02*
G01*
X61628769Y-123689429D01*
X61204505Y-124113693D01*
X60886307Y-123795495D01*
X61310571Y-123371231D01*
G37*
G36*
X62795495Y-121886307D02*
G01*
X63113693Y-122204505D01*
X62689429Y-122628769D01*
X62371231Y-122310571D01*
X62795495Y-121886307D01*
G37*
G36*
X61628769Y-117310571D02*
G01*
X61310571Y-117628769D01*
X60886307Y-117204505D01*
X61204505Y-116886307D01*
X61628769Y-117310571D01*
G37*
G36*
X63113693Y-118795495D02*
G01*
X62795495Y-119113693D01*
X62371231Y-118689429D01*
X62689429Y-118371231D01*
X63113693Y-118795495D01*
G37*
G36*
X61628769Y-100310571D02*
G01*
X61310571Y-100628769D01*
X60886307Y-100204505D01*
X61204505Y-99886307D01*
X61628769Y-100310571D01*
G37*
G36*
X63113693Y-101795495D02*
G01*
X62795495Y-102113693D01*
X62371231Y-101689429D01*
X62689429Y-101371231D01*
X63113693Y-101795495D01*
G37*
G36*
X61628769Y-87310571D02*
G01*
X61310571Y-87628769D01*
X60886307Y-87204505D01*
X61204505Y-86886307D01*
X61628769Y-87310571D01*
G37*
G36*
X63113693Y-88795495D02*
G01*
X62795495Y-89113693D01*
X62371231Y-88689429D01*
X62689429Y-88371231D01*
X63113693Y-88795495D01*
G37*
G36*
X61628769Y-70310571D02*
G01*
X61310571Y-70628769D01*
X60886307Y-70204505D01*
X61204505Y-69886307D01*
X61628769Y-70310571D01*
G37*
G36*
X63113693Y-71795495D02*
G01*
X62795495Y-72113693D01*
X62371231Y-71689429D01*
X62689429Y-71371231D01*
X63113693Y-71795495D01*
G37*
G36*
X154982305Y-71243431D02*
G01*
X155406569Y-71667695D01*
X155053015Y-72021249D01*
X154628751Y-71596985D01*
X154982305Y-71243431D01*
G37*
G36*
X155646985Y-70578751D02*
G01*
X156071249Y-71003015D01*
X155717695Y-71356569D01*
X155293431Y-70932305D01*
X155646985Y-70578751D01*
G37*
D16*
X155380000Y-62900000D03*
X156320000Y-62900000D03*
D12*
G36*
X154146985Y-69078751D02*
G01*
X154571249Y-69503015D01*
X154217695Y-69856569D01*
X153793431Y-69432305D01*
X154146985Y-69078751D01*
G37*
G36*
X153482305Y-69743431D02*
G01*
X153906569Y-70167695D01*
X153553015Y-70521249D01*
X153128751Y-70096985D01*
X153482305Y-69743431D01*
G37*
D16*
X153620000Y-64050000D03*
X152680000Y-64050000D03*
X152580000Y-59650000D03*
X153520000Y-59650000D03*
D12*
G36*
X154232305Y-70493431D02*
G01*
X154656569Y-70917695D01*
X154303015Y-71271249D01*
X153878751Y-70846985D01*
X154232305Y-70493431D01*
G37*
G36*
X154896985Y-69828751D02*
G01*
X155321249Y-70253015D01*
X154967695Y-70606569D01*
X154543431Y-70182305D01*
X154896985Y-69828751D01*
G37*
M02*
