M48
; DRILL file {KiCad 5.1.5+dfsg1-2build2} date Sun 19 Dec 2021 02:20:26 AM CET
; FORMAT={-:-/ absolute / metric / decimal}
; #@! TF.CreationDate,2021-12-19T02:20:26+01:00
; #@! TF.GenerationSoftware,Kicad,Pcbnew,5.1.5+dfsg1-2build2
; #@! TF.FileFunction,Plated,1,2,PTH
FMAT,2
METRIC
T1C0.300
T2C0.400
T3C0.600
T4C1.200
T5C4.400
%
G90
G05
T1
X152.7Y-64.7
X152.9Y-69.4
X156.3Y-71.6
X156.55Y-62.65
X156.8Y-88.742
X157.4Y-101.742
X158.0Y-118.742
X158.6Y-71.2
X158.742Y-122.258
X159.25Y-71.75
X160.0Y-71.2
X160.75Y-71.75
X161.3Y-63.6
X211.0Y-63.0
T2
X154.25Y-71.25
X154.413Y-64.606
X154.9Y-62.8
X155.039Y-63.827
X155.6Y-67.0
X157.0Y-65.6
X157.0Y-68.4
X157.1Y-61.01
X157.3Y-63.2
X158.4Y-67.0
X158.789Y-63.365
X159.488Y-64.186
X162.1Y-67.8
T4
X179.0Y-129.8
X184.0Y-131.9
X125.0Y-95.8
X130.0Y-97.9
X161.0Y-112.8
X166.0Y-114.9
X215.0Y-112.8
X220.0Y-114.9
X197.0Y-129.8
X202.0Y-131.9
X89.0Y-112.8
X94.0Y-114.9
X89.0Y-61.8
X94.0Y-63.9
X251.0Y-129.8
X256.0Y-131.9
X143.0Y-95.8
X148.0Y-97.9
X53.0Y-61.8
X58.0Y-63.9
X215.0Y-61.8
X220.0Y-63.9
X179.0Y-61.8
X184.0Y-63.9
X233.0Y-112.8
X238.0Y-114.9
X197.0Y-78.8
X202.0Y-80.9
X215.0Y-95.8
X220.0Y-97.9
X125.0Y-112.8
X130.0Y-114.9
X197.0Y-112.8
X202.0Y-114.9
X197.0Y-95.8
X202.0Y-97.9
X233.0Y-95.8
X238.0Y-97.9
X143.0Y-112.8
X148.0Y-114.9
X107.0Y-78.8
X112.0Y-80.9
X89.0Y-78.8
X94.0Y-80.9
X233.0Y-61.8
X238.0Y-63.9
X125.0Y-61.8
X130.0Y-63.9
X107.0Y-129.8
X112.0Y-131.9
X107.0Y-95.8
X112.0Y-97.9
X143.0Y-78.8
X148.0Y-80.9
X197.0Y-61.8
X202.0Y-63.9
X143.0Y-129.8
X148.0Y-131.9
X179.0Y-95.8
X184.0Y-97.9
X251.0Y-61.8
X256.0Y-63.9
X179.0Y-78.8
X184.0Y-80.9
X179.0Y-112.8
X184.0Y-114.9
X215.0Y-129.8
X220.0Y-131.9
X161.0Y-61.8
X166.0Y-63.9
X233.0Y-78.8
X238.0Y-80.9
X251.0Y-112.8
X256.0Y-114.9
X125.0Y-78.8
X130.0Y-80.9
X71.0Y-129.8
X76.0Y-131.9
X161.0Y-78.8
X166.0Y-80.9
X53.0Y-78.8
X58.0Y-80.9
X233.0Y-129.8
X238.0Y-131.9
X107.0Y-112.8
X112.0Y-114.9
X53.0Y-112.8
X58.0Y-114.9
X89.0Y-95.8
X94.0Y-97.9
X53.0Y-129.8
X58.0Y-131.9
X125.0Y-129.8
X130.0Y-131.9
X71.0Y-78.8
X76.0Y-80.9
X89.0Y-129.8
X94.0Y-131.9
X71.0Y-112.8
X76.0Y-114.9
X251.0Y-95.8
X256.0Y-97.9
X215.0Y-78.8
X220.0Y-80.9
X107.0Y-61.8
X112.0Y-63.9
X161.0Y-95.8
X166.0Y-97.9
X53.0Y-95.8
X58.0Y-97.9
X143.0Y-61.8
X148.0Y-63.9
X161.0Y-129.8
X166.0Y-131.9
X71.0Y-95.8
X76.0Y-97.9
X251.0Y-78.8
X256.0Y-80.9
X71.0Y-61.8
X76.0Y-63.9
T5
X211.0Y-83.5
X103.0Y-83.5
X247.0Y-66.5
X67.0Y-66.5
T3
X152.68Y-52.355G85X152.68Y-52.955
G05
X152.68Y-56.285G85X152.68Y-57.385
G05
X161.32Y-52.355G85X161.32Y-52.955
G05
X161.32Y-56.285G85X161.32Y-57.385
G05
T0
M30
