M48
; DRILL file {KiCad 5.1.5+dfsg1-2build2} date Wed 19 May 2021 09:40:21 PM CEST
; FORMAT={-:-/ absolute / inch / decimal}
; #@! TF.CreationDate,2021-05-19T21:40:21+02:00
; #@! TF.GenerationSoftware,Kicad,Pcbnew,5.1.5+dfsg1-2build2
; #@! TF.FileFunction,NonPlated,1,2,NPTH
FMAT,2
INCH
T1C0.0256
T2C0.0388
T3C0.0389
T4C0.0728
T5C0.1339
%
G90
G05
T1
X6.0673Y-2.2167
X6.2949Y-2.2167
T2
X6.6453Y-2.0539
X6.6453Y-2.1339
T3
X6.4453Y-2.0939
T4
X9.1535Y-4.9606
X9.5866Y-4.9606
X8.4449Y-3.622
X8.878Y-3.622
X7.7362Y-3.622
X8.1693Y-3.622
X4.9016Y-4.9606
X5.3346Y-4.9606
X2.0669Y-4.2913
X2.5Y-4.2913
X4.9016Y-4.2913
X5.3346Y-4.2913
X2.0669Y-2.2835
X2.5Y-2.2835
X8.4449Y-2.9528
X8.878Y-2.9528
X2.0669Y-3.622
X2.5Y-3.622
X4.9016Y-3.622
X5.3346Y-3.622
X4.1929Y-2.2835
X4.626Y-2.2835
X9.1535Y-2.9528
X9.5866Y-2.9528
X7.0276Y-4.9606
X7.4606Y-4.9606
X6.752Y-2.2835
X9.1535Y-2.2835
X9.5866Y-2.2835
X3.4843Y-2.2835
X3.9173Y-2.2835
X9.8622Y-4.2913
X10.2953Y-4.2913
X4.1929Y-4.9606
X4.626Y-4.9606
X8.4449Y-2.2835
X8.878Y-2.2835
X2.7756Y-2.9528
X3.2087Y-2.9528
X4.9016Y-2.2835
X5.3346Y-2.2835
X9.8622Y-2.2835
X10.2953Y-2.2835
X4.1929Y-4.2913
X4.626Y-4.2913
X5.6102Y-3.622
X6.0433Y-3.622
X5.6102Y-2.2835
X7.7362Y-4.2913
X8.1693Y-4.2913
X2.7756Y-4.2913
X3.2087Y-4.2913
X7.7362Y-2.9528
X8.1693Y-2.9528
X7.7362Y-4.9606
X8.1693Y-4.9606
X2.7756Y-2.2835
X3.2087Y-2.2835
X2.0669Y-2.9528
X2.5Y-2.9528
X7.0276Y-4.2913
X7.4606Y-4.2913
X5.6102Y-4.9606
X6.0433Y-4.9606
X9.1535Y-4.2913
X9.5866Y-4.2913
X7.0276Y-3.622
X7.4606Y-3.622
X4.1929Y-2.9528
X4.626Y-2.9528
X7.0276Y-2.2835
X7.4606Y-2.2835
X7.0276Y-2.9528
X7.4606Y-2.9528
X6.3189Y-4.9606
X6.752Y-4.9606
X4.9016Y-2.9528
X5.3346Y-2.9528
X3.4843Y-3.622
X3.9173Y-3.622
X3.4843Y-4.2913
X3.9173Y-4.2913
X4.1929Y-3.622
X4.626Y-3.622
X2.7756Y-3.622
X3.2087Y-3.622
X6.3189Y-4.2913
X6.752Y-4.2913
X3.4843Y-2.9528
X3.9173Y-2.9528
X7.7362Y-2.2835
X8.1693Y-2.2835
X6.3189Y-3.622
X6.752Y-3.622
X5.6102Y-2.9528
X6.0433Y-2.9528
X9.8622Y-4.9606
X10.2953Y-4.9606
X2.0669Y-4.9606
X2.5Y-4.9606
X8.4449Y-4.9606
X8.878Y-4.9606
X9.8622Y-2.9528
X10.2953Y-2.9528
X2.7756Y-4.9606
X3.2087Y-4.9606
X6.3189Y-2.9528
X6.752Y-2.9528
X9.8622Y-3.622
X10.2953Y-3.622
X5.6102Y-4.2913
X6.0433Y-4.2913
X8.4449Y-4.2913
X8.878Y-4.2913
X3.4843Y-4.9606
X3.9173Y-4.9606
X9.1535Y-3.622
X9.5866Y-3.622
T5
X4.4094Y-3.622
X2.9921Y-3.622
X6.5354Y-4.2913
X3.7008Y-2.9528
X7.9528Y-2.2835
X6.5354Y-3.622
X5.8268Y-2.9528
X10.0787Y-4.9606
X2.2835Y-4.9606
X8.6614Y-4.9606
X10.0787Y-2.9528
X2.9921Y-4.9606
X6.5354Y-2.9528
X10.0787Y-3.622
X5.8268Y-4.2913
X8.6614Y-4.2913
X3.7008Y-4.9606
X9.3701Y-3.622
X9.3701Y-4.9606
X8.6614Y-3.622
X7.9528Y-3.622
X5.1181Y-4.9606
X2.2835Y-4.2913
X5.1181Y-4.2913
X2.2835Y-2.2835
X8.6614Y-2.9528
X2.2835Y-3.622
X5.1181Y-3.622
X4.4094Y-2.2835
X9.3701Y-2.9528
X7.2441Y-4.9606
X6.5354Y-2.2835
X9.3701Y-2.2835
X3.7008Y-2.2835
X10.0787Y-4.2913
X4.4094Y-4.9606
X8.6614Y-2.2835
X2.9921Y-2.9528
X5.1181Y-2.2835
X10.0787Y-2.2835
X4.4094Y-4.2913
X5.8268Y-3.622
X5.8268Y-2.2835
X7.9528Y-4.2913
X2.9921Y-4.2913
X7.9528Y-2.9528
X7.9528Y-4.9606
X2.9921Y-2.2835
X2.2835Y-2.9528
X7.2441Y-4.2913
X5.8268Y-4.9606
X9.3701Y-4.2913
X7.2441Y-3.622
X4.4094Y-2.9528
X7.2441Y-2.2835
X7.2441Y-2.9528
X6.5354Y-4.9606
X5.1181Y-2.9528
X3.7008Y-3.622
X3.7008Y-4.2913
T0
M30
