G04 #@! TF.GenerationSoftware,KiCad,Pcbnew,5.1.5+dfsg1-2build2*
G04 #@! TF.CreationDate,2021-05-19T21:40:19+02:00*
G04 #@! TF.ProjectId,ortholinear-keyboard,6f727468-6f6c-4696-9e65-61722d6b6579,rev?*
G04 #@! TF.SameCoordinates,Original*
G04 #@! TF.FileFunction,Legend,Top*
G04 #@! TF.FilePolarity,Positive*
%FSLAX46Y46*%
G04 Gerber Fmt 4.6, Leading zero omitted, Abs format (unit mm)*
G04 Created by KiCad (PCBNEW 5.1.5+dfsg1-2build2) date 2021-05-19 21:40:19*
%MOMM*%
%LPD*%
G04 APERTURE LIST*
%ADD10C,0.120000*%
G04 APERTURE END LIST*
D10*
X173500000Y-63400000D02*
G75*
G02X171400000Y-65500000I-2100000J0D01*
G01*
X160600000Y-65500000D02*
G75*
G02X158500000Y-63400000I0J2100000D01*
G01*
X158500000Y-52600000D02*
G75*
G02X160600000Y-50500000I2100000J0D01*
G01*
X171400000Y-50500000D02*
G75*
G02X173500000Y-52600000I0J-2100000D01*
G01*
X160600000Y-50500000D02*
X171400000Y-50500000D01*
X173500000Y-52600000D02*
X173500000Y-63400000D01*
X158500000Y-52600000D02*
X158500000Y-63400000D01*
X171400000Y-65500000D02*
X160600000Y-65500000D01*
X155500000Y-63400000D02*
G75*
G02X153400000Y-65500000I-2100000J0D01*
G01*
X142600000Y-65500000D02*
G75*
G02X140500000Y-63400000I0J2100000D01*
G01*
X140500000Y-52600000D02*
G75*
G02X142600000Y-50500000I2100000J0D01*
G01*
X153400000Y-50500000D02*
G75*
G02X155500000Y-52600000I0J-2100000D01*
G01*
X142600000Y-50500000D02*
X153400000Y-50500000D01*
X155500000Y-52600000D02*
X155500000Y-63400000D01*
X140500000Y-52600000D02*
X140500000Y-63400000D01*
X153400000Y-65500000D02*
X142600000Y-65500000D01*
X263500000Y-63400000D02*
G75*
G02X261400000Y-65500000I-2100000J0D01*
G01*
X250600000Y-65500000D02*
G75*
G02X248500000Y-63400000I0J2100000D01*
G01*
X248500000Y-52600000D02*
G75*
G02X250600000Y-50500000I2100000J0D01*
G01*
X261400000Y-50500000D02*
G75*
G02X263500000Y-52600000I0J-2100000D01*
G01*
X250600000Y-50500000D02*
X261400000Y-50500000D01*
X263500000Y-52600000D02*
X263500000Y-63400000D01*
X248500000Y-52600000D02*
X248500000Y-63400000D01*
X261400000Y-65500000D02*
X250600000Y-65500000D01*
X263500000Y-114400000D02*
G75*
G02X261400000Y-116500000I-2100000J0D01*
G01*
X250600000Y-116500000D02*
G75*
G02X248500000Y-114400000I0J2100000D01*
G01*
X248500000Y-103600000D02*
G75*
G02X250600000Y-101500000I2100000J0D01*
G01*
X261400000Y-101500000D02*
G75*
G02X263500000Y-103600000I0J-2100000D01*
G01*
X250600000Y-101500000D02*
X261400000Y-101500000D01*
X263500000Y-103600000D02*
X263500000Y-114400000D01*
X248500000Y-103600000D02*
X248500000Y-114400000D01*
X261400000Y-116500000D02*
X250600000Y-116500000D01*
X263500000Y-131400000D02*
G75*
G02X261400000Y-133500000I-2100000J0D01*
G01*
X250600000Y-133500000D02*
G75*
G02X248500000Y-131400000I0J2100000D01*
G01*
X248500000Y-120600000D02*
G75*
G02X250600000Y-118500000I2100000J0D01*
G01*
X261400000Y-118500000D02*
G75*
G02X263500000Y-120600000I0J-2100000D01*
G01*
X250600000Y-118500000D02*
X261400000Y-118500000D01*
X263500000Y-120600000D02*
X263500000Y-131400000D01*
X248500000Y-120600000D02*
X248500000Y-131400000D01*
X261400000Y-133500000D02*
X250600000Y-133500000D01*
X263500000Y-97400000D02*
G75*
G02X261400000Y-99500000I-2100000J0D01*
G01*
X250600000Y-99500000D02*
G75*
G02X248500000Y-97400000I0J2100000D01*
G01*
X248500000Y-86600000D02*
G75*
G02X250600000Y-84500000I2100000J0D01*
G01*
X261400000Y-84500000D02*
G75*
G02X263500000Y-86600000I0J-2100000D01*
G01*
X250600000Y-84500000D02*
X261400000Y-84500000D01*
X263500000Y-86600000D02*
X263500000Y-97400000D01*
X248500000Y-86600000D02*
X248500000Y-97400000D01*
X261400000Y-99500000D02*
X250600000Y-99500000D01*
X263500000Y-80400000D02*
G75*
G02X261400000Y-82500000I-2100000J0D01*
G01*
X250600000Y-82500000D02*
G75*
G02X248500000Y-80400000I0J2100000D01*
G01*
X248500000Y-69600000D02*
G75*
G02X250600000Y-67500000I2100000J0D01*
G01*
X261400000Y-67500000D02*
G75*
G02X263500000Y-69600000I0J-2100000D01*
G01*
X250600000Y-67500000D02*
X261400000Y-67500000D01*
X263500000Y-69600000D02*
X263500000Y-80400000D01*
X248500000Y-69600000D02*
X248500000Y-80400000D01*
X261400000Y-82500000D02*
X250600000Y-82500000D01*
X245500000Y-131400000D02*
G75*
G02X243400000Y-133500000I-2100000J0D01*
G01*
X232600000Y-133500000D02*
G75*
G02X230500000Y-131400000I0J2100000D01*
G01*
X230500000Y-120600000D02*
G75*
G02X232600000Y-118500000I2100000J0D01*
G01*
X243400000Y-118500000D02*
G75*
G02X245500000Y-120600000I0J-2100000D01*
G01*
X232600000Y-118500000D02*
X243400000Y-118500000D01*
X245500000Y-120600000D02*
X245500000Y-131400000D01*
X230500000Y-120600000D02*
X230500000Y-131400000D01*
X243400000Y-133500000D02*
X232600000Y-133500000D01*
X245500000Y-114400000D02*
G75*
G02X243400000Y-116500000I-2100000J0D01*
G01*
X232600000Y-116500000D02*
G75*
G02X230500000Y-114400000I0J2100000D01*
G01*
X230500000Y-103600000D02*
G75*
G02X232600000Y-101500000I2100000J0D01*
G01*
X243400000Y-101500000D02*
G75*
G02X245500000Y-103600000I0J-2100000D01*
G01*
X232600000Y-101500000D02*
X243400000Y-101500000D01*
X245500000Y-103600000D02*
X245500000Y-114400000D01*
X230500000Y-103600000D02*
X230500000Y-114400000D01*
X243400000Y-116500000D02*
X232600000Y-116500000D01*
X245500000Y-97400000D02*
G75*
G02X243400000Y-99500000I-2100000J0D01*
G01*
X232600000Y-99500000D02*
G75*
G02X230500000Y-97400000I0J2100000D01*
G01*
X230500000Y-86600000D02*
G75*
G02X232600000Y-84500000I2100000J0D01*
G01*
X243400000Y-84500000D02*
G75*
G02X245500000Y-86600000I0J-2100000D01*
G01*
X232600000Y-84500000D02*
X243400000Y-84500000D01*
X245500000Y-86600000D02*
X245500000Y-97400000D01*
X230500000Y-86600000D02*
X230500000Y-97400000D01*
X243400000Y-99500000D02*
X232600000Y-99500000D01*
X245500000Y-80400000D02*
G75*
G02X243400000Y-82500000I-2100000J0D01*
G01*
X232600000Y-82500000D02*
G75*
G02X230500000Y-80400000I0J2100000D01*
G01*
X230500000Y-69600000D02*
G75*
G02X232600000Y-67500000I2100000J0D01*
G01*
X243400000Y-67500000D02*
G75*
G02X245500000Y-69600000I0J-2100000D01*
G01*
X232600000Y-67500000D02*
X243400000Y-67500000D01*
X245500000Y-69600000D02*
X245500000Y-80400000D01*
X230500000Y-69600000D02*
X230500000Y-80400000D01*
X243400000Y-82500000D02*
X232600000Y-82500000D01*
X245500000Y-63400000D02*
G75*
G02X243400000Y-65500000I-2100000J0D01*
G01*
X232600000Y-65500000D02*
G75*
G02X230500000Y-63400000I0J2100000D01*
G01*
X230500000Y-52600000D02*
G75*
G02X232600000Y-50500000I2100000J0D01*
G01*
X243400000Y-50500000D02*
G75*
G02X245500000Y-52600000I0J-2100000D01*
G01*
X232600000Y-50500000D02*
X243400000Y-50500000D01*
X245500000Y-52600000D02*
X245500000Y-63400000D01*
X230500000Y-52600000D02*
X230500000Y-63400000D01*
X243400000Y-65500000D02*
X232600000Y-65500000D01*
X227500000Y-131400000D02*
G75*
G02X225400000Y-133500000I-2100000J0D01*
G01*
X214600000Y-133500000D02*
G75*
G02X212500000Y-131400000I0J2100000D01*
G01*
X212500000Y-120600000D02*
G75*
G02X214600000Y-118500000I2100000J0D01*
G01*
X225400000Y-118500000D02*
G75*
G02X227500000Y-120600000I0J-2100000D01*
G01*
X214600000Y-118500000D02*
X225400000Y-118500000D01*
X227500000Y-120600000D02*
X227500000Y-131400000D01*
X212500000Y-120600000D02*
X212500000Y-131400000D01*
X225400000Y-133500000D02*
X214600000Y-133500000D01*
X227500000Y-114400000D02*
G75*
G02X225400000Y-116500000I-2100000J0D01*
G01*
X214600000Y-116500000D02*
G75*
G02X212500000Y-114400000I0J2100000D01*
G01*
X212500000Y-103600000D02*
G75*
G02X214600000Y-101500000I2100000J0D01*
G01*
X225400000Y-101500000D02*
G75*
G02X227500000Y-103600000I0J-2100000D01*
G01*
X214600000Y-101500000D02*
X225400000Y-101500000D01*
X227500000Y-103600000D02*
X227500000Y-114400000D01*
X212500000Y-103600000D02*
X212500000Y-114400000D01*
X225400000Y-116500000D02*
X214600000Y-116500000D01*
X227500000Y-97400000D02*
G75*
G02X225400000Y-99500000I-2100000J0D01*
G01*
X214600000Y-99500000D02*
G75*
G02X212500000Y-97400000I0J2100000D01*
G01*
X212500000Y-86600000D02*
G75*
G02X214600000Y-84500000I2100000J0D01*
G01*
X225400000Y-84500000D02*
G75*
G02X227500000Y-86600000I0J-2100000D01*
G01*
X214600000Y-84500000D02*
X225400000Y-84500000D01*
X227500000Y-86600000D02*
X227500000Y-97400000D01*
X212500000Y-86600000D02*
X212500000Y-97400000D01*
X225400000Y-99500000D02*
X214600000Y-99500000D01*
X227500000Y-80400000D02*
G75*
G02X225400000Y-82500000I-2100000J0D01*
G01*
X214600000Y-82500000D02*
G75*
G02X212500000Y-80400000I0J2100000D01*
G01*
X212500000Y-69600000D02*
G75*
G02X214600000Y-67500000I2100000J0D01*
G01*
X225400000Y-67500000D02*
G75*
G02X227500000Y-69600000I0J-2100000D01*
G01*
X214600000Y-67500000D02*
X225400000Y-67500000D01*
X227500000Y-69600000D02*
X227500000Y-80400000D01*
X212500000Y-69600000D02*
X212500000Y-80400000D01*
X225400000Y-82500000D02*
X214600000Y-82500000D01*
X227500000Y-63400000D02*
G75*
G02X225400000Y-65500000I-2100000J0D01*
G01*
X214600000Y-65500000D02*
G75*
G02X212500000Y-63400000I0J2100000D01*
G01*
X212500000Y-52600000D02*
G75*
G02X214600000Y-50500000I2100000J0D01*
G01*
X225400000Y-50500000D02*
G75*
G02X227500000Y-52600000I0J-2100000D01*
G01*
X214600000Y-50500000D02*
X225400000Y-50500000D01*
X227500000Y-52600000D02*
X227500000Y-63400000D01*
X212500000Y-52600000D02*
X212500000Y-63400000D01*
X225400000Y-65500000D02*
X214600000Y-65500000D01*
X209500000Y-131400000D02*
G75*
G02X207400000Y-133500000I-2100000J0D01*
G01*
X196600000Y-133500000D02*
G75*
G02X194500000Y-131400000I0J2100000D01*
G01*
X194500000Y-120600000D02*
G75*
G02X196600000Y-118500000I2100000J0D01*
G01*
X207400000Y-118500000D02*
G75*
G02X209500000Y-120600000I0J-2100000D01*
G01*
X196600000Y-118500000D02*
X207400000Y-118500000D01*
X209500000Y-120600000D02*
X209500000Y-131400000D01*
X194500000Y-120600000D02*
X194500000Y-131400000D01*
X207400000Y-133500000D02*
X196600000Y-133500000D01*
X209500000Y-114400000D02*
G75*
G02X207400000Y-116500000I-2100000J0D01*
G01*
X196600000Y-116500000D02*
G75*
G02X194500000Y-114400000I0J2100000D01*
G01*
X194500000Y-103600000D02*
G75*
G02X196600000Y-101500000I2100000J0D01*
G01*
X207400000Y-101500000D02*
G75*
G02X209500000Y-103600000I0J-2100000D01*
G01*
X196600000Y-101500000D02*
X207400000Y-101500000D01*
X209500000Y-103600000D02*
X209500000Y-114400000D01*
X194500000Y-103600000D02*
X194500000Y-114400000D01*
X207400000Y-116500000D02*
X196600000Y-116500000D01*
X209500000Y-97400000D02*
G75*
G02X207400000Y-99500000I-2100000J0D01*
G01*
X196600000Y-99500000D02*
G75*
G02X194500000Y-97400000I0J2100000D01*
G01*
X194500000Y-86600000D02*
G75*
G02X196600000Y-84500000I2100000J0D01*
G01*
X207400000Y-84500000D02*
G75*
G02X209500000Y-86600000I0J-2100000D01*
G01*
X196600000Y-84500000D02*
X207400000Y-84500000D01*
X209500000Y-86600000D02*
X209500000Y-97400000D01*
X194500000Y-86600000D02*
X194500000Y-97400000D01*
X207400000Y-99500000D02*
X196600000Y-99500000D01*
X209500000Y-80400000D02*
G75*
G02X207400000Y-82500000I-2100000J0D01*
G01*
X196600000Y-82500000D02*
G75*
G02X194500000Y-80400000I0J2100000D01*
G01*
X194500000Y-69600000D02*
G75*
G02X196600000Y-67500000I2100000J0D01*
G01*
X207400000Y-67500000D02*
G75*
G02X209500000Y-69600000I0J-2100000D01*
G01*
X196600000Y-67500000D02*
X207400000Y-67500000D01*
X209500000Y-69600000D02*
X209500000Y-80400000D01*
X194500000Y-69600000D02*
X194500000Y-80400000D01*
X207400000Y-82500000D02*
X196600000Y-82500000D01*
X209500000Y-63400000D02*
G75*
G02X207400000Y-65500000I-2100000J0D01*
G01*
X196600000Y-65500000D02*
G75*
G02X194500000Y-63400000I0J2100000D01*
G01*
X194500000Y-52600000D02*
G75*
G02X196600000Y-50500000I2100000J0D01*
G01*
X207400000Y-50500000D02*
G75*
G02X209500000Y-52600000I0J-2100000D01*
G01*
X196600000Y-50500000D02*
X207400000Y-50500000D01*
X209500000Y-52600000D02*
X209500000Y-63400000D01*
X194500000Y-52600000D02*
X194500000Y-63400000D01*
X207400000Y-65500000D02*
X196600000Y-65500000D01*
X191500000Y-131400000D02*
G75*
G02X189400000Y-133500000I-2100000J0D01*
G01*
X178600000Y-133500000D02*
G75*
G02X176500000Y-131400000I0J2100000D01*
G01*
X176500000Y-120600000D02*
G75*
G02X178600000Y-118500000I2100000J0D01*
G01*
X189400000Y-118500000D02*
G75*
G02X191500000Y-120600000I0J-2100000D01*
G01*
X178600000Y-118500000D02*
X189400000Y-118500000D01*
X191500000Y-120600000D02*
X191500000Y-131400000D01*
X176500000Y-120600000D02*
X176500000Y-131400000D01*
X189400000Y-133500000D02*
X178600000Y-133500000D01*
X191500000Y-114400000D02*
G75*
G02X189400000Y-116500000I-2100000J0D01*
G01*
X178600000Y-116500000D02*
G75*
G02X176500000Y-114400000I0J2100000D01*
G01*
X176500000Y-103600000D02*
G75*
G02X178600000Y-101500000I2100000J0D01*
G01*
X189400000Y-101500000D02*
G75*
G02X191500000Y-103600000I0J-2100000D01*
G01*
X178600000Y-101500000D02*
X189400000Y-101500000D01*
X191500000Y-103600000D02*
X191500000Y-114400000D01*
X176500000Y-103600000D02*
X176500000Y-114400000D01*
X189400000Y-116500000D02*
X178600000Y-116500000D01*
X191500000Y-97400000D02*
G75*
G02X189400000Y-99500000I-2100000J0D01*
G01*
X178600000Y-99500000D02*
G75*
G02X176500000Y-97400000I0J2100000D01*
G01*
X176500000Y-86600000D02*
G75*
G02X178600000Y-84500000I2100000J0D01*
G01*
X189400000Y-84500000D02*
G75*
G02X191500000Y-86600000I0J-2100000D01*
G01*
X178600000Y-84500000D02*
X189400000Y-84500000D01*
X191500000Y-86600000D02*
X191500000Y-97400000D01*
X176500000Y-86600000D02*
X176500000Y-97400000D01*
X189400000Y-99500000D02*
X178600000Y-99500000D01*
X191500000Y-80400000D02*
G75*
G02X189400000Y-82500000I-2100000J0D01*
G01*
X178600000Y-82500000D02*
G75*
G02X176500000Y-80400000I0J2100000D01*
G01*
X176500000Y-69600000D02*
G75*
G02X178600000Y-67500000I2100000J0D01*
G01*
X189400000Y-67500000D02*
G75*
G02X191500000Y-69600000I0J-2100000D01*
G01*
X178600000Y-67500000D02*
X189400000Y-67500000D01*
X191500000Y-69600000D02*
X191500000Y-80400000D01*
X176500000Y-69600000D02*
X176500000Y-80400000D01*
X189400000Y-82500000D02*
X178600000Y-82500000D01*
X191500000Y-63400000D02*
G75*
G02X189400000Y-65500000I-2100000J0D01*
G01*
X178600000Y-65500000D02*
G75*
G02X176500000Y-63400000I0J2100000D01*
G01*
X176500000Y-52600000D02*
G75*
G02X178600000Y-50500000I2100000J0D01*
G01*
X189400000Y-50500000D02*
G75*
G02X191500000Y-52600000I0J-2100000D01*
G01*
X178600000Y-50500000D02*
X189400000Y-50500000D01*
X191500000Y-52600000D02*
X191500000Y-63400000D01*
X176500000Y-52600000D02*
X176500000Y-63400000D01*
X189400000Y-65500000D02*
X178600000Y-65500000D01*
X173500000Y-131400000D02*
G75*
G02X171400000Y-133500000I-2100000J0D01*
G01*
X160600000Y-133500000D02*
G75*
G02X158500000Y-131400000I0J2100000D01*
G01*
X158500000Y-120600000D02*
G75*
G02X160600000Y-118500000I2100000J0D01*
G01*
X171400000Y-118500000D02*
G75*
G02X173500000Y-120600000I0J-2100000D01*
G01*
X160600000Y-118500000D02*
X171400000Y-118500000D01*
X173500000Y-120600000D02*
X173500000Y-131400000D01*
X158500000Y-120600000D02*
X158500000Y-131400000D01*
X171400000Y-133500000D02*
X160600000Y-133500000D01*
X173500000Y-114400000D02*
G75*
G02X171400000Y-116500000I-2100000J0D01*
G01*
X160600000Y-116500000D02*
G75*
G02X158500000Y-114400000I0J2100000D01*
G01*
X158500000Y-103600000D02*
G75*
G02X160600000Y-101500000I2100000J0D01*
G01*
X171400000Y-101500000D02*
G75*
G02X173500000Y-103600000I0J-2100000D01*
G01*
X160600000Y-101500000D02*
X171400000Y-101500000D01*
X173500000Y-103600000D02*
X173500000Y-114400000D01*
X158500000Y-103600000D02*
X158500000Y-114400000D01*
X171400000Y-116500000D02*
X160600000Y-116500000D01*
X173500000Y-97400000D02*
G75*
G02X171400000Y-99500000I-2100000J0D01*
G01*
X160600000Y-99500000D02*
G75*
G02X158500000Y-97400000I0J2100000D01*
G01*
X158500000Y-86600000D02*
G75*
G02X160600000Y-84500000I2100000J0D01*
G01*
X171400000Y-84500000D02*
G75*
G02X173500000Y-86600000I0J-2100000D01*
G01*
X160600000Y-84500000D02*
X171400000Y-84500000D01*
X173500000Y-86600000D02*
X173500000Y-97400000D01*
X158500000Y-86600000D02*
X158500000Y-97400000D01*
X171400000Y-99500000D02*
X160600000Y-99500000D01*
X173500000Y-80400000D02*
G75*
G02X171400000Y-82500000I-2100000J0D01*
G01*
X160600000Y-82500000D02*
G75*
G02X158500000Y-80400000I0J2100000D01*
G01*
X158500000Y-69600000D02*
G75*
G02X160600000Y-67500000I2100000J0D01*
G01*
X171400000Y-67500000D02*
G75*
G02X173500000Y-69600000I0J-2100000D01*
G01*
X160600000Y-67500000D02*
X171400000Y-67500000D01*
X173500000Y-69600000D02*
X173500000Y-80400000D01*
X158500000Y-69600000D02*
X158500000Y-80400000D01*
X171400000Y-82500000D02*
X160600000Y-82500000D01*
X155500000Y-131400000D02*
G75*
G02X153400000Y-133500000I-2100000J0D01*
G01*
X142600000Y-133500000D02*
G75*
G02X140500000Y-131400000I0J2100000D01*
G01*
X140500000Y-120600000D02*
G75*
G02X142600000Y-118500000I2100000J0D01*
G01*
X153400000Y-118500000D02*
G75*
G02X155500000Y-120600000I0J-2100000D01*
G01*
X142600000Y-118500000D02*
X153400000Y-118500000D01*
X155500000Y-120600000D02*
X155500000Y-131400000D01*
X140500000Y-120600000D02*
X140500000Y-131400000D01*
X153400000Y-133500000D02*
X142600000Y-133500000D01*
X155500000Y-114400000D02*
G75*
G02X153400000Y-116500000I-2100000J0D01*
G01*
X142600000Y-116500000D02*
G75*
G02X140500000Y-114400000I0J2100000D01*
G01*
X140500000Y-103600000D02*
G75*
G02X142600000Y-101500000I2100000J0D01*
G01*
X153400000Y-101500000D02*
G75*
G02X155500000Y-103600000I0J-2100000D01*
G01*
X142600000Y-101500000D02*
X153400000Y-101500000D01*
X155500000Y-103600000D02*
X155500000Y-114400000D01*
X140500000Y-103600000D02*
X140500000Y-114400000D01*
X153400000Y-116500000D02*
X142600000Y-116500000D01*
X155500000Y-97400000D02*
G75*
G02X153400000Y-99500000I-2100000J0D01*
G01*
X142600000Y-99500000D02*
G75*
G02X140500000Y-97400000I0J2100000D01*
G01*
X140500000Y-86600000D02*
G75*
G02X142600000Y-84500000I2100000J0D01*
G01*
X153400000Y-84500000D02*
G75*
G02X155500000Y-86600000I0J-2100000D01*
G01*
X142600000Y-84500000D02*
X153400000Y-84500000D01*
X155500000Y-86600000D02*
X155500000Y-97400000D01*
X140500000Y-86600000D02*
X140500000Y-97400000D01*
X153400000Y-99500000D02*
X142600000Y-99500000D01*
X155500000Y-80400000D02*
G75*
G02X153400000Y-82500000I-2100000J0D01*
G01*
X142600000Y-82500000D02*
G75*
G02X140500000Y-80400000I0J2100000D01*
G01*
X140500000Y-69600000D02*
G75*
G02X142600000Y-67500000I2100000J0D01*
G01*
X153400000Y-67500000D02*
G75*
G02X155500000Y-69600000I0J-2100000D01*
G01*
X142600000Y-67500000D02*
X153400000Y-67500000D01*
X155500000Y-69600000D02*
X155500000Y-80400000D01*
X140500000Y-69600000D02*
X140500000Y-80400000D01*
X153400000Y-82500000D02*
X142600000Y-82500000D01*
X137500000Y-131400000D02*
G75*
G02X135400000Y-133500000I-2100000J0D01*
G01*
X124600000Y-133500000D02*
G75*
G02X122500000Y-131400000I0J2100000D01*
G01*
X122500000Y-120600000D02*
G75*
G02X124600000Y-118500000I2100000J0D01*
G01*
X135400000Y-118500000D02*
G75*
G02X137500000Y-120600000I0J-2100000D01*
G01*
X124600000Y-118500000D02*
X135400000Y-118500000D01*
X137500000Y-120600000D02*
X137500000Y-131400000D01*
X122500000Y-120600000D02*
X122500000Y-131400000D01*
X135400000Y-133500000D02*
X124600000Y-133500000D01*
X137500000Y-114400000D02*
G75*
G02X135400000Y-116500000I-2100000J0D01*
G01*
X124600000Y-116500000D02*
G75*
G02X122500000Y-114400000I0J2100000D01*
G01*
X122500000Y-103600000D02*
G75*
G02X124600000Y-101500000I2100000J0D01*
G01*
X135400000Y-101500000D02*
G75*
G02X137500000Y-103600000I0J-2100000D01*
G01*
X124600000Y-101500000D02*
X135400000Y-101500000D01*
X137500000Y-103600000D02*
X137500000Y-114400000D01*
X122500000Y-103600000D02*
X122500000Y-114400000D01*
X135400000Y-116500000D02*
X124600000Y-116500000D01*
X137500000Y-97400000D02*
G75*
G02X135400000Y-99500000I-2100000J0D01*
G01*
X124600000Y-99500000D02*
G75*
G02X122500000Y-97400000I0J2100000D01*
G01*
X122500000Y-86600000D02*
G75*
G02X124600000Y-84500000I2100000J0D01*
G01*
X135400000Y-84500000D02*
G75*
G02X137500000Y-86600000I0J-2100000D01*
G01*
X124600000Y-84500000D02*
X135400000Y-84500000D01*
X137500000Y-86600000D02*
X137500000Y-97400000D01*
X122500000Y-86600000D02*
X122500000Y-97400000D01*
X135400000Y-99500000D02*
X124600000Y-99500000D01*
X137500000Y-80400000D02*
G75*
G02X135400000Y-82500000I-2100000J0D01*
G01*
X124600000Y-82500000D02*
G75*
G02X122500000Y-80400000I0J2100000D01*
G01*
X122500000Y-69600000D02*
G75*
G02X124600000Y-67500000I2100000J0D01*
G01*
X135400000Y-67500000D02*
G75*
G02X137500000Y-69600000I0J-2100000D01*
G01*
X124600000Y-67500000D02*
X135400000Y-67500000D01*
X137500000Y-69600000D02*
X137500000Y-80400000D01*
X122500000Y-69600000D02*
X122500000Y-80400000D01*
X135400000Y-82500000D02*
X124600000Y-82500000D01*
X137500000Y-63400000D02*
G75*
G02X135400000Y-65500000I-2100000J0D01*
G01*
X124600000Y-65500000D02*
G75*
G02X122500000Y-63400000I0J2100000D01*
G01*
X122500000Y-52600000D02*
G75*
G02X124600000Y-50500000I2100000J0D01*
G01*
X135400000Y-50500000D02*
G75*
G02X137500000Y-52600000I0J-2100000D01*
G01*
X124600000Y-50500000D02*
X135400000Y-50500000D01*
X137500000Y-52600000D02*
X137500000Y-63400000D01*
X122500000Y-52600000D02*
X122500000Y-63400000D01*
X135400000Y-65500000D02*
X124600000Y-65500000D01*
X119500000Y-131400000D02*
G75*
G02X117400000Y-133500000I-2100000J0D01*
G01*
X106600000Y-133500000D02*
G75*
G02X104500000Y-131400000I0J2100000D01*
G01*
X104500000Y-120600000D02*
G75*
G02X106600000Y-118500000I2100000J0D01*
G01*
X117400000Y-118500000D02*
G75*
G02X119500000Y-120600000I0J-2100000D01*
G01*
X106600000Y-118500000D02*
X117400000Y-118500000D01*
X119500000Y-120600000D02*
X119500000Y-131400000D01*
X104500000Y-120600000D02*
X104500000Y-131400000D01*
X117400000Y-133500000D02*
X106600000Y-133500000D01*
X119500000Y-114400000D02*
G75*
G02X117400000Y-116500000I-2100000J0D01*
G01*
X106600000Y-116500000D02*
G75*
G02X104500000Y-114400000I0J2100000D01*
G01*
X104500000Y-103600000D02*
G75*
G02X106600000Y-101500000I2100000J0D01*
G01*
X117400000Y-101500000D02*
G75*
G02X119500000Y-103600000I0J-2100000D01*
G01*
X106600000Y-101500000D02*
X117400000Y-101500000D01*
X119500000Y-103600000D02*
X119500000Y-114400000D01*
X104500000Y-103600000D02*
X104500000Y-114400000D01*
X117400000Y-116500000D02*
X106600000Y-116500000D01*
X119500000Y-97400000D02*
G75*
G02X117400000Y-99500000I-2100000J0D01*
G01*
X106600000Y-99500000D02*
G75*
G02X104500000Y-97400000I0J2100000D01*
G01*
X104500000Y-86600000D02*
G75*
G02X106600000Y-84500000I2100000J0D01*
G01*
X117400000Y-84500000D02*
G75*
G02X119500000Y-86600000I0J-2100000D01*
G01*
X106600000Y-84500000D02*
X117400000Y-84500000D01*
X119500000Y-86600000D02*
X119500000Y-97400000D01*
X104500000Y-86600000D02*
X104500000Y-97400000D01*
X117400000Y-99500000D02*
X106600000Y-99500000D01*
X119500000Y-80400000D02*
G75*
G02X117400000Y-82500000I-2100000J0D01*
G01*
X106600000Y-82500000D02*
G75*
G02X104500000Y-80400000I0J2100000D01*
G01*
X104500000Y-69600000D02*
G75*
G02X106600000Y-67500000I2100000J0D01*
G01*
X117400000Y-67500000D02*
G75*
G02X119500000Y-69600000I0J-2100000D01*
G01*
X106600000Y-67500000D02*
X117400000Y-67500000D01*
X119500000Y-69600000D02*
X119500000Y-80400000D01*
X104500000Y-69600000D02*
X104500000Y-80400000D01*
X117400000Y-82500000D02*
X106600000Y-82500000D01*
X119500000Y-63400000D02*
G75*
G02X117400000Y-65500000I-2100000J0D01*
G01*
X106600000Y-65500000D02*
G75*
G02X104500000Y-63400000I0J2100000D01*
G01*
X104500000Y-52600000D02*
G75*
G02X106600000Y-50500000I2100000J0D01*
G01*
X117400000Y-50500000D02*
G75*
G02X119500000Y-52600000I0J-2100000D01*
G01*
X106600000Y-50500000D02*
X117400000Y-50500000D01*
X119500000Y-52600000D02*
X119500000Y-63400000D01*
X104500000Y-52600000D02*
X104500000Y-63400000D01*
X117400000Y-65500000D02*
X106600000Y-65500000D01*
X101500000Y-131400000D02*
G75*
G02X99400000Y-133500000I-2100000J0D01*
G01*
X88600000Y-133500000D02*
G75*
G02X86500000Y-131400000I0J2100000D01*
G01*
X86500000Y-120600000D02*
G75*
G02X88600000Y-118500000I2100000J0D01*
G01*
X99400000Y-118500000D02*
G75*
G02X101500000Y-120600000I0J-2100000D01*
G01*
X88600000Y-118500000D02*
X99400000Y-118500000D01*
X101500000Y-120600000D02*
X101500000Y-131400000D01*
X86500000Y-120600000D02*
X86500000Y-131400000D01*
X99400000Y-133500000D02*
X88600000Y-133500000D01*
X101500000Y-114400000D02*
G75*
G02X99400000Y-116500000I-2100000J0D01*
G01*
X88600000Y-116500000D02*
G75*
G02X86500000Y-114400000I0J2100000D01*
G01*
X86500000Y-103600000D02*
G75*
G02X88600000Y-101500000I2100000J0D01*
G01*
X99400000Y-101500000D02*
G75*
G02X101500000Y-103600000I0J-2100000D01*
G01*
X88600000Y-101500000D02*
X99400000Y-101500000D01*
X101500000Y-103600000D02*
X101500000Y-114400000D01*
X86500000Y-103600000D02*
X86500000Y-114400000D01*
X99400000Y-116500000D02*
X88600000Y-116500000D01*
X101500000Y-97400000D02*
G75*
G02X99400000Y-99500000I-2100000J0D01*
G01*
X88600000Y-99500000D02*
G75*
G02X86500000Y-97400000I0J2100000D01*
G01*
X86500000Y-86600000D02*
G75*
G02X88600000Y-84500000I2100000J0D01*
G01*
X99400000Y-84500000D02*
G75*
G02X101500000Y-86600000I0J-2100000D01*
G01*
X88600000Y-84500000D02*
X99400000Y-84500000D01*
X101500000Y-86600000D02*
X101500000Y-97400000D01*
X86500000Y-86600000D02*
X86500000Y-97400000D01*
X99400000Y-99500000D02*
X88600000Y-99500000D01*
X101500000Y-80400000D02*
G75*
G02X99400000Y-82500000I-2100000J0D01*
G01*
X88600000Y-82500000D02*
G75*
G02X86500000Y-80400000I0J2100000D01*
G01*
X86500000Y-69600000D02*
G75*
G02X88600000Y-67500000I2100000J0D01*
G01*
X99400000Y-67500000D02*
G75*
G02X101500000Y-69600000I0J-2100000D01*
G01*
X88600000Y-67500000D02*
X99400000Y-67500000D01*
X101500000Y-69600000D02*
X101500000Y-80400000D01*
X86500000Y-69600000D02*
X86500000Y-80400000D01*
X99400000Y-82500000D02*
X88600000Y-82500000D01*
X101500000Y-63400000D02*
G75*
G02X99400000Y-65500000I-2100000J0D01*
G01*
X88600000Y-65500000D02*
G75*
G02X86500000Y-63400000I0J2100000D01*
G01*
X86500000Y-52600000D02*
G75*
G02X88600000Y-50500000I2100000J0D01*
G01*
X99400000Y-50500000D02*
G75*
G02X101500000Y-52600000I0J-2100000D01*
G01*
X88600000Y-50500000D02*
X99400000Y-50500000D01*
X101500000Y-52600000D02*
X101500000Y-63400000D01*
X86500000Y-52600000D02*
X86500000Y-63400000D01*
X99400000Y-65500000D02*
X88600000Y-65500000D01*
X83500000Y-131400000D02*
G75*
G02X81400000Y-133500000I-2100000J0D01*
G01*
X70600000Y-133500000D02*
G75*
G02X68500000Y-131400000I0J2100000D01*
G01*
X68500000Y-120600000D02*
G75*
G02X70600000Y-118500000I2100000J0D01*
G01*
X81400000Y-118500000D02*
G75*
G02X83500000Y-120600000I0J-2100000D01*
G01*
X70600000Y-118500000D02*
X81400000Y-118500000D01*
X83500000Y-120600000D02*
X83500000Y-131400000D01*
X68500000Y-120600000D02*
X68500000Y-131400000D01*
X81400000Y-133500000D02*
X70600000Y-133500000D01*
X83500000Y-114400000D02*
G75*
G02X81400000Y-116500000I-2100000J0D01*
G01*
X70600000Y-116500000D02*
G75*
G02X68500000Y-114400000I0J2100000D01*
G01*
X68500000Y-103600000D02*
G75*
G02X70600000Y-101500000I2100000J0D01*
G01*
X81400000Y-101500000D02*
G75*
G02X83500000Y-103600000I0J-2100000D01*
G01*
X70600000Y-101500000D02*
X81400000Y-101500000D01*
X83500000Y-103600000D02*
X83500000Y-114400000D01*
X68500000Y-103600000D02*
X68500000Y-114400000D01*
X81400000Y-116500000D02*
X70600000Y-116500000D01*
X83500000Y-97400000D02*
G75*
G02X81400000Y-99500000I-2100000J0D01*
G01*
X70600000Y-99500000D02*
G75*
G02X68500000Y-97400000I0J2100000D01*
G01*
X68500000Y-86600000D02*
G75*
G02X70600000Y-84500000I2100000J0D01*
G01*
X81400000Y-84500000D02*
G75*
G02X83500000Y-86600000I0J-2100000D01*
G01*
X70600000Y-84500000D02*
X81400000Y-84500000D01*
X83500000Y-86600000D02*
X83500000Y-97400000D01*
X68500000Y-86600000D02*
X68500000Y-97400000D01*
X81400000Y-99500000D02*
X70600000Y-99500000D01*
X83500000Y-80400000D02*
G75*
G02X81400000Y-82500000I-2100000J0D01*
G01*
X70600000Y-82500000D02*
G75*
G02X68500000Y-80400000I0J2100000D01*
G01*
X68500000Y-69600000D02*
G75*
G02X70600000Y-67500000I2100000J0D01*
G01*
X81400000Y-67500000D02*
G75*
G02X83500000Y-69600000I0J-2100000D01*
G01*
X70600000Y-67500000D02*
X81400000Y-67500000D01*
X83500000Y-69600000D02*
X83500000Y-80400000D01*
X68500000Y-69600000D02*
X68500000Y-80400000D01*
X81400000Y-82500000D02*
X70600000Y-82500000D01*
X83500000Y-63400000D02*
G75*
G02X81400000Y-65500000I-2100000J0D01*
G01*
X70600000Y-65500000D02*
G75*
G02X68500000Y-63400000I0J2100000D01*
G01*
X68500000Y-52600000D02*
G75*
G02X70600000Y-50500000I2100000J0D01*
G01*
X81400000Y-50500000D02*
G75*
G02X83500000Y-52600000I0J-2100000D01*
G01*
X70600000Y-50500000D02*
X81400000Y-50500000D01*
X83500000Y-52600000D02*
X83500000Y-63400000D01*
X68500000Y-52600000D02*
X68500000Y-63400000D01*
X81400000Y-65500000D02*
X70600000Y-65500000D01*
X65500000Y-131400000D02*
G75*
G02X63400000Y-133500000I-2100000J0D01*
G01*
X52600000Y-133500000D02*
G75*
G02X50500000Y-131400000I0J2100000D01*
G01*
X50500000Y-120600000D02*
G75*
G02X52600000Y-118500000I2100000J0D01*
G01*
X63400000Y-118500000D02*
G75*
G02X65500000Y-120600000I0J-2100000D01*
G01*
X52600000Y-118500000D02*
X63400000Y-118500000D01*
X65500000Y-120600000D02*
X65500000Y-131400000D01*
X50500000Y-120600000D02*
X50500000Y-131400000D01*
X63400000Y-133500000D02*
X52600000Y-133500000D01*
X65500000Y-114400000D02*
G75*
G02X63400000Y-116500000I-2100000J0D01*
G01*
X52600000Y-116500000D02*
G75*
G02X50500000Y-114400000I0J2100000D01*
G01*
X50500000Y-103600000D02*
G75*
G02X52600000Y-101500000I2100000J0D01*
G01*
X63400000Y-101500000D02*
G75*
G02X65500000Y-103600000I0J-2100000D01*
G01*
X52600000Y-101500000D02*
X63400000Y-101500000D01*
X65500000Y-103600000D02*
X65500000Y-114400000D01*
X50500000Y-103600000D02*
X50500000Y-114400000D01*
X63400000Y-116500000D02*
X52600000Y-116500000D01*
X65500000Y-97400000D02*
G75*
G02X63400000Y-99500000I-2100000J0D01*
G01*
X52600000Y-99500000D02*
G75*
G02X50500000Y-97400000I0J2100000D01*
G01*
X50500000Y-86600000D02*
G75*
G02X52600000Y-84500000I2100000J0D01*
G01*
X63400000Y-84500000D02*
G75*
G02X65500000Y-86600000I0J-2100000D01*
G01*
X52600000Y-84500000D02*
X63400000Y-84500000D01*
X65500000Y-86600000D02*
X65500000Y-97400000D01*
X50500000Y-86600000D02*
X50500000Y-97400000D01*
X63400000Y-99500000D02*
X52600000Y-99500000D01*
X65500000Y-80400000D02*
G75*
G02X63400000Y-82500000I-2100000J0D01*
G01*
X52600000Y-82500000D02*
G75*
G02X50500000Y-80400000I0J2100000D01*
G01*
X50500000Y-69600000D02*
G75*
G02X52600000Y-67500000I2100000J0D01*
G01*
X63400000Y-67500000D02*
G75*
G02X65500000Y-69600000I0J-2100000D01*
G01*
X52600000Y-67500000D02*
X63400000Y-67500000D01*
X65500000Y-69600000D02*
X65500000Y-80400000D01*
X50500000Y-69600000D02*
X50500000Y-80400000D01*
X63400000Y-82500000D02*
X52600000Y-82500000D01*
X65500000Y-63400000D02*
G75*
G02X63400000Y-65500000I-2100000J0D01*
G01*
X52600000Y-65500000D02*
G75*
G02X50500000Y-63400000I0J2100000D01*
G01*
X50500000Y-52600000D02*
G75*
G02X52600000Y-50500000I2100000J0D01*
G01*
X63400000Y-50500000D02*
G75*
G02X65500000Y-52600000I0J-2100000D01*
G01*
X52600000Y-50500000D02*
X63400000Y-50500000D01*
X65500000Y-52600000D02*
X65500000Y-63400000D01*
X50500000Y-52600000D02*
X50500000Y-63400000D01*
X63400000Y-65500000D02*
X52600000Y-65500000D01*
M02*
