M48
; DRILL file {KiCad 5.1.5+dfsg1-2build2} date Wed 19 May 2021 09:40:21 PM CEST
; FORMAT={-:-/ absolute / inch / decimal}
; #@! TF.CreationDate,2021-05-19T21:40:21+02:00
; #@! TF.GenerationSoftware,Kicad,Pcbnew,5.1.5+dfsg1-2build2
; #@! TF.FileFunction,Plated,1,2,PTH
FMAT,2
INCH
T1C0.0118
T2C0.0157
T3C0.0236
T4C0.0472
T5C0.1732
%
G90
G05
T1
X6.0118Y-2.5472
X6.0197Y-2.7323
X6.1535Y-2.8189
X6.1634Y-2.4665
X6.1732Y-3.4938
X6.1969Y-4.0056
X6.2205Y-4.6749
X6.2441Y-2.8031
X6.2497Y-4.8133
X6.2697Y-2.8248
X6.2992Y-2.8031
X6.3287Y-2.8248
X6.3504Y-2.5039
X8.3071Y-2.4803
T2
X6.0728Y-2.8051
X6.0792Y-2.5435
X6.0984Y-2.4724
X6.1039Y-2.5129
X6.126Y-2.6378
X6.1811Y-2.5827
X6.1811Y-2.6929
X6.185Y-2.402
X6.1929Y-2.4882
X6.2362Y-2.6378
X6.2515Y-2.4947
X6.2791Y-2.527
X6.3819Y-2.6693
T4
X8.4646Y-3.7717
X8.6614Y-3.8543
X7.7559Y-3.7717
X7.9528Y-3.8543
X4.9213Y-5.1102
X5.1181Y-5.1929
X2.0866Y-4.4409
X2.2835Y-4.5236
X4.9213Y-4.4409
X5.1181Y-4.5236
X2.0866Y-2.4331
X2.2835Y-2.5157
X8.4646Y-3.1024
X8.6614Y-3.185
X2.0866Y-3.7717
X2.2835Y-3.8543
X4.9213Y-3.7717
X5.1181Y-3.8543
X4.2126Y-2.4331
X4.4094Y-2.5157
X9.1732Y-3.1024
X9.3701Y-3.185
X7.0472Y-5.1102
X7.2441Y-5.1929
X6.3386Y-2.4331
X6.5354Y-2.5157
X9.1732Y-2.4331
X9.3701Y-2.5157
X3.5039Y-2.4331
X3.7008Y-2.5157
X9.8819Y-4.4409
X10.0787Y-4.5236
X4.2126Y-5.1102
X4.4094Y-5.1929
X8.4646Y-2.4331
X8.6614Y-2.5157
X2.7953Y-3.1024
X2.9921Y-3.185
X4.9213Y-2.4331
X5.1181Y-2.5157
X9.8819Y-2.4331
X10.0787Y-2.5157
X4.2126Y-4.4409
X4.4094Y-4.5236
X5.6299Y-3.7717
X5.8268Y-3.8543
X5.6299Y-2.4331
X5.8268Y-2.5157
X7.7559Y-4.4409
X7.9528Y-4.5236
X2.7953Y-4.4409
X2.9921Y-4.5236
X7.7559Y-3.1024
X7.9528Y-3.185
X7.7559Y-5.1102
X7.9528Y-5.1929
X2.7953Y-2.4331
X2.9921Y-2.5157
X2.0866Y-3.1024
X2.2835Y-3.185
X7.0472Y-4.4409
X7.2441Y-4.5236
X5.6299Y-5.1102
X5.8268Y-5.1929
X9.1732Y-4.4409
X9.3701Y-4.5236
X7.0472Y-3.7717
X7.2441Y-3.8543
X4.2126Y-3.1024
X4.4094Y-3.185
X7.0472Y-2.4331
X7.2441Y-2.5157
X7.0472Y-3.1024
X7.2441Y-3.185
X6.3386Y-5.1102
X6.5354Y-5.1929
X4.9213Y-3.1024
X5.1181Y-3.185
X3.5039Y-3.7717
X3.7008Y-3.8543
X3.5039Y-4.4409
X3.7008Y-4.5236
X4.2126Y-3.7717
X4.4094Y-3.8543
X2.7953Y-3.7717
X2.9921Y-3.8543
X6.3386Y-4.4409
X6.5354Y-4.5236
X3.5039Y-3.1024
X3.7008Y-3.185
X7.7559Y-2.4331
X7.9528Y-2.5157
X6.3386Y-3.7717
X6.5354Y-3.8543
X5.6299Y-3.1024
X5.8268Y-3.185
X9.8819Y-5.1102
X10.0787Y-5.1929
X2.0866Y-5.1102
X2.2835Y-5.1929
X8.4646Y-5.1102
X8.6614Y-5.1929
X9.8819Y-3.1024
X10.0787Y-3.185
X2.7953Y-5.1102
X2.9921Y-5.1929
X6.3386Y-3.1024
X6.5354Y-3.185
X9.8819Y-3.7717
X10.0787Y-3.8543
X5.6299Y-4.4409
X5.8268Y-4.5236
X8.4646Y-4.4409
X8.6614Y-4.5236
X3.5039Y-5.1102
X3.7008Y-5.1929
X9.1732Y-3.7717
X9.3701Y-3.8543
X9.1732Y-5.1102
X9.3701Y-5.1929
T5
X8.3071Y-3.2874
X4.0551Y-3.2874
X9.7244Y-2.6181
X2.6378Y-2.6181
T3
X6.011Y-2.0612G85X6.011Y-2.0848
G05
X6.011Y-2.2159G85X6.011Y-2.2593
G05
X6.3512Y-2.0612G85X6.3512Y-2.0848
G05
X6.3512Y-2.2159G85X6.3512Y-2.2593
G05
T0
M30
