G04 #@! TF.GenerationSoftware,KiCad,Pcbnew,5.1.5+dfsg1-2build2*
G04 #@! TF.CreationDate,2021-05-19T21:40:19+02:00*
G04 #@! TF.ProjectId,ortholinear-keyboard,6f727468-6f6c-4696-9e65-61722d6b6579,rev?*
G04 #@! TF.SameCoordinates,Original*
G04 #@! TF.FileFunction,Copper,L1,Top*
G04 #@! TF.FilePolarity,Positive*
%FSLAX46Y46*%
G04 Gerber Fmt 4.6, Leading zero omitted, Abs format (unit mm)*
G04 Created by KiCad (PCBNEW 5.1.5+dfsg1-2build2) date 2021-05-19 21:40:19*
%MOMM*%
%LPD*%
G04 APERTURE LIST*
%ADD10C,2.200000*%
%ADD11O,1.000000X2.100000*%
%ADD12O,1.000000X1.600000*%
%ADD13C,7.400000*%
%ADD14C,0.800000*%
%ADD15C,0.600000*%
%ADD16C,0.200000*%
%ADD17C,0.400000*%
%ADD18C,0.300000*%
G04 APERTURE END LIST*
D10*
X166000000Y-63900000D03*
X161000000Y-61800000D03*
X148000000Y-63900000D03*
X143000000Y-61800000D03*
X256000000Y-63900000D03*
X251000000Y-61800000D03*
X256000000Y-114900000D03*
X251000000Y-112800000D03*
X256000000Y-131900000D03*
X251000000Y-129800000D03*
X256000000Y-97900000D03*
X251000000Y-95800000D03*
X256000000Y-80900000D03*
X251000000Y-78800000D03*
X238000000Y-131900000D03*
X233000000Y-129800000D03*
X238000000Y-114900000D03*
X233000000Y-112800000D03*
X238000000Y-97900000D03*
X233000000Y-95800000D03*
X238000000Y-80900000D03*
X233000000Y-78800000D03*
X238000000Y-63900000D03*
X233000000Y-61800000D03*
X220000000Y-131900000D03*
X215000000Y-129800000D03*
X220000000Y-114900000D03*
X215000000Y-112800000D03*
X220000000Y-97900000D03*
X215000000Y-95800000D03*
X220000000Y-80900000D03*
X215000000Y-78800000D03*
X220000000Y-63900000D03*
X215000000Y-61800000D03*
X202000000Y-131900000D03*
X197000000Y-129800000D03*
X202000000Y-114900000D03*
X197000000Y-112800000D03*
X202000000Y-97900000D03*
X197000000Y-95800000D03*
X202000000Y-80900000D03*
X197000000Y-78800000D03*
X202000000Y-63900000D03*
X197000000Y-61800000D03*
X184000000Y-131900000D03*
X179000000Y-129800000D03*
X184000000Y-114900000D03*
X179000000Y-112800000D03*
X184000000Y-97900000D03*
X179000000Y-95800000D03*
X184000000Y-80900000D03*
X179000000Y-78800000D03*
X184000000Y-63900000D03*
X179000000Y-61800000D03*
X166000000Y-131900000D03*
X161000000Y-129800000D03*
X166000000Y-114900000D03*
X161000000Y-112800000D03*
X166000000Y-97900000D03*
X161000000Y-95800000D03*
X166000000Y-80900000D03*
X161000000Y-78800000D03*
X148000000Y-131900000D03*
X143000000Y-129800000D03*
X148000000Y-114900000D03*
X143000000Y-112800000D03*
X148000000Y-97900000D03*
X143000000Y-95800000D03*
X148000000Y-80900000D03*
X143000000Y-78800000D03*
X130000000Y-131900000D03*
X125000000Y-129800000D03*
X130000000Y-114900000D03*
X125000000Y-112800000D03*
X130000000Y-97900000D03*
X125000000Y-95800000D03*
X130000000Y-80900000D03*
X125000000Y-78800000D03*
X130000000Y-63900000D03*
X125000000Y-61800000D03*
X112000000Y-131900000D03*
X107000000Y-129800000D03*
X112000000Y-114900000D03*
X107000000Y-112800000D03*
X112000000Y-97900000D03*
X107000000Y-95800000D03*
X112000000Y-80900000D03*
X107000000Y-78800000D03*
X112000000Y-63900000D03*
X107000000Y-61800000D03*
X94000000Y-131900000D03*
X89000000Y-129800000D03*
X94000000Y-114900000D03*
X89000000Y-112800000D03*
X94000000Y-97900000D03*
X89000000Y-95800000D03*
X94000000Y-80900000D03*
X89000000Y-78800000D03*
X94000000Y-63900000D03*
X89000000Y-61800000D03*
X76000000Y-131900000D03*
X71000000Y-129800000D03*
X76000000Y-114900000D03*
X71000000Y-112800000D03*
X76000000Y-97900000D03*
X71000000Y-95800000D03*
X76000000Y-80900000D03*
X71000000Y-78800000D03*
X76000000Y-63900000D03*
X71000000Y-61800000D03*
X58000000Y-131900000D03*
X53000000Y-129800000D03*
X58000000Y-114900000D03*
X53000000Y-112800000D03*
X58000000Y-97900000D03*
X53000000Y-95800000D03*
X58000000Y-80900000D03*
X53000000Y-78800000D03*
X58000000Y-63900000D03*
X53000000Y-61800000D03*
D11*
X152680000Y-56835000D03*
X161320000Y-56835000D03*
D12*
X152680000Y-52655000D03*
X161320000Y-52655000D03*
D13*
X247000000Y-66500000D03*
X211000000Y-83500000D03*
X103000000Y-83500000D03*
X67000000Y-66500000D03*
D14*
X155600000Y-67000000D03*
X158400000Y-67000000D03*
X157000000Y-65600000D03*
X157000000Y-68400000D03*
X154899996Y-62800000D03*
X157099996Y-61010190D03*
X154250000Y-71250000D03*
D15*
X211000000Y-63000000D03*
X152700000Y-64700000D03*
X152900000Y-69400000D03*
X156300000Y-71600000D03*
X156550000Y-62650002D03*
X161300000Y-63600000D03*
X156800000Y-88742462D03*
X158600000Y-71200000D03*
X159250000Y-71750000D03*
X157400000Y-101742462D03*
X158000000Y-118742462D03*
X160000000Y-71200000D03*
X158742462Y-122257538D03*
X160750000Y-71750000D03*
D14*
X162099999Y-67800001D03*
X154412661Y-64605972D03*
X155039370Y-63826703D03*
X157300000Y-63200000D03*
X158788939Y-63364648D03*
X159488258Y-64185982D03*
D16*
X155350000Y-62800000D02*
X157099996Y-61050004D01*
X157099996Y-61050004D02*
X157099996Y-61010190D01*
X154899996Y-62800000D02*
X155350000Y-62800000D01*
D17*
X157000000Y-68400000D02*
X154250000Y-71150000D01*
X154250000Y-71150000D02*
X154250000Y-71250000D01*
X157000000Y-65600000D02*
X155999989Y-64599989D01*
X155999989Y-64599989D02*
X155999989Y-63334308D01*
X155999989Y-63334308D02*
X155465681Y-62800000D01*
X155465681Y-62800000D02*
X154899996Y-62800000D01*
X72345000Y-52655000D02*
X152680000Y-52655000D01*
X67000000Y-58000000D02*
X72345000Y-52655000D01*
X67000000Y-66500000D02*
X67000000Y-58000000D01*
X211000000Y-83500000D02*
X211000000Y-63000000D01*
X103000000Y-83500000D02*
X103000000Y-52655000D01*
D18*
X152700000Y-69200000D02*
X152900000Y-69400000D01*
X152700000Y-64700000D02*
X152700000Y-69200000D01*
X156300000Y-71600000D02*
X155850000Y-72050000D01*
X155850000Y-72050000D02*
X153750000Y-72050000D01*
X152900000Y-71200000D02*
X152900000Y-69400000D01*
X153750000Y-72050000D02*
X152900000Y-71200000D01*
X156550000Y-62650002D02*
X156550000Y-63750000D01*
X156550000Y-63750000D02*
X157900000Y-65100000D01*
X157900000Y-65100000D02*
X157900000Y-66150000D01*
X154650000Y-69400000D02*
X152900000Y-69400000D01*
X157900000Y-66150000D02*
X154650000Y-69400000D01*
D16*
X158750000Y-66150000D02*
X157900000Y-66150000D01*
X161300000Y-63600000D02*
X158750000Y-66150000D01*
X156800000Y-73000000D02*
X158600000Y-71200000D01*
X156800000Y-88742462D02*
X156800000Y-73000000D01*
X157400000Y-101318198D02*
X157400000Y-101742462D01*
X157400000Y-73600000D02*
X157400000Y-101318198D01*
X159250000Y-71750000D02*
X157400000Y-73600000D01*
X158000000Y-74000000D02*
X160000000Y-72000000D01*
X160000000Y-71624264D02*
X160000000Y-71200000D01*
X158000000Y-118742462D02*
X158000000Y-74000000D01*
X160000000Y-72000000D02*
X160000000Y-71624264D01*
X160750000Y-71750000D02*
X160750000Y-72315700D01*
X160750000Y-72315700D02*
X158742462Y-74323238D01*
X158742462Y-74323238D02*
X158742462Y-121691853D01*
X158742462Y-121691853D02*
X158742462Y-122257538D01*
X54099999Y-77700001D02*
X53000000Y-78800000D01*
X54099999Y-62899999D02*
X54099999Y-77700001D01*
X53000000Y-61800000D02*
X54099999Y-62899999D01*
X54099999Y-94700001D02*
X53000000Y-95800000D01*
X54099999Y-79899999D02*
X54099999Y-94700001D01*
X53000000Y-78800000D02*
X54099999Y-79899999D01*
X54099999Y-111700001D02*
X53000000Y-112800000D01*
X54099999Y-96899999D02*
X54099999Y-111700001D01*
X53000000Y-95800000D02*
X54099999Y-96899999D01*
X54099999Y-128700001D02*
X53000000Y-129800000D01*
X54099999Y-113899999D02*
X54099999Y-128700001D01*
X53000000Y-112800000D02*
X54099999Y-113899999D01*
X72099999Y-77700001D02*
X71000000Y-78800000D01*
X72099999Y-79899999D02*
X72099999Y-94700001D01*
X71000000Y-112800000D02*
X72099999Y-113899999D01*
X71000000Y-78800000D02*
X72099999Y-79899999D01*
X72099999Y-94700001D02*
X71000000Y-95800000D01*
X72099999Y-62899999D02*
X72099999Y-77700001D01*
X72099999Y-111700001D02*
X71000000Y-112800000D01*
X71000000Y-95800000D02*
X72099999Y-96899999D01*
X71000000Y-61800000D02*
X72099999Y-62899999D01*
X72099999Y-96899999D02*
X72099999Y-111700001D01*
X72099999Y-128700001D02*
X71000000Y-129800000D01*
X72099999Y-113899999D02*
X72099999Y-128700001D01*
X90099999Y-77700001D02*
X89000000Y-78800000D01*
X90099999Y-79899999D02*
X90099999Y-94700001D01*
X89000000Y-112800000D02*
X90099999Y-113899999D01*
X89000000Y-78800000D02*
X90099999Y-79899999D01*
X90099999Y-94700001D02*
X89000000Y-95800000D01*
X90099999Y-62899999D02*
X90099999Y-77700001D01*
X90099999Y-111700001D02*
X89000000Y-112800000D01*
X89000000Y-95800000D02*
X90099999Y-96899999D01*
X89000000Y-61800000D02*
X90099999Y-62899999D01*
X90099999Y-96899999D02*
X90099999Y-111700001D01*
X90099999Y-128700001D02*
X89000000Y-129800000D01*
X90099999Y-113899999D02*
X90099999Y-128700001D01*
X108099999Y-77700001D02*
X107000000Y-78800000D01*
X108099999Y-79899999D02*
X108099999Y-94700001D01*
X107000000Y-112800000D02*
X108099999Y-113899999D01*
X107000000Y-78800000D02*
X108099999Y-79899999D01*
X108099999Y-94700001D02*
X107000000Y-95800000D01*
X108099999Y-62899999D02*
X108099999Y-77700001D01*
X108099999Y-111700001D02*
X107000000Y-112800000D01*
X107000000Y-95800000D02*
X108099999Y-96899999D01*
X107000000Y-61800000D02*
X108099999Y-62899999D01*
X108099999Y-96899999D02*
X108099999Y-111700001D01*
X108099999Y-128700001D02*
X107000000Y-129800000D01*
X108099999Y-113899999D02*
X108099999Y-128700001D01*
X126099999Y-77700001D02*
X125000000Y-78800000D01*
X126099999Y-79899999D02*
X126099999Y-94700001D01*
X125000000Y-112800000D02*
X126099999Y-113899999D01*
X125000000Y-78800000D02*
X126099999Y-79899999D01*
X126099999Y-94700001D02*
X125000000Y-95800000D01*
X126099999Y-62899999D02*
X126099999Y-77700001D01*
X126099999Y-111700001D02*
X125000000Y-112800000D01*
X125000000Y-95800000D02*
X126099999Y-96899999D01*
X125000000Y-61800000D02*
X126099999Y-62899999D01*
X126099999Y-96899999D02*
X126099999Y-111700001D01*
X126099999Y-128700001D02*
X125000000Y-129800000D01*
X126099999Y-113899999D02*
X126099999Y-128700001D01*
X144099999Y-77700001D02*
X143000000Y-78800000D01*
X144099999Y-79899999D02*
X144099999Y-94700001D01*
X143000000Y-112800000D02*
X144099999Y-113899999D01*
X143000000Y-78800000D02*
X144099999Y-79899999D01*
X144099999Y-94700001D02*
X143000000Y-95800000D01*
X144099999Y-62899999D02*
X144099999Y-77700001D01*
X144099999Y-111700001D02*
X143000000Y-112800000D01*
X143000000Y-95800000D02*
X144099999Y-96899999D01*
X143000000Y-61800000D02*
X144099999Y-62899999D01*
X144099999Y-96899999D02*
X144099999Y-111700001D01*
X144099999Y-128700001D02*
X143000000Y-129800000D01*
X144099999Y-113899999D02*
X144099999Y-128700001D01*
X162099999Y-77700001D02*
X161000000Y-78800000D01*
X162099999Y-79899999D02*
X162099999Y-94700001D01*
X161000000Y-112800000D02*
X162099999Y-113899999D01*
X161000000Y-78800000D02*
X162099999Y-79899999D01*
X162099999Y-94700001D02*
X161000000Y-95800000D01*
X162099999Y-62899999D02*
X162099999Y-67800001D01*
X162099999Y-111700001D02*
X161000000Y-112800000D01*
X161000000Y-95800000D02*
X162099999Y-96899999D01*
X161000000Y-61800000D02*
X162099999Y-62899999D01*
X162099999Y-96899999D02*
X162099999Y-111700001D01*
X162099999Y-128700001D02*
X161000000Y-129800000D01*
X162099999Y-113899999D02*
X162099999Y-128700001D01*
X162099999Y-67800001D02*
X162099999Y-77700001D01*
X180099999Y-77700001D02*
X179000000Y-78800000D01*
X180099999Y-79899999D02*
X180099999Y-94700001D01*
X179000000Y-112800000D02*
X180099999Y-113899999D01*
X179000000Y-78800000D02*
X180099999Y-79899999D01*
X180099999Y-94700001D02*
X179000000Y-95800000D01*
X180099999Y-62899999D02*
X180099999Y-77700001D01*
X180099999Y-111700001D02*
X179000000Y-112800000D01*
X179000000Y-95800000D02*
X180099999Y-96899999D01*
X179000000Y-61800000D02*
X180099999Y-62899999D01*
X180099999Y-96899999D02*
X180099999Y-111700001D01*
X180099999Y-128700001D02*
X179000000Y-129800000D01*
X180099999Y-113899999D02*
X180099999Y-128700001D01*
X198099999Y-77700001D02*
X197000000Y-78800000D01*
X198099999Y-79899999D02*
X198099999Y-94700001D01*
X197000000Y-112800000D02*
X198099999Y-113899999D01*
X197000000Y-78800000D02*
X198099999Y-79899999D01*
X198099999Y-94700001D02*
X197000000Y-95800000D01*
X198099999Y-62899999D02*
X198099999Y-77700001D01*
X198099999Y-111700001D02*
X197000000Y-112800000D01*
X197000000Y-95800000D02*
X198099999Y-96899999D01*
X197000000Y-61800000D02*
X198099999Y-62899999D01*
X198099999Y-96899999D02*
X198099999Y-111700001D01*
X198099999Y-128700001D02*
X197000000Y-129800000D01*
X198099999Y-113899999D02*
X198099999Y-128700001D01*
X216099999Y-77700001D02*
X215000000Y-78800000D01*
X216099999Y-79899999D02*
X216099999Y-94700001D01*
X215000000Y-112800000D02*
X216099999Y-113899999D01*
X215000000Y-78800000D02*
X216099999Y-79899999D01*
X216099999Y-94700001D02*
X215000000Y-95800000D01*
X216099999Y-62899999D02*
X216099999Y-77700001D01*
X216099999Y-111700001D02*
X215000000Y-112800000D01*
X215000000Y-95800000D02*
X216099999Y-96899999D01*
X215000000Y-61800000D02*
X216099999Y-62899999D01*
X216099999Y-96899999D02*
X216099999Y-111700001D01*
X216099999Y-128700001D02*
X215000000Y-129800000D01*
X216099999Y-113899999D02*
X216099999Y-128700001D01*
X234099999Y-77700001D02*
X233000000Y-78800000D01*
X234099999Y-79899999D02*
X234099999Y-94700001D01*
X233000000Y-112800000D02*
X234099999Y-113899999D01*
X233000000Y-78800000D02*
X234099999Y-79899999D01*
X234099999Y-94700001D02*
X233000000Y-95800000D01*
X234099999Y-62899999D02*
X234099999Y-77700001D01*
X234099999Y-111700001D02*
X233000000Y-112800000D01*
X233000000Y-95800000D02*
X234099999Y-96899999D01*
X233000000Y-61800000D02*
X234099999Y-62899999D01*
X234099999Y-96899999D02*
X234099999Y-111700001D01*
X234099999Y-128700001D02*
X233000000Y-129800000D01*
X234099999Y-113899999D02*
X234099999Y-128700001D01*
X159488258Y-63620297D02*
X159488940Y-63619615D01*
X177900001Y-60700001D02*
X179000000Y-61800000D01*
X177550044Y-60350044D02*
X177900001Y-60700001D01*
X159488258Y-64185982D02*
X159488258Y-63620297D01*
X159488940Y-63619615D02*
X159488940Y-61239058D01*
X160377954Y-60350044D02*
X177550044Y-60350044D01*
X159488940Y-61239058D02*
X160377954Y-60350044D01*
X163700033Y-58497067D02*
X163700033Y-57297067D01*
X171997067Y-55700033D02*
X190900033Y-55700033D01*
X171297067Y-56400033D02*
X171997067Y-55700033D01*
X158788939Y-61373359D02*
X160212265Y-59950033D01*
X158788939Y-63364648D02*
X158788939Y-61373359D01*
X167100000Y-55850000D02*
X167650033Y-56400033D01*
X162247067Y-59950033D02*
X163700033Y-58497067D01*
X163700033Y-57297067D02*
X165147100Y-55850000D01*
X190900033Y-55700033D02*
X195900001Y-60700001D01*
X167650033Y-56400033D02*
X171297067Y-56400033D01*
X195900001Y-60700001D02*
X197000000Y-61800000D01*
X165147100Y-55850000D02*
X167100000Y-55850000D01*
X160212265Y-59950033D02*
X162247067Y-59950033D01*
X167815722Y-56000022D02*
X171131378Y-56000022D01*
X171131378Y-56000022D02*
X171831378Y-55300022D01*
X157300000Y-62181400D02*
X159931378Y-59550022D01*
X159931378Y-59550022D02*
X162081378Y-59550022D01*
X164981411Y-55449989D02*
X167265689Y-55449989D01*
X167265689Y-55449989D02*
X167815722Y-56000022D01*
X171831378Y-55300022D02*
X208500022Y-55300022D01*
X208500022Y-55300022D02*
X213900001Y-60700001D01*
X163300022Y-57131378D02*
X164981411Y-55449989D01*
X163300022Y-58331378D02*
X163300022Y-57131378D01*
X213900001Y-60700001D02*
X215000000Y-61800000D01*
X157300000Y-63200000D02*
X157300000Y-62181400D01*
X162081378Y-59550022D02*
X163300022Y-58331378D01*
X154150011Y-63503029D02*
X154150011Y-62515689D01*
X155039370Y-63826703D02*
X154473685Y-63826703D01*
X156415689Y-60250011D02*
X158665689Y-60250011D01*
X167431378Y-55049978D02*
X167981411Y-55600011D01*
X167981411Y-55600011D02*
X170965689Y-55600011D01*
X161915689Y-59150011D02*
X162900011Y-58165689D01*
X154473685Y-63826703D02*
X154150011Y-63503029D01*
X158665689Y-60250011D02*
X159765689Y-59150011D01*
X164815722Y-55049978D02*
X167431378Y-55049978D01*
X162900011Y-56965689D02*
X164815722Y-55049978D01*
X171665689Y-54900011D02*
X226100011Y-54900011D01*
X226100011Y-54900011D02*
X231900001Y-60700001D01*
X170965689Y-55600011D02*
X171665689Y-54900011D01*
X231900001Y-60700001D02*
X233000000Y-61800000D01*
X154150011Y-62515689D02*
X156415689Y-60250011D01*
X159765689Y-59150011D02*
X161915689Y-59150011D01*
X162900011Y-58165689D02*
X162900011Y-56965689D01*
X252099999Y-77700001D02*
X251000000Y-78800000D01*
X252099999Y-79899999D02*
X252099999Y-94700001D01*
X251000000Y-112800000D02*
X252099999Y-113899999D01*
X251000000Y-78800000D02*
X252099999Y-79899999D01*
X252099999Y-94700001D02*
X251000000Y-95800000D01*
X252099999Y-62899999D02*
X252099999Y-77700001D01*
X252099999Y-111700001D02*
X251000000Y-112800000D01*
X251000000Y-95800000D02*
X252099999Y-96899999D01*
X251000000Y-61800000D02*
X252099999Y-62899999D01*
X252099999Y-96899999D02*
X252099999Y-111700001D01*
X252099999Y-128700001D02*
X251000000Y-129800000D01*
X252099999Y-113899999D02*
X252099999Y-128700001D01*
X249900001Y-60700001D02*
X251000000Y-61800000D01*
X243700000Y-54500000D02*
X249900001Y-60700001D01*
X170800000Y-55200000D02*
X171500000Y-54500000D01*
X171500000Y-54500000D02*
X243700000Y-54500000D01*
X154412661Y-64605972D02*
X153750000Y-63943311D01*
X162500000Y-58000000D02*
X162500000Y-56800000D01*
X159600000Y-58750000D02*
X161750000Y-58750000D01*
X164650033Y-54649967D02*
X167597067Y-54649967D01*
X153750000Y-63943311D02*
X153750000Y-62350000D01*
X158500000Y-59850000D02*
X159600000Y-58750000D01*
X153750000Y-62350000D02*
X156250000Y-59850000D01*
X161750000Y-58750000D02*
X162500000Y-58000000D01*
X162500000Y-56800000D02*
X164650033Y-54649967D01*
X167597067Y-54649967D02*
X168147100Y-55200000D01*
X156250000Y-59850000D02*
X158500000Y-59850000D01*
X168147100Y-55200000D02*
X170800000Y-55200000D01*
M02*
