M48
; DRILL file {KiCad 5.1.5+dfsg1-2build2} date Sun 19 Dec 2021 02:20:26 AM CET
; FORMAT={-:-/ absolute / metric / decimal}
; #@! TF.CreationDate,2021-12-19T02:20:26+01:00
; #@! TF.GenerationSoftware,Kicad,Pcbnew,5.1.5+dfsg1-2build2
; #@! TF.FileFunction,NonPlated,1,2,NPTH
FMAT,2
METRIC
T1C0.650
T2C0.986
T3C0.988
T4C1.850
T5C3.400
%
G90
G05
T1
X154.11Y-56.305
X159.89Y-56.305
T2
X168.79Y-52.169
X168.79Y-54.201
T3
X163.71Y-53.185
T4
X250.5Y-75.0
X261.5Y-75.0
X70.5Y-58.0
X81.5Y-58.0
X178.5Y-126.0
X189.5Y-126.0
X124.5Y-92.0
X135.5Y-92.0
X160.5Y-109.0
X171.5Y-109.0
X214.5Y-109.0
X225.5Y-109.0
X196.5Y-126.0
X207.5Y-126.0
X88.5Y-109.0
X99.5Y-109.0
X88.5Y-58.0
X99.5Y-58.0
X250.5Y-126.0
X261.5Y-126.0
X142.5Y-92.0
X153.5Y-92.0
X52.5Y-58.0
X63.5Y-58.0
X214.5Y-58.0
X225.5Y-58.0
X178.5Y-58.0
X189.5Y-58.0
X232.5Y-109.0
X243.5Y-109.0
X196.5Y-75.0
X207.5Y-75.0
X214.5Y-92.0
X225.5Y-92.0
X124.5Y-109.0
X135.5Y-109.0
X196.5Y-109.0
X207.5Y-109.0
X196.5Y-92.0
X207.5Y-92.0
X232.5Y-92.0
X243.5Y-92.0
X142.5Y-109.0
X153.5Y-109.0
X106.5Y-75.0
X117.5Y-75.0
X88.5Y-75.0
X99.5Y-75.0
X232.5Y-58.0
X243.5Y-58.0
X124.5Y-58.0
X135.5Y-58.0
X106.5Y-126.0
X117.5Y-126.0
X106.5Y-92.0
X117.5Y-92.0
X142.5Y-75.0
X153.5Y-75.0
X196.5Y-58.0
X207.5Y-58.0
X142.5Y-126.0
X153.5Y-126.0
X178.5Y-92.0
X189.5Y-92.0
X250.5Y-58.0
X261.5Y-58.0
X178.5Y-75.0
X189.5Y-75.0
X178.5Y-109.0
X189.5Y-109.0
X214.5Y-126.0
X225.5Y-126.0
X171.5Y-58.0
X232.5Y-75.0
X243.5Y-75.0
X250.5Y-109.0
X261.5Y-109.0
X124.5Y-75.0
X135.5Y-75.0
X70.5Y-126.0
X81.5Y-126.0
X160.5Y-75.0
X171.5Y-75.0
X52.5Y-75.0
X63.5Y-75.0
X232.5Y-126.0
X243.5Y-126.0
X106.5Y-109.0
X117.5Y-109.0
X52.5Y-109.0
X63.5Y-109.0
X88.5Y-92.0
X99.5Y-92.0
X52.5Y-126.0
X63.5Y-126.0
X124.5Y-126.0
X135.5Y-126.0
X70.5Y-75.0
X81.5Y-75.0
X88.5Y-126.0
X99.5Y-126.0
X70.5Y-109.0
X81.5Y-109.0
X250.5Y-92.0
X261.5Y-92.0
X214.5Y-75.0
X225.5Y-75.0
X106.5Y-58.0
X117.5Y-58.0
X160.5Y-92.0
X171.5Y-92.0
X52.5Y-92.0
X63.5Y-92.0
X142.5Y-58.0
X160.5Y-126.0
X171.5Y-126.0
X70.5Y-92.0
X81.5Y-92.0
T5
X148.0Y-58.0
X166.0Y-126.0
X76.0Y-92.0
X256.0Y-75.0
X76.0Y-58.0
X184.0Y-126.0
X130.0Y-92.0
X166.0Y-109.0
X220.0Y-109.0
X202.0Y-126.0
X94.0Y-109.0
X94.0Y-58.0
X256.0Y-126.0
X148.0Y-92.0
X58.0Y-58.0
X220.0Y-58.0
X184.0Y-58.0
X238.0Y-109.0
X202.0Y-75.0
X220.0Y-92.0
X130.0Y-109.0
X202.0Y-109.0
X202.0Y-92.0
X238.0Y-92.0
X148.0Y-109.0
X112.0Y-75.0
X94.0Y-75.0
X238.0Y-58.0
X130.0Y-58.0
X112.0Y-126.0
X112.0Y-92.0
X148.0Y-75.0
X202.0Y-58.0
X148.0Y-126.0
X184.0Y-92.0
X256.0Y-58.0
X184.0Y-75.0
X184.0Y-109.0
X220.0Y-126.0
X166.0Y-58.0
X238.0Y-75.0
X256.0Y-109.0
X130.0Y-75.0
X76.0Y-126.0
X166.0Y-75.0
X58.0Y-75.0
X238.0Y-126.0
X112.0Y-109.0
X58.0Y-109.0
X94.0Y-92.0
X58.0Y-126.0
X130.0Y-126.0
X76.0Y-75.0
X94.0Y-126.0
X76.0Y-109.0
X256.0Y-92.0
X220.0Y-75.0
X112.0Y-58.0
X166.0Y-92.0
X58.0Y-92.0
T0
M30
