G04 #@! TF.GenerationSoftware,KiCad,Pcbnew,5.1.5+dfsg1-2build2*
G04 #@! TF.CreationDate,2021-12-19T02:20:25+01:00*
G04 #@! TF.ProjectId,otterlinear-keyboard,6f747465-726c-4696-9e65-61722d6b6579,rev?*
G04 #@! TF.SameCoordinates,Original*
G04 #@! TF.FileFunction,Legend,Bot*
G04 #@! TF.FilePolarity,Positive*
%FSLAX46Y46*%
G04 Gerber Fmt 4.6, Leading zero omitted, Abs format (unit mm)*
G04 Created by KiCad (PCBNEW 5.1.5+dfsg1-2build2) date 2021-12-19 02:20:25*
%MOMM*%
%LPD*%
G04 APERTURE LIST*
%ADD10C,0.300000*%
%ADD11C,2.200000*%
%ADD12C,0.120000*%
%ADD13C,0.127000*%
%ADD14C,0.150000*%
%ADD15C,0.100000*%
G04 APERTURE END LIST*
D10*
X137464285Y-67678571D02*
X137464285Y-66178571D01*
X136821428Y-67678571D02*
X136821428Y-66892857D01*
X136892857Y-66750000D01*
X137035714Y-66678571D01*
X137250000Y-66678571D01*
X137392857Y-66750000D01*
X137464285Y-66821428D01*
X136321428Y-66678571D02*
X135750000Y-66678571D01*
X136107142Y-66178571D02*
X136107142Y-67464285D01*
X136035714Y-67607142D01*
X135892857Y-67678571D01*
X135750000Y-67678571D01*
X135464285Y-66678571D02*
X134892857Y-66678571D01*
X135250000Y-66178571D02*
X135250000Y-67464285D01*
X135178571Y-67607142D01*
X135035714Y-67678571D01*
X134892857Y-67678571D01*
X134392857Y-66678571D02*
X134392857Y-68178571D01*
X134392857Y-66750000D02*
X134250000Y-66678571D01*
X133964285Y-66678571D01*
X133821428Y-66750000D01*
X133750000Y-66821428D01*
X133678571Y-66964285D01*
X133678571Y-67392857D01*
X133750000Y-67535714D01*
X133821428Y-67607142D01*
X133964285Y-67678571D01*
X134250000Y-67678571D01*
X134392857Y-67607142D01*
X133107142Y-67607142D02*
X132964285Y-67678571D01*
X132678571Y-67678571D01*
X132535714Y-67607142D01*
X132464285Y-67464285D01*
X132464285Y-67392857D01*
X132535714Y-67250000D01*
X132678571Y-67178571D01*
X132892857Y-67178571D01*
X133035714Y-67107142D01*
X133107142Y-66964285D01*
X133107142Y-66892857D01*
X133035714Y-66750000D01*
X132892857Y-66678571D01*
X132678571Y-66678571D01*
X132535714Y-66750000D01*
X131821428Y-67535714D02*
X131750000Y-67607142D01*
X131821428Y-67678571D01*
X131892857Y-67607142D01*
X131821428Y-67535714D01*
X131821428Y-67678571D01*
X131821428Y-66750000D02*
X131750000Y-66821428D01*
X131821428Y-66892857D01*
X131892857Y-66821428D01*
X131821428Y-66750000D01*
X131821428Y-66892857D01*
X130035714Y-66107142D02*
X131321428Y-68035714D01*
X128464285Y-66107142D02*
X129750000Y-68035714D01*
X127321428Y-66678571D02*
X127321428Y-67892857D01*
X127392857Y-68035714D01*
X127464285Y-68107142D01*
X127607142Y-68178571D01*
X127821428Y-68178571D01*
X127964285Y-68107142D01*
X127321428Y-67607142D02*
X127464285Y-67678571D01*
X127749999Y-67678571D01*
X127892857Y-67607142D01*
X127964285Y-67535714D01*
X128035714Y-67392857D01*
X128035714Y-66964285D01*
X127964285Y-66821428D01*
X127892857Y-66750000D01*
X127749999Y-66678571D01*
X127464285Y-66678571D01*
X127321428Y-66750000D01*
X126607142Y-67678571D02*
X126607142Y-66678571D01*
X126607142Y-66178571D02*
X126678571Y-66250000D01*
X126607142Y-66321428D01*
X126535714Y-66250000D01*
X126607142Y-66178571D01*
X126607142Y-66321428D01*
X126107142Y-66678571D02*
X125535714Y-66678571D01*
X125892857Y-66178571D02*
X125892857Y-67464285D01*
X125821428Y-67607142D01*
X125678571Y-67678571D01*
X125535714Y-67678571D01*
X125035714Y-67678571D02*
X125035714Y-66178571D01*
X124392857Y-67678571D02*
X124392857Y-66892857D01*
X124464285Y-66750000D01*
X124607142Y-66678571D01*
X124821428Y-66678571D01*
X124964285Y-66750000D01*
X125035714Y-66821428D01*
X123035714Y-66678571D02*
X123035714Y-67678571D01*
X123678571Y-66678571D02*
X123678571Y-67464285D01*
X123607142Y-67607142D01*
X123464285Y-67678571D01*
X123249999Y-67678571D01*
X123107142Y-67607142D01*
X123035714Y-67535714D01*
X122321428Y-67678571D02*
X122321428Y-66178571D01*
X122321428Y-66750000D02*
X122178571Y-66678571D01*
X121892857Y-66678571D01*
X121749999Y-66750000D01*
X121678571Y-66821428D01*
X121607142Y-66964285D01*
X121607142Y-67392857D01*
X121678571Y-67535714D01*
X121749999Y-67607142D01*
X121892857Y-67678571D01*
X122178571Y-67678571D01*
X122321428Y-67607142D01*
X120964285Y-67535714D02*
X120892857Y-67607142D01*
X120964285Y-67678571D01*
X121035714Y-67607142D01*
X120964285Y-67535714D01*
X120964285Y-67678571D01*
X119607142Y-67607142D02*
X119749999Y-67678571D01*
X120035714Y-67678571D01*
X120178571Y-67607142D01*
X120249999Y-67535714D01*
X120321428Y-67392857D01*
X120321428Y-66964285D01*
X120249999Y-66821428D01*
X120178571Y-66750000D01*
X120035714Y-66678571D01*
X119749999Y-66678571D01*
X119607142Y-66750000D01*
X118749999Y-67678571D02*
X118892857Y-67607142D01*
X118964285Y-67535714D01*
X119035714Y-67392857D01*
X119035714Y-66964285D01*
X118964285Y-66821428D01*
X118892857Y-66750000D01*
X118749999Y-66678571D01*
X118535714Y-66678571D01*
X118392857Y-66750000D01*
X118321428Y-66821428D01*
X118249999Y-66964285D01*
X118249999Y-67392857D01*
X118321428Y-67535714D01*
X118392857Y-67607142D01*
X118535714Y-67678571D01*
X118749999Y-67678571D01*
X117607142Y-67678571D02*
X117607142Y-66678571D01*
X117607142Y-66821428D02*
X117535714Y-66750000D01*
X117392857Y-66678571D01*
X117178571Y-66678571D01*
X117035714Y-66750000D01*
X116964285Y-66892857D01*
X116964285Y-67678571D01*
X116964285Y-66892857D02*
X116892857Y-66750000D01*
X116749999Y-66678571D01*
X116535714Y-66678571D01*
X116392857Y-66750000D01*
X116321428Y-66892857D01*
X116321428Y-67678571D01*
X114535714Y-66107142D02*
X115821428Y-68035714D01*
X113607142Y-66178571D02*
X113607142Y-67250000D01*
X113678571Y-67464285D01*
X113821428Y-67607142D01*
X114035714Y-67678571D01*
X114178571Y-67678571D01*
X112249999Y-67678571D02*
X112249999Y-66892857D01*
X112321428Y-66750000D01*
X112464285Y-66678571D01*
X112749999Y-66678571D01*
X112892857Y-66750000D01*
X112249999Y-67607142D02*
X112392857Y-67678571D01*
X112749999Y-67678571D01*
X112892857Y-67607142D01*
X112964285Y-67464285D01*
X112964285Y-67321428D01*
X112892857Y-67178571D01*
X112749999Y-67107142D01*
X112392857Y-67107142D01*
X112249999Y-67035714D01*
X111535714Y-66678571D02*
X111535714Y-67678571D01*
X111535714Y-66821428D02*
X111464285Y-66750000D01*
X111321428Y-66678571D01*
X111107142Y-66678571D01*
X110964285Y-66750000D01*
X110892857Y-66892857D01*
X110892857Y-67678571D01*
X109535714Y-67678571D02*
X109535714Y-66892857D01*
X109607142Y-66750000D01*
X109749999Y-66678571D01*
X110035714Y-66678571D01*
X110178571Y-66750000D01*
X109535714Y-67607142D02*
X109678571Y-67678571D01*
X110035714Y-67678571D01*
X110178571Y-67607142D01*
X110249999Y-67464285D01*
X110249999Y-67321428D01*
X110178571Y-67178571D01*
X110035714Y-67107142D01*
X109678571Y-67107142D01*
X109535714Y-67035714D01*
X108821428Y-67107142D02*
X107678571Y-67107142D01*
X106964285Y-67678571D02*
X106964285Y-66178571D01*
X106464285Y-67250000D01*
X105964285Y-66178571D01*
X105964285Y-67678571D01*
X104607142Y-67678571D02*
X104607142Y-66892857D01*
X104678571Y-66750000D01*
X104821428Y-66678571D01*
X105107142Y-66678571D01*
X105249999Y-66750000D01*
X104607142Y-67607142D02*
X104749999Y-67678571D01*
X105107142Y-67678571D01*
X105249999Y-67607142D01*
X105321428Y-67464285D01*
X105321428Y-67321428D01*
X105249999Y-67178571D01*
X105107142Y-67107142D01*
X104749999Y-67107142D01*
X104607142Y-67035714D01*
X103892857Y-67678571D02*
X103892857Y-66678571D01*
X103892857Y-66964285D02*
X103821428Y-66821428D01*
X103749999Y-66750000D01*
X103607142Y-66678571D01*
X103464285Y-66678571D01*
X102964285Y-67678571D02*
X102964285Y-66678571D01*
X102964285Y-66178571D02*
X103035714Y-66250000D01*
X102964285Y-66321428D01*
X102892857Y-66250000D01*
X102964285Y-66178571D01*
X102964285Y-66321428D01*
X101678571Y-67607142D02*
X101821428Y-67678571D01*
X102107142Y-67678571D01*
X102249999Y-67607142D01*
X102321428Y-67464285D01*
X102321428Y-66892857D01*
X102249999Y-66750000D01*
X102107142Y-66678571D01*
X101821428Y-66678571D01*
X101678571Y-66750000D01*
X101607142Y-66892857D01*
X101607142Y-67035714D01*
X102321428Y-67178571D01*
X99892857Y-66107142D02*
X101178571Y-68035714D01*
X99178571Y-67678571D02*
X99321428Y-67607142D01*
X99392857Y-67535714D01*
X99464285Y-67392857D01*
X99464285Y-66964285D01*
X99392857Y-66821428D01*
X99321428Y-66750000D01*
X99178571Y-66678571D01*
X98964285Y-66678571D01*
X98821428Y-66750000D01*
X98749999Y-66821428D01*
X98678571Y-66964285D01*
X98678571Y-67392857D01*
X98749999Y-67535714D01*
X98821428Y-67607142D01*
X98964285Y-67678571D01*
X99178571Y-67678571D01*
X98249999Y-66678571D02*
X97678571Y-66678571D01*
X98035714Y-66178571D02*
X98035714Y-67464285D01*
X97964285Y-67607142D01*
X97821428Y-67678571D01*
X97678571Y-67678571D01*
X97392857Y-66678571D02*
X96821428Y-66678571D01*
X97178571Y-66178571D02*
X97178571Y-67464285D01*
X97107142Y-67607142D01*
X96964285Y-67678571D01*
X96821428Y-67678571D01*
X95749999Y-67607142D02*
X95892857Y-67678571D01*
X96178571Y-67678571D01*
X96321428Y-67607142D01*
X96392857Y-67464285D01*
X96392857Y-66892857D01*
X96321428Y-66750000D01*
X96178571Y-66678571D01*
X95892857Y-66678571D01*
X95749999Y-66750000D01*
X95678571Y-66892857D01*
X95678571Y-67035714D01*
X96392857Y-67178571D01*
X95035714Y-67678571D02*
X95035714Y-66678571D01*
X95035714Y-66964285D02*
X94964285Y-66821428D01*
X94892857Y-66750000D01*
X94749999Y-66678571D01*
X94607142Y-66678571D01*
X93892857Y-67678571D02*
X94035714Y-67607142D01*
X94107142Y-67464285D01*
X94107142Y-66178571D01*
X93321428Y-67678571D02*
X93321428Y-66678571D01*
X93321428Y-66178571D02*
X93392857Y-66250000D01*
X93321428Y-66321428D01*
X93249999Y-66250000D01*
X93321428Y-66178571D01*
X93321428Y-66321428D01*
X92607142Y-66678571D02*
X92607142Y-67678571D01*
X92607142Y-66821428D02*
X92535714Y-66750000D01*
X92392857Y-66678571D01*
X92178571Y-66678571D01*
X92035714Y-66750000D01*
X91964285Y-66892857D01*
X91964285Y-67678571D01*
X90678571Y-67607142D02*
X90821428Y-67678571D01*
X91107142Y-67678571D01*
X91249999Y-67607142D01*
X91321428Y-67464285D01*
X91321428Y-66892857D01*
X91249999Y-66750000D01*
X91107142Y-66678571D01*
X90821428Y-66678571D01*
X90678571Y-66750000D01*
X90607142Y-66892857D01*
X90607142Y-67035714D01*
X91321428Y-67178571D01*
X89321428Y-67678571D02*
X89321428Y-66892857D01*
X89392857Y-66750000D01*
X89535714Y-66678571D01*
X89821428Y-66678571D01*
X89964285Y-66750000D01*
X89321428Y-67607142D02*
X89464285Y-67678571D01*
X89821428Y-67678571D01*
X89964285Y-67607142D01*
X90035714Y-67464285D01*
X90035714Y-67321428D01*
X89964285Y-67178571D01*
X89821428Y-67107142D01*
X89464285Y-67107142D01*
X89321428Y-67035714D01*
X88607142Y-67678571D02*
X88607142Y-66678571D01*
X88607142Y-66964285D02*
X88535714Y-66821428D01*
X88464285Y-66750000D01*
X88321428Y-66678571D01*
X88178571Y-66678571D01*
X87678571Y-67107142D02*
X86535714Y-67107142D01*
X85821428Y-67678571D02*
X85821428Y-66178571D01*
X85678571Y-67107142D02*
X85249999Y-67678571D01*
X85249999Y-66678571D02*
X85821428Y-67250000D01*
X84035714Y-67607142D02*
X84178571Y-67678571D01*
X84464285Y-67678571D01*
X84607142Y-67607142D01*
X84678571Y-67464285D01*
X84678571Y-66892857D01*
X84607142Y-66750000D01*
X84464285Y-66678571D01*
X84178571Y-66678571D01*
X84035714Y-66750000D01*
X83964285Y-66892857D01*
X83964285Y-67035714D01*
X84678571Y-67178571D01*
X83464285Y-66678571D02*
X83107142Y-67678571D01*
X82749999Y-66678571D02*
X83107142Y-67678571D01*
X83249999Y-68035714D01*
X83321428Y-68107142D01*
X83464285Y-68178571D01*
X82178571Y-67678571D02*
X82178571Y-66178571D01*
X82178571Y-66750000D02*
X82035714Y-66678571D01*
X81749999Y-66678571D01*
X81607142Y-66750000D01*
X81535714Y-66821428D01*
X81464285Y-66964285D01*
X81464285Y-67392857D01*
X81535714Y-67535714D01*
X81607142Y-67607142D01*
X81749999Y-67678571D01*
X82035714Y-67678571D01*
X82178571Y-67607142D01*
X80607142Y-67678571D02*
X80749999Y-67607142D01*
X80821428Y-67535714D01*
X80892857Y-67392857D01*
X80892857Y-66964285D01*
X80821428Y-66821428D01*
X80749999Y-66750000D01*
X80607142Y-66678571D01*
X80392857Y-66678571D01*
X80249999Y-66750000D01*
X80178571Y-66821428D01*
X80107142Y-66964285D01*
X80107142Y-67392857D01*
X80178571Y-67535714D01*
X80249999Y-67607142D01*
X80392857Y-67678571D01*
X80607142Y-67678571D01*
X78821428Y-67678571D02*
X78821428Y-66892857D01*
X78892857Y-66750000D01*
X79035714Y-66678571D01*
X79321428Y-66678571D01*
X79464285Y-66750000D01*
X78821428Y-67607142D02*
X78964285Y-67678571D01*
X79321428Y-67678571D01*
X79464285Y-67607142D01*
X79535714Y-67464285D01*
X79535714Y-67321428D01*
X79464285Y-67178571D01*
X79321428Y-67107142D01*
X78964285Y-67107142D01*
X78821428Y-67035714D01*
X78107142Y-67678571D02*
X78107142Y-66678571D01*
X78107142Y-66964285D02*
X78035714Y-66821428D01*
X77964285Y-66750000D01*
X77821428Y-66678571D01*
X77678571Y-66678571D01*
X76535714Y-67678571D02*
X76535714Y-66178571D01*
X76535714Y-67607142D02*
X76678571Y-67678571D01*
X76964285Y-67678571D01*
X77107142Y-67607142D01*
X77178571Y-67535714D01*
X77249999Y-67392857D01*
X77249999Y-66964285D01*
X77178571Y-66821428D01*
X77107142Y-66750000D01*
X76964285Y-66678571D01*
X76678571Y-66678571D01*
X76535714Y-66750000D01*
X234964285Y-66178571D02*
X234678571Y-66178571D01*
X234535714Y-66250000D01*
X234392857Y-66392857D01*
X234321428Y-66678571D01*
X234321428Y-67178571D01*
X234392857Y-67464285D01*
X234535714Y-67607142D01*
X234678571Y-67678571D01*
X234964285Y-67678571D01*
X235107142Y-67607142D01*
X235250000Y-67464285D01*
X235321428Y-67178571D01*
X235321428Y-66678571D01*
X235250000Y-66392857D01*
X235107142Y-66250000D01*
X234964285Y-66178571D01*
X233892857Y-66678571D02*
X233321428Y-66678571D01*
X233678571Y-66178571D02*
X233678571Y-67464285D01*
X233607142Y-67607142D01*
X233464285Y-67678571D01*
X233321428Y-67678571D01*
X233035714Y-66678571D02*
X232464285Y-66678571D01*
X232821428Y-66178571D02*
X232821428Y-67464285D01*
X232750000Y-67607142D01*
X232607142Y-67678571D01*
X232464285Y-67678571D01*
X231392857Y-67607142D02*
X231535714Y-67678571D01*
X231821428Y-67678571D01*
X231964285Y-67607142D01*
X232035714Y-67464285D01*
X232035714Y-66892857D01*
X231964285Y-66750000D01*
X231821428Y-66678571D01*
X231535714Y-66678571D01*
X231392857Y-66750000D01*
X231321428Y-66892857D01*
X231321428Y-67035714D01*
X232035714Y-67178571D01*
X230678571Y-67678571D02*
X230678571Y-66678571D01*
X230678571Y-66964285D02*
X230607142Y-66821428D01*
X230535714Y-66750000D01*
X230392857Y-66678571D01*
X230250000Y-66678571D01*
X229535714Y-67678571D02*
X229678571Y-67607142D01*
X229750000Y-67464285D01*
X229750000Y-66178571D01*
X228964285Y-67678571D02*
X228964285Y-66678571D01*
X228964285Y-66178571D02*
X229035714Y-66250000D01*
X228964285Y-66321428D01*
X228892857Y-66250000D01*
X228964285Y-66178571D01*
X228964285Y-66321428D01*
X228250000Y-66678571D02*
X228250000Y-67678571D01*
X228250000Y-66821428D02*
X228178571Y-66750000D01*
X228035714Y-66678571D01*
X227821428Y-66678571D01*
X227678571Y-66750000D01*
X227607142Y-66892857D01*
X227607142Y-67678571D01*
X226321428Y-67607142D02*
X226464285Y-67678571D01*
X226750000Y-67678571D01*
X226892857Y-67607142D01*
X226964285Y-67464285D01*
X226964285Y-66892857D01*
X226892857Y-66750000D01*
X226750000Y-66678571D01*
X226464285Y-66678571D01*
X226321428Y-66750000D01*
X226250000Y-66892857D01*
X226250000Y-67035714D01*
X226964285Y-67178571D01*
X224964285Y-67678571D02*
X224964285Y-66892857D01*
X225035714Y-66750000D01*
X225178571Y-66678571D01*
X225464285Y-66678571D01*
X225607142Y-66750000D01*
X224964285Y-67607142D02*
X225107142Y-67678571D01*
X225464285Y-67678571D01*
X225607142Y-67607142D01*
X225678571Y-67464285D01*
X225678571Y-67321428D01*
X225607142Y-67178571D01*
X225464285Y-67107142D01*
X225107142Y-67107142D01*
X224964285Y-67035714D01*
X224250000Y-67678571D02*
X224250000Y-66678571D01*
X224250000Y-66964285D02*
X224178571Y-66821428D01*
X224107142Y-66750000D01*
X223964285Y-66678571D01*
X223821428Y-66678571D01*
X222178571Y-67678571D02*
X222178571Y-66178571D01*
X221321428Y-67678571D02*
X221964285Y-66821428D01*
X221321428Y-66178571D02*
X222178571Y-67035714D01*
X220107142Y-67607142D02*
X220250000Y-67678571D01*
X220535714Y-67678571D01*
X220678571Y-67607142D01*
X220750000Y-67464285D01*
X220750000Y-66892857D01*
X220678571Y-66750000D01*
X220535714Y-66678571D01*
X220250000Y-66678571D01*
X220107142Y-66750000D01*
X220035714Y-66892857D01*
X220035714Y-67035714D01*
X220750000Y-67178571D01*
X219535714Y-66678571D02*
X219178571Y-67678571D01*
X218821428Y-66678571D02*
X219178571Y-67678571D01*
X219321428Y-68035714D01*
X219392857Y-68107142D01*
X219535714Y-68178571D01*
X218250000Y-67678571D02*
X218250000Y-66178571D01*
X218250000Y-66750000D02*
X218107142Y-66678571D01*
X217821428Y-66678571D01*
X217678571Y-66750000D01*
X217607142Y-66821428D01*
X217535714Y-66964285D01*
X217535714Y-67392857D01*
X217607142Y-67535714D01*
X217678571Y-67607142D01*
X217821428Y-67678571D01*
X218107142Y-67678571D01*
X218250000Y-67607142D01*
X216678571Y-67678571D02*
X216821428Y-67607142D01*
X216892857Y-67535714D01*
X216964285Y-67392857D01*
X216964285Y-66964285D01*
X216892857Y-66821428D01*
X216821428Y-66750000D01*
X216678571Y-66678571D01*
X216464285Y-66678571D01*
X216321428Y-66750000D01*
X216250000Y-66821428D01*
X216178571Y-66964285D01*
X216178571Y-67392857D01*
X216250000Y-67535714D01*
X216321428Y-67607142D01*
X216464285Y-67678571D01*
X216678571Y-67678571D01*
X214892857Y-67678571D02*
X214892857Y-66892857D01*
X214964285Y-66750000D01*
X215107142Y-66678571D01*
X215392857Y-66678571D01*
X215535714Y-66750000D01*
X214892857Y-67607142D02*
X215035714Y-67678571D01*
X215392857Y-67678571D01*
X215535714Y-67607142D01*
X215607142Y-67464285D01*
X215607142Y-67321428D01*
X215535714Y-67178571D01*
X215392857Y-67107142D01*
X215035714Y-67107142D01*
X214892857Y-67035714D01*
X214178571Y-67678571D02*
X214178571Y-66678571D01*
X214178571Y-66964285D02*
X214107142Y-66821428D01*
X214035714Y-66750000D01*
X213892857Y-66678571D01*
X213750000Y-66678571D01*
X212607142Y-67678571D02*
X212607142Y-66178571D01*
X212607142Y-67607142D02*
X212750000Y-67678571D01*
X213035714Y-67678571D01*
X213178571Y-67607142D01*
X213250000Y-67535714D01*
X213321428Y-67392857D01*
X213321428Y-66964285D01*
X213250000Y-66821428D01*
X213178571Y-66750000D01*
X213035714Y-66678571D01*
X212750000Y-66678571D01*
X212607142Y-66750000D01*
X210892857Y-66678571D02*
X210535714Y-67678571D01*
X210178571Y-66678571D01*
X208821428Y-67678571D02*
X209678571Y-67678571D01*
X209250000Y-67678571D02*
X209250000Y-66178571D01*
X209392857Y-66392857D01*
X209535714Y-66535714D01*
X209678571Y-66607142D01*
X208178571Y-67535714D02*
X208107142Y-67607142D01*
X208178571Y-67678571D01*
X208250000Y-67607142D01*
X208178571Y-67535714D01*
X208178571Y-67678571D01*
X207178571Y-66178571D02*
X207035714Y-66178571D01*
X206892857Y-66250000D01*
X206821428Y-66321428D01*
X206750000Y-66464285D01*
X206678571Y-66750000D01*
X206678571Y-67107142D01*
X206750000Y-67392857D01*
X206821428Y-67535714D01*
X206892857Y-67607142D01*
X207035714Y-67678571D01*
X207178571Y-67678571D01*
X207321428Y-67607142D01*
X207392857Y-67535714D01*
X207464285Y-67392857D01*
X207535714Y-67107142D01*
X207535714Y-66750000D01*
X207464285Y-66464285D01*
X207392857Y-66321428D01*
X207321428Y-66250000D01*
X207178571Y-66178571D01*
X201678571Y-66964285D02*
X201750000Y-66892857D01*
X201892857Y-66821428D01*
X202035714Y-66821428D01*
X202178571Y-66892857D01*
X202250000Y-66964285D01*
X202321428Y-67107142D01*
X202321428Y-67250000D01*
X202250000Y-67392857D01*
X202178571Y-67464285D01*
X202035714Y-67535714D01*
X201892857Y-67535714D01*
X201750000Y-67464285D01*
X201678571Y-67392857D01*
X201678571Y-66821428D02*
X201678571Y-67392857D01*
X201607142Y-67464285D01*
X201535714Y-67464285D01*
X201392857Y-67392857D01*
X201321428Y-67250000D01*
X201321428Y-66892857D01*
X201464285Y-66678571D01*
X201678571Y-66535714D01*
X201964285Y-66464285D01*
X202250000Y-66535714D01*
X202464285Y-66678571D01*
X202607142Y-66892857D01*
X202678571Y-67178571D01*
X202607142Y-67464285D01*
X202464285Y-67678571D01*
X202250000Y-67821428D01*
X201964285Y-67892857D01*
X201678571Y-67821428D01*
X201464285Y-67678571D01*
X201035714Y-67821428D02*
X199892857Y-67821428D01*
X199107142Y-66178571D02*
X199107142Y-67250000D01*
X199178571Y-67464285D01*
X199321428Y-67607142D01*
X199535714Y-67678571D01*
X199678571Y-67678571D01*
X197750000Y-67678571D02*
X197750000Y-66892857D01*
X197821428Y-66750000D01*
X197964285Y-66678571D01*
X198250000Y-66678571D01*
X198392857Y-66750000D01*
X197750000Y-67607142D02*
X197892857Y-67678571D01*
X198250000Y-67678571D01*
X198392857Y-67607142D01*
X198464285Y-67464285D01*
X198464285Y-67321428D01*
X198392857Y-67178571D01*
X198250000Y-67107142D01*
X197892857Y-67107142D01*
X197750000Y-67035714D01*
X197035714Y-66678571D02*
X197035714Y-67678571D01*
X197035714Y-66821428D02*
X196964285Y-66750000D01*
X196821428Y-66678571D01*
X196607142Y-66678571D01*
X196464285Y-66750000D01*
X196392857Y-66892857D01*
X196392857Y-67678571D01*
X195035714Y-67678571D02*
X195035714Y-66892857D01*
X195107142Y-66750000D01*
X195250000Y-66678571D01*
X195535714Y-66678571D01*
X195678571Y-66750000D01*
X195035714Y-67607142D02*
X195178571Y-67678571D01*
X195535714Y-67678571D01*
X195678571Y-67607142D01*
X195750000Y-67464285D01*
X195750000Y-67321428D01*
X195678571Y-67178571D01*
X195535714Y-67107142D01*
X195178571Y-67107142D01*
X195035714Y-67035714D01*
X194678571Y-67821428D02*
X193535714Y-67821428D01*
X193178571Y-67678571D02*
X193178571Y-66178571D01*
X192678571Y-67250000D01*
X192178571Y-66178571D01*
X192178571Y-67678571D01*
X190821428Y-67678571D02*
X190821428Y-66892857D01*
X190892857Y-66750000D01*
X191035714Y-66678571D01*
X191321428Y-66678571D01*
X191464285Y-66750000D01*
X190821428Y-67607142D02*
X190964285Y-67678571D01*
X191321428Y-67678571D01*
X191464285Y-67607142D01*
X191535714Y-67464285D01*
X191535714Y-67321428D01*
X191464285Y-67178571D01*
X191321428Y-67107142D01*
X190964285Y-67107142D01*
X190821428Y-67035714D01*
X190107142Y-67678571D02*
X190107142Y-66678571D01*
X190107142Y-66964285D02*
X190035714Y-66821428D01*
X189964285Y-66750000D01*
X189821428Y-66678571D01*
X189678571Y-66678571D01*
X189178571Y-67678571D02*
X189178571Y-66678571D01*
X189178571Y-66178571D02*
X189250000Y-66250000D01*
X189178571Y-66321428D01*
X189107142Y-66250000D01*
X189178571Y-66178571D01*
X189178571Y-66321428D01*
X187892857Y-67607142D02*
X188035714Y-67678571D01*
X188321428Y-67678571D01*
X188464285Y-67607142D01*
X188535714Y-67464285D01*
X188535714Y-66892857D01*
X188464285Y-66750000D01*
X188321428Y-66678571D01*
X188035714Y-66678571D01*
X187892857Y-66750000D01*
X187821428Y-66892857D01*
X187821428Y-67035714D01*
X188535714Y-67178571D01*
X183821428Y-66321428D02*
X183750000Y-66250000D01*
X183607142Y-66178571D01*
X183250000Y-66178571D01*
X183107142Y-66250000D01*
X183035714Y-66321428D01*
X182964285Y-66464285D01*
X182964285Y-66607142D01*
X183035714Y-66821428D01*
X183892857Y-67678571D01*
X182964285Y-67678571D01*
X182035714Y-66178571D02*
X181892857Y-66178571D01*
X181750000Y-66250000D01*
X181678571Y-66321428D01*
X181607142Y-66464285D01*
X181535714Y-66750000D01*
X181535714Y-67107142D01*
X181607142Y-67392857D01*
X181678571Y-67535714D01*
X181750000Y-67607142D01*
X181892857Y-67678571D01*
X182035714Y-67678571D01*
X182178571Y-67607142D01*
X182250000Y-67535714D01*
X182321428Y-67392857D01*
X182392857Y-67107142D01*
X182392857Y-66750000D01*
X182321428Y-66464285D01*
X182250000Y-66321428D01*
X182178571Y-66250000D01*
X182035714Y-66178571D01*
X180964285Y-66321428D02*
X180892857Y-66250000D01*
X180750000Y-66178571D01*
X180392857Y-66178571D01*
X180250000Y-66250000D01*
X180178571Y-66321428D01*
X180107142Y-66464285D01*
X180107142Y-66607142D01*
X180178571Y-66821428D01*
X181035714Y-67678571D01*
X180107142Y-67678571D01*
X178678571Y-67678571D02*
X179535714Y-67678571D01*
X179107142Y-67678571D02*
X179107142Y-66178571D01*
X179250000Y-66392857D01*
X179392857Y-66535714D01*
X179535714Y-66607142D01*
D11*
X194107973Y-98129262D02*
X189766769Y-73509068D01*
X184660898Y-92541989D01*
X173353306Y-76403204D01*
X177694511Y-101023398D01*
X155419097Y-104951154D02*
X153145133Y-92054862D01*
X153904075Y-89503358D01*
X156042132Y-87917520D01*
X160731692Y-87090624D01*
X163283197Y-87849566D01*
X155212373Y-103778764D02*
X157763878Y-104537706D01*
X163625829Y-103504086D01*
X165763885Y-101918248D01*
X166522827Y-99366744D01*
X166109379Y-97021963D01*
X164523541Y-94883907D01*
X161972036Y-94124965D01*
X156110086Y-95158585D01*
X153558581Y-94399643D01*
X130249548Y-92465448D02*
X133143684Y-108878911D01*
X140801059Y-90604932D02*
X143075023Y-103501224D01*
X142316081Y-106052728D01*
X140178025Y-107638567D01*
X136660854Y-108258739D01*
X134109350Y-107499796D01*
X132730236Y-106534130D01*
X121006334Y-108601371D02*
X120040668Y-109980485D01*
X121419782Y-110946151D01*
X122385448Y-109567037D01*
X121006334Y-108601371D01*
X121419782Y-110946151D01*
X119765990Y-101567029D02*
X118457692Y-87291623D01*
X117078578Y-86325957D01*
X116112911Y-87705071D01*
X119765990Y-101567029D01*
X117078578Y-86325957D01*
D12*
X155520000Y-59940000D02*
X155520000Y-61400000D01*
X158680000Y-59940000D02*
X158680000Y-62100000D01*
X158680000Y-59940000D02*
X157750000Y-59940000D01*
X155520000Y-59940000D02*
X156450000Y-59940000D01*
D13*
X169806000Y-54137500D02*
G75*
G02X168853500Y-55090000I-952500J0D01*
G01*
X168853500Y-51280000D02*
G75*
G02X169806000Y-52232500I0J-952500D01*
G01*
X169806000Y-54137500D02*
X169806000Y-52232500D01*
X162986100Y-53908900D02*
G75*
G02X162986100Y-52461100I723900J723900D01*
G01*
X162986100Y-53908900D02*
X164167200Y-55090000D01*
X162986100Y-52461100D02*
X164167200Y-51280000D01*
X168853500Y-55090000D02*
X164167200Y-55090000D01*
X168853500Y-51280000D02*
X164167200Y-51280000D01*
D12*
X151670000Y-61090000D02*
X151670000Y-62550000D01*
X154830000Y-61090000D02*
X154830000Y-63250000D01*
X154830000Y-61090000D02*
X153900000Y-61090000D01*
X151670000Y-61090000D02*
X152600000Y-61090000D01*
X157335876Y-70355222D02*
X157000000Y-70691097D01*
X157000000Y-63308903D02*
X157335876Y-63644778D01*
X156664124Y-63644778D02*
X157000000Y-63308903D01*
X153308903Y-67000000D02*
X153644778Y-67335876D01*
X153644778Y-66664124D02*
X153308903Y-67000000D01*
X160691097Y-67000000D02*
X160355222Y-66664124D01*
X160355222Y-67335876D02*
X160691097Y-67000000D01*
X159450000Y-60100000D02*
X159150000Y-60100000D01*
X154750000Y-60100000D02*
X155050000Y-60100000D01*
D14*
X161000000Y-58250000D02*
X161500000Y-58250000D01*
X152500000Y-58250000D02*
X153000000Y-58250000D01*
X152500000Y-55750000D02*
X152500000Y-53750000D01*
X161500000Y-53750000D02*
X161500000Y-55750000D01*
D12*
X251338299Y-122540381D02*
X253141421Y-124343503D01*
X252540381Y-121338299D02*
X254343503Y-123141421D01*
X251338299Y-122540381D02*
X252540381Y-121338299D01*
X253540381Y-119661701D02*
X255343503Y-117858579D01*
X252338299Y-118459619D02*
X254141421Y-116656497D01*
X253540381Y-119661701D02*
X252338299Y-118459619D01*
X253540381Y-102661701D02*
X255343503Y-100858579D01*
X252338299Y-101459619D02*
X254141421Y-99656497D01*
X253540381Y-102661701D02*
X252338299Y-101459619D01*
X253540381Y-89661701D02*
X255343503Y-87858579D01*
X252338299Y-88459619D02*
X254141421Y-86656497D01*
X253540381Y-89661701D02*
X252338299Y-88459619D01*
X253540381Y-72661701D02*
X255343503Y-70858579D01*
X252338299Y-71459619D02*
X254141421Y-69656497D01*
X253540381Y-72661701D02*
X252338299Y-71459619D01*
X242459619Y-121338299D02*
X240656497Y-123141421D01*
X243661701Y-122540381D02*
X241858579Y-124343503D01*
X242459619Y-121338299D02*
X243661701Y-122540381D01*
X243661701Y-118459619D02*
X241858579Y-116656497D01*
X242459619Y-119661701D02*
X240656497Y-117858579D01*
X243661701Y-118459619D02*
X242459619Y-119661701D01*
X243661701Y-101459619D02*
X241858579Y-99656497D01*
X242459619Y-102661701D02*
X240656497Y-100858579D01*
X243661701Y-101459619D02*
X242459619Y-102661701D01*
X243661701Y-88459619D02*
X241858579Y-86656497D01*
X242459619Y-89661701D02*
X240656497Y-87858579D01*
X243661701Y-88459619D02*
X242459619Y-89661701D01*
X243661701Y-71459619D02*
X241858579Y-69656497D01*
X242459619Y-72661701D02*
X240656497Y-70858579D01*
X243661701Y-71459619D02*
X242459619Y-72661701D01*
X224459619Y-121338299D02*
X222656497Y-123141421D01*
X225661701Y-122540381D02*
X223858579Y-124343503D01*
X224459619Y-121338299D02*
X225661701Y-122540381D01*
X225661701Y-118459619D02*
X223858579Y-116656497D01*
X224459619Y-119661701D02*
X222656497Y-117858579D01*
X225661701Y-118459619D02*
X224459619Y-119661701D01*
X225661701Y-101459619D02*
X223858579Y-99656497D01*
X224459619Y-102661701D02*
X222656497Y-100858579D01*
X225661701Y-101459619D02*
X224459619Y-102661701D01*
X225661701Y-88459619D02*
X223858579Y-86656497D01*
X224459619Y-89661701D02*
X222656497Y-87858579D01*
X225661701Y-88459619D02*
X224459619Y-89661701D01*
X225661701Y-71459619D02*
X223858579Y-69656497D01*
X224459619Y-72661701D02*
X222656497Y-70858579D01*
X225661701Y-71459619D02*
X224459619Y-72661701D01*
X206459619Y-121338299D02*
X204656497Y-123141421D01*
X207661701Y-122540381D02*
X205858579Y-124343503D01*
X206459619Y-121338299D02*
X207661701Y-122540381D01*
X207661701Y-118459619D02*
X205858579Y-116656497D01*
X206459619Y-119661701D02*
X204656497Y-117858579D01*
X207661701Y-118459619D02*
X206459619Y-119661701D01*
X207661701Y-101459619D02*
X205858579Y-99656497D01*
X206459619Y-102661701D02*
X204656497Y-100858579D01*
X207661701Y-101459619D02*
X206459619Y-102661701D01*
X207661701Y-88459619D02*
X205858579Y-86656497D01*
X206459619Y-89661701D02*
X204656497Y-87858579D01*
X207661701Y-88459619D02*
X206459619Y-89661701D01*
X207661701Y-71459619D02*
X205858579Y-69656497D01*
X206459619Y-72661701D02*
X204656497Y-70858579D01*
X207661701Y-71459619D02*
X206459619Y-72661701D01*
X188459619Y-121338299D02*
X186656497Y-123141421D01*
X189661701Y-122540381D02*
X187858579Y-124343503D01*
X188459619Y-121338299D02*
X189661701Y-122540381D01*
X189661701Y-118459619D02*
X187858579Y-116656497D01*
X188459619Y-119661701D02*
X186656497Y-117858579D01*
X189661701Y-118459619D02*
X188459619Y-119661701D01*
X189661701Y-101459619D02*
X187858579Y-99656497D01*
X188459619Y-102661701D02*
X186656497Y-100858579D01*
X189661701Y-101459619D02*
X188459619Y-102661701D01*
X189661701Y-88459619D02*
X187858579Y-86656497D01*
X188459619Y-89661701D02*
X186656497Y-87858579D01*
X189661701Y-88459619D02*
X188459619Y-89661701D01*
X189661701Y-71459619D02*
X187858579Y-69656497D01*
X188459619Y-72661701D02*
X186656497Y-70858579D01*
X189661701Y-71459619D02*
X188459619Y-72661701D01*
X170459619Y-121338299D02*
X168656497Y-123141421D01*
X171661701Y-122540381D02*
X169858579Y-124343503D01*
X170459619Y-121338299D02*
X171661701Y-122540381D01*
X171661701Y-118459619D02*
X169858579Y-116656497D01*
X170459619Y-119661701D02*
X168656497Y-117858579D01*
X171661701Y-118459619D02*
X170459619Y-119661701D01*
X171661701Y-101459619D02*
X169858579Y-99656497D01*
X170459619Y-102661701D02*
X168656497Y-100858579D01*
X171661701Y-101459619D02*
X170459619Y-102661701D01*
X171661701Y-88459619D02*
X169858579Y-86656497D01*
X170459619Y-89661701D02*
X168656497Y-87858579D01*
X171661701Y-88459619D02*
X170459619Y-89661701D01*
X171661701Y-71459619D02*
X169858579Y-69656497D01*
X170459619Y-72661701D02*
X168656497Y-70858579D01*
X171661701Y-71459619D02*
X170459619Y-72661701D01*
X152459619Y-121338299D02*
X150656497Y-123141421D01*
X153661701Y-122540381D02*
X151858579Y-124343503D01*
X152459619Y-121338299D02*
X153661701Y-122540381D01*
X153661701Y-118459619D02*
X151858579Y-116656497D01*
X152459619Y-119661701D02*
X150656497Y-117858579D01*
X153661701Y-118459619D02*
X152459619Y-119661701D01*
X153661701Y-101459619D02*
X151858579Y-99656497D01*
X152459619Y-102661701D02*
X150656497Y-100858579D01*
X153661701Y-101459619D02*
X152459619Y-102661701D01*
X153661701Y-88459619D02*
X151858579Y-86656497D01*
X152459619Y-89661701D02*
X150656497Y-87858579D01*
X153661701Y-88459619D02*
X152459619Y-89661701D01*
X153661701Y-71459619D02*
X151858579Y-69656497D01*
X152459619Y-72661701D02*
X150656497Y-70858579D01*
X153661701Y-71459619D02*
X152459619Y-72661701D01*
X134459619Y-121338299D02*
X132656497Y-123141421D01*
X135661701Y-122540381D02*
X133858579Y-124343503D01*
X134459619Y-121338299D02*
X135661701Y-122540381D01*
X135661701Y-118459619D02*
X133858579Y-116656497D01*
X134459619Y-119661701D02*
X132656497Y-117858579D01*
X135661701Y-118459619D02*
X134459619Y-119661701D01*
X135661701Y-101459619D02*
X133858579Y-99656497D01*
X134459619Y-102661701D02*
X132656497Y-100858579D01*
X135661701Y-101459619D02*
X134459619Y-102661701D01*
X135661701Y-88459619D02*
X133858579Y-86656497D01*
X134459619Y-89661701D02*
X132656497Y-87858579D01*
X135661701Y-88459619D02*
X134459619Y-89661701D01*
X135661701Y-71459619D02*
X133858579Y-69656497D01*
X134459619Y-72661701D02*
X132656497Y-70858579D01*
X135661701Y-71459619D02*
X134459619Y-72661701D01*
X116459619Y-121338299D02*
X114656497Y-123141421D01*
X117661701Y-122540381D02*
X115858579Y-124343503D01*
X116459619Y-121338299D02*
X117661701Y-122540381D01*
X117661701Y-118459619D02*
X115858579Y-116656497D01*
X116459619Y-119661701D02*
X114656497Y-117858579D01*
X117661701Y-118459619D02*
X116459619Y-119661701D01*
X117661701Y-101459619D02*
X115858579Y-99656497D01*
X116459619Y-102661701D02*
X114656497Y-100858579D01*
X117661701Y-101459619D02*
X116459619Y-102661701D01*
X117661701Y-88459619D02*
X115858579Y-86656497D01*
X116459619Y-89661701D02*
X114656497Y-87858579D01*
X117661701Y-88459619D02*
X116459619Y-89661701D01*
X117661701Y-71459619D02*
X115858579Y-69656497D01*
X116459619Y-72661701D02*
X114656497Y-70858579D01*
X117661701Y-71459619D02*
X116459619Y-72661701D01*
X98459619Y-121338299D02*
X96656497Y-123141421D01*
X99661701Y-122540381D02*
X97858579Y-124343503D01*
X98459619Y-121338299D02*
X99661701Y-122540381D01*
X99661701Y-118459619D02*
X97858579Y-116656497D01*
X98459619Y-119661701D02*
X96656497Y-117858579D01*
X99661701Y-118459619D02*
X98459619Y-119661701D01*
X99661701Y-101459619D02*
X97858579Y-99656497D01*
X98459619Y-102661701D02*
X96656497Y-100858579D01*
X99661701Y-101459619D02*
X98459619Y-102661701D01*
X99661701Y-88459619D02*
X97858579Y-86656497D01*
X98459619Y-89661701D02*
X96656497Y-87858579D01*
X99661701Y-88459619D02*
X98459619Y-89661701D01*
X99661701Y-71459619D02*
X97858579Y-69656497D01*
X98459619Y-72661701D02*
X96656497Y-70858579D01*
X99661701Y-71459619D02*
X98459619Y-72661701D01*
X80459619Y-121338299D02*
X78656497Y-123141421D01*
X81661701Y-122540381D02*
X79858579Y-124343503D01*
X80459619Y-121338299D02*
X81661701Y-122540381D01*
X81661701Y-118459619D02*
X79858579Y-116656497D01*
X80459619Y-119661701D02*
X78656497Y-117858579D01*
X81661701Y-118459619D02*
X80459619Y-119661701D01*
X81661701Y-101459619D02*
X79858579Y-99656497D01*
X80459619Y-102661701D02*
X78656497Y-100858579D01*
X81661701Y-101459619D02*
X80459619Y-102661701D01*
X81661701Y-88459619D02*
X79858579Y-86656497D01*
X80459619Y-89661701D02*
X78656497Y-87858579D01*
X81661701Y-88459619D02*
X80459619Y-89661701D01*
X81661701Y-71459619D02*
X79858579Y-69656497D01*
X80459619Y-72661701D02*
X78656497Y-70858579D01*
X81661701Y-71459619D02*
X80459619Y-72661701D01*
X62459619Y-121338299D02*
X60656497Y-123141421D01*
X63661701Y-122540381D02*
X61858579Y-124343503D01*
X62459619Y-121338299D02*
X63661701Y-122540381D01*
X63661701Y-118459619D02*
X61858579Y-116656497D01*
X62459619Y-119661701D02*
X60656497Y-117858579D01*
X63661701Y-118459619D02*
X62459619Y-119661701D01*
X63661701Y-101459619D02*
X61858579Y-99656497D01*
X62459619Y-102661701D02*
X60656497Y-100858579D01*
X63661701Y-101459619D02*
X62459619Y-102661701D01*
X63661701Y-88459619D02*
X61858579Y-86656497D01*
X62459619Y-89661701D02*
X60656497Y-87858579D01*
X63661701Y-88459619D02*
X62459619Y-89661701D01*
X63661701Y-71459619D02*
X61858579Y-69656497D01*
X62459619Y-72661701D02*
X60656497Y-70858579D01*
X63661701Y-71459619D02*
X62459619Y-72661701D01*
X155456066Y-71406066D02*
X155243934Y-71193934D01*
X155850000Y-63050000D02*
X155850000Y-62750000D01*
X153956066Y-69906066D02*
X153743934Y-69693934D01*
X153150000Y-63900000D02*
X153150000Y-64200000D01*
X153050000Y-59800000D02*
X153050000Y-59500000D01*
X154706066Y-70656066D02*
X154493934Y-70443934D01*
D15*
X159078571Y-63071428D02*
X159078571Y-62471428D01*
X158935714Y-62471428D01*
X158850000Y-62500000D01*
X158792857Y-62557142D01*
X158764285Y-62614285D01*
X158735714Y-62728571D01*
X158735714Y-62814285D01*
X158764285Y-62928571D01*
X158792857Y-62985714D01*
X158850000Y-63042857D01*
X158935714Y-63071428D01*
X159078571Y-63071428D01*
X158221428Y-62471428D02*
X158335714Y-62471428D01*
X158392857Y-62500000D01*
X158421428Y-62528571D01*
X158478571Y-62614285D01*
X158507142Y-62728571D01*
X158507142Y-62957142D01*
X158478571Y-63014285D01*
X158450000Y-63042857D01*
X158392857Y-63071428D01*
X158278571Y-63071428D01*
X158221428Y-63042857D01*
X158192857Y-63014285D01*
X158164285Y-62957142D01*
X158164285Y-62814285D01*
X158192857Y-62757142D01*
X158221428Y-62728571D01*
X158278571Y-62700000D01*
X158392857Y-62700000D01*
X158450000Y-62728571D01*
X158478571Y-62757142D01*
X158507142Y-62814285D01*
X157592857Y-63071428D02*
X157935714Y-63071428D01*
X157764285Y-63071428D02*
X157764285Y-62471428D01*
X157821428Y-62557142D01*
X157878571Y-62614285D01*
X157935714Y-62642857D01*
X152357142Y-60271428D02*
X152357142Y-60757142D01*
X152328571Y-60814285D01*
X152300000Y-60842857D01*
X152242857Y-60871428D01*
X152128571Y-60871428D01*
X152071428Y-60842857D01*
X152042857Y-60814285D01*
X152014285Y-60757142D01*
X152014285Y-60271428D01*
X151757142Y-60328571D02*
X151728571Y-60300000D01*
X151671428Y-60271428D01*
X151528571Y-60271428D01*
X151471428Y-60300000D01*
X151442857Y-60328571D01*
X151414285Y-60385714D01*
X151414285Y-60442857D01*
X151442857Y-60528571D01*
X151785714Y-60871428D01*
X151414285Y-60871428D01*
X158007142Y-70921428D02*
X158007142Y-71407142D01*
X157978571Y-71464285D01*
X157950000Y-71492857D01*
X157892857Y-71521428D01*
X157778571Y-71521428D01*
X157721428Y-71492857D01*
X157692857Y-71464285D01*
X157664285Y-71407142D01*
X157664285Y-70921428D01*
X157064285Y-71521428D02*
X157407142Y-71521428D01*
X157235714Y-71521428D02*
X157235714Y-70921428D01*
X157292857Y-71007142D01*
X157350000Y-71064285D01*
X157407142Y-71092857D01*
X158400000Y-59771428D02*
X158600000Y-59485714D01*
X158742857Y-59771428D02*
X158742857Y-59171428D01*
X158514285Y-59171428D01*
X158457142Y-59200000D01*
X158428571Y-59228571D01*
X158400000Y-59285714D01*
X158400000Y-59371428D01*
X158428571Y-59428571D01*
X158457142Y-59457142D01*
X158514285Y-59485714D01*
X158742857Y-59485714D01*
X158171428Y-59228571D02*
X158142857Y-59200000D01*
X158085714Y-59171428D01*
X157942857Y-59171428D01*
X157885714Y-59200000D01*
X157857142Y-59228571D01*
X157828571Y-59285714D01*
X157828571Y-59342857D01*
X157857142Y-59428571D01*
X158200000Y-59771428D01*
X157828571Y-59771428D01*
X156050000Y-59771428D02*
X156250000Y-59485714D01*
X156392857Y-59771428D02*
X156392857Y-59171428D01*
X156164285Y-59171428D01*
X156107142Y-59200000D01*
X156078571Y-59228571D01*
X156050000Y-59285714D01*
X156050000Y-59371428D01*
X156078571Y-59428571D01*
X156107142Y-59457142D01*
X156164285Y-59485714D01*
X156392857Y-59485714D01*
X155478571Y-59771428D02*
X155821428Y-59771428D01*
X155650000Y-59771428D02*
X155650000Y-59171428D01*
X155707142Y-59257142D01*
X155764285Y-59314285D01*
X155821428Y-59342857D01*
X157200000Y-55921428D02*
X157200000Y-56350000D01*
X157228571Y-56435714D01*
X157285714Y-56492857D01*
X157371428Y-56521428D01*
X157428571Y-56521428D01*
X156600000Y-56521428D02*
X156942857Y-56521428D01*
X156771428Y-56521428D02*
X156771428Y-55921428D01*
X156828571Y-56007142D01*
X156885714Y-56064285D01*
X156942857Y-56092857D01*
X252015100Y-125015254D02*
X252439364Y-124590990D01*
X252338349Y-124489975D01*
X252257537Y-124449569D01*
X252176725Y-124449569D01*
X252116116Y-124469772D01*
X252015100Y-124530381D01*
X251954491Y-124590990D01*
X251893882Y-124692005D01*
X251873679Y-124752615D01*
X251873679Y-124833427D01*
X251914085Y-124914239D01*
X252015100Y-125015254D01*
X251833273Y-123984899D02*
X251914085Y-124065711D01*
X251934288Y-124126320D01*
X251934288Y-124166726D01*
X251914085Y-124267741D01*
X251853476Y-124368757D01*
X251691852Y-124530381D01*
X251631242Y-124550584D01*
X251590836Y-124550584D01*
X251530227Y-124530381D01*
X251449415Y-124449569D01*
X251429212Y-124388960D01*
X251429212Y-124348554D01*
X251449415Y-124287944D01*
X251550430Y-124186929D01*
X251611039Y-124166726D01*
X251651445Y-124166726D01*
X251712055Y-124186929D01*
X251792867Y-124267741D01*
X251813070Y-124328351D01*
X251813070Y-124368757D01*
X251792867Y-124429366D01*
X251530227Y-123681853D02*
X251489821Y-123641447D01*
X251429212Y-123621244D01*
X251388806Y-123621244D01*
X251328197Y-123641447D01*
X251227181Y-123702056D01*
X251126166Y-123803071D01*
X251065557Y-123904086D01*
X251045354Y-123964696D01*
X251045354Y-124005102D01*
X251065557Y-124065711D01*
X251105963Y-124106117D01*
X251166572Y-124126320D01*
X251206978Y-124126320D01*
X251267587Y-124106117D01*
X251368603Y-124045508D01*
X251469618Y-123944493D01*
X251530227Y-123843477D01*
X251550430Y-123782868D01*
X251550430Y-123742462D01*
X251530227Y-123681853D01*
X256015254Y-118984899D02*
X255590990Y-118560635D01*
X255489975Y-118661650D01*
X255449569Y-118742462D01*
X255449569Y-118823274D01*
X255469772Y-118883883D01*
X255530381Y-118984899D01*
X255590990Y-119045508D01*
X255692005Y-119106117D01*
X255752615Y-119126320D01*
X255833427Y-119126320D01*
X255914239Y-119085914D01*
X256015254Y-118984899D01*
X254964696Y-119186929D02*
X255166726Y-118984899D01*
X255388960Y-119166726D01*
X255348554Y-119166726D01*
X255287944Y-119186929D01*
X255186929Y-119287944D01*
X255166726Y-119348554D01*
X255166726Y-119388960D01*
X255186929Y-119449569D01*
X255287944Y-119550584D01*
X255348554Y-119570787D01*
X255388960Y-119570787D01*
X255449569Y-119550584D01*
X255550584Y-119449569D01*
X255570787Y-119388960D01*
X255570787Y-119348554D01*
X255166726Y-119833427D02*
X255085914Y-119914239D01*
X255025305Y-119934442D01*
X254984899Y-119934442D01*
X254883883Y-119914239D01*
X254782868Y-119853630D01*
X254621244Y-119692005D01*
X254601041Y-119631396D01*
X254601041Y-119590990D01*
X254621244Y-119530381D01*
X254702056Y-119449569D01*
X254762665Y-119429366D01*
X254803071Y-119429366D01*
X254863680Y-119449569D01*
X254964696Y-119550584D01*
X254984899Y-119611193D01*
X254984899Y-119651599D01*
X254964696Y-119712209D01*
X254883883Y-119793021D01*
X254823274Y-119813224D01*
X254782868Y-119813224D01*
X254722259Y-119793021D01*
X256015254Y-101984899D02*
X255590990Y-101560635D01*
X255489975Y-101661650D01*
X255449569Y-101742462D01*
X255449569Y-101823274D01*
X255469772Y-101883883D01*
X255530381Y-101984899D01*
X255590990Y-102045508D01*
X255692005Y-102106117D01*
X255752615Y-102126320D01*
X255833427Y-102126320D01*
X255914239Y-102085914D01*
X256015254Y-101984899D01*
X254964696Y-102186929D02*
X255166726Y-101984899D01*
X255388960Y-102166726D01*
X255348554Y-102166726D01*
X255287944Y-102186929D01*
X255186929Y-102287944D01*
X255166726Y-102348554D01*
X255166726Y-102388960D01*
X255186929Y-102449569D01*
X255287944Y-102550584D01*
X255348554Y-102570787D01*
X255388960Y-102570787D01*
X255449569Y-102550584D01*
X255550584Y-102449569D01*
X255570787Y-102388960D01*
X255570787Y-102348554D01*
X254883883Y-102631396D02*
X254904086Y-102570787D01*
X254904086Y-102530381D01*
X254883883Y-102469772D01*
X254863680Y-102449569D01*
X254803071Y-102429366D01*
X254762665Y-102429366D01*
X254702056Y-102449569D01*
X254621244Y-102530381D01*
X254601041Y-102590990D01*
X254601041Y-102631396D01*
X254621244Y-102692005D01*
X254641447Y-102712209D01*
X254702056Y-102732412D01*
X254742462Y-102732412D01*
X254803071Y-102712209D01*
X254883883Y-102631396D01*
X254944493Y-102611193D01*
X254984899Y-102611193D01*
X255045508Y-102631396D01*
X255126320Y-102712209D01*
X255146523Y-102772818D01*
X255146523Y-102813224D01*
X255126320Y-102873833D01*
X255045508Y-102954645D01*
X254984899Y-102974848D01*
X254944493Y-102974848D01*
X254883883Y-102954645D01*
X254803071Y-102873833D01*
X254782868Y-102813224D01*
X254782868Y-102772818D01*
X254803071Y-102712209D01*
X256015254Y-88984899D02*
X255590990Y-88560635D01*
X255489975Y-88661650D01*
X255449569Y-88742462D01*
X255449569Y-88823274D01*
X255469772Y-88883883D01*
X255530381Y-88984899D01*
X255590990Y-89045508D01*
X255692005Y-89106117D01*
X255752615Y-89126320D01*
X255833427Y-89126320D01*
X255914239Y-89085914D01*
X256015254Y-88984899D01*
X254964696Y-89186929D02*
X255166726Y-88984899D01*
X255388960Y-89166726D01*
X255348554Y-89166726D01*
X255287944Y-89186929D01*
X255186929Y-89287944D01*
X255166726Y-89348554D01*
X255166726Y-89388960D01*
X255186929Y-89449569D01*
X255287944Y-89550584D01*
X255348554Y-89570787D01*
X255388960Y-89570787D01*
X255449569Y-89550584D01*
X255550584Y-89449569D01*
X255570787Y-89388960D01*
X255570787Y-89348554D01*
X254803071Y-89348554D02*
X254520229Y-89631396D01*
X255126320Y-89873833D01*
X256015254Y-71984899D02*
X255590990Y-71560635D01*
X255489975Y-71661650D01*
X255449569Y-71742462D01*
X255449569Y-71823274D01*
X255469772Y-71883883D01*
X255530381Y-71984899D01*
X255590990Y-72045508D01*
X255692005Y-72106117D01*
X255752615Y-72126320D01*
X255833427Y-72126320D01*
X255914239Y-72085914D01*
X256015254Y-71984899D01*
X254964696Y-72186929D02*
X255166726Y-71984899D01*
X255388960Y-72166726D01*
X255348554Y-72166726D01*
X255287944Y-72186929D01*
X255186929Y-72287944D01*
X255166726Y-72348554D01*
X255166726Y-72388960D01*
X255186929Y-72449569D01*
X255287944Y-72550584D01*
X255348554Y-72570787D01*
X255388960Y-72570787D01*
X255449569Y-72550584D01*
X255550584Y-72449569D01*
X255570787Y-72388960D01*
X255570787Y-72348554D01*
X254580838Y-72570787D02*
X254661650Y-72489975D01*
X254722259Y-72469772D01*
X254762665Y-72469772D01*
X254863680Y-72489975D01*
X254964696Y-72550584D01*
X255126320Y-72712209D01*
X255146523Y-72772818D01*
X255146523Y-72813224D01*
X255126320Y-72873833D01*
X255045508Y-72954645D01*
X254984899Y-72974848D01*
X254944493Y-72974848D01*
X254883883Y-72954645D01*
X254782868Y-72853630D01*
X254762665Y-72793021D01*
X254762665Y-72752615D01*
X254782868Y-72692005D01*
X254863680Y-72611193D01*
X254924290Y-72590990D01*
X254964696Y-72590990D01*
X255025305Y-72611193D01*
X241398958Y-121368603D02*
X240974694Y-120944339D01*
X240873679Y-121045354D01*
X240833273Y-121126166D01*
X240833273Y-121206978D01*
X240853476Y-121267587D01*
X240914085Y-121368603D01*
X240974694Y-121429212D01*
X241075709Y-121489821D01*
X241136319Y-121510024D01*
X241217131Y-121510024D01*
X241297943Y-121469618D01*
X241398958Y-121368603D01*
X240348400Y-121570633D02*
X240550430Y-121368603D01*
X240772664Y-121550430D01*
X240732258Y-121550430D01*
X240671648Y-121570633D01*
X240570633Y-121671648D01*
X240550430Y-121732258D01*
X240550430Y-121772664D01*
X240570633Y-121833273D01*
X240671648Y-121934288D01*
X240732258Y-121954491D01*
X240772664Y-121954491D01*
X240833273Y-121934288D01*
X240934288Y-121833273D01*
X240954491Y-121772664D01*
X240954491Y-121732258D01*
X239944339Y-121974694D02*
X240146369Y-121772664D01*
X240368603Y-121954491D01*
X240328197Y-121954491D01*
X240267587Y-121974694D01*
X240166572Y-122075709D01*
X240146369Y-122136319D01*
X240146369Y-122176725D01*
X240166572Y-122237334D01*
X240267587Y-122338349D01*
X240328197Y-122358552D01*
X240368603Y-122358552D01*
X240429212Y-122338349D01*
X240530227Y-122237334D01*
X240550430Y-122176725D01*
X240550430Y-122136319D01*
X243631396Y-117398958D02*
X244055660Y-116974694D01*
X243954645Y-116873679D01*
X243873833Y-116833273D01*
X243793021Y-116833273D01*
X243732412Y-116853476D01*
X243631396Y-116914085D01*
X243570787Y-116974694D01*
X243510178Y-117075709D01*
X243489975Y-117136319D01*
X243489975Y-117217131D01*
X243530381Y-117297943D01*
X243631396Y-117398958D01*
X243429366Y-116348400D02*
X243631396Y-116550430D01*
X243449569Y-116772664D01*
X243449569Y-116732258D01*
X243429366Y-116671648D01*
X243328351Y-116570633D01*
X243267741Y-116550430D01*
X243227335Y-116550430D01*
X243166726Y-116570633D01*
X243065711Y-116671648D01*
X243045508Y-116732258D01*
X243045508Y-116772664D01*
X243065711Y-116833273D01*
X243166726Y-116934288D01*
X243227335Y-116954491D01*
X243267741Y-116954491D01*
X242904086Y-116105963D02*
X242621244Y-116388806D01*
X243166726Y-116045354D02*
X242964696Y-116449415D01*
X242702056Y-116186775D01*
X243631396Y-100398958D02*
X244055660Y-99974694D01*
X243954645Y-99873679D01*
X243873833Y-99833273D01*
X243793021Y-99833273D01*
X243732412Y-99853476D01*
X243631396Y-99914085D01*
X243570787Y-99974694D01*
X243510178Y-100075709D01*
X243489975Y-100136319D01*
X243489975Y-100217131D01*
X243530381Y-100297943D01*
X243631396Y-100398958D01*
X243429366Y-99348400D02*
X243631396Y-99550430D01*
X243449569Y-99772664D01*
X243449569Y-99732258D01*
X243429366Y-99671648D01*
X243328351Y-99570633D01*
X243267741Y-99550430D01*
X243227335Y-99550430D01*
X243166726Y-99570633D01*
X243065711Y-99671648D01*
X243045508Y-99732258D01*
X243045508Y-99772664D01*
X243065711Y-99833273D01*
X243166726Y-99934288D01*
X243227335Y-99954491D01*
X243267741Y-99954491D01*
X243267741Y-99186775D02*
X243005102Y-98924136D01*
X242984899Y-99227181D01*
X242924290Y-99166572D01*
X242863680Y-99146369D01*
X242823274Y-99146369D01*
X242762665Y-99166572D01*
X242661650Y-99267587D01*
X242641447Y-99328197D01*
X242641447Y-99368603D01*
X242661650Y-99429212D01*
X242782868Y-99550430D01*
X242843477Y-99570633D01*
X242883883Y-99570633D01*
X243631396Y-87398958D02*
X244055660Y-86974694D01*
X243954645Y-86873679D01*
X243873833Y-86833273D01*
X243793021Y-86833273D01*
X243732412Y-86853476D01*
X243631396Y-86914085D01*
X243570787Y-86974694D01*
X243510178Y-87075709D01*
X243489975Y-87136319D01*
X243489975Y-87217131D01*
X243530381Y-87297943D01*
X243631396Y-87398958D01*
X243429366Y-86348400D02*
X243631396Y-86550430D01*
X243449569Y-86772664D01*
X243449569Y-86732258D01*
X243429366Y-86671648D01*
X243328351Y-86570633D01*
X243267741Y-86550430D01*
X243227335Y-86550430D01*
X243166726Y-86570633D01*
X243065711Y-86671648D01*
X243045508Y-86732258D01*
X243045508Y-86772664D01*
X243065711Y-86833273D01*
X243166726Y-86934288D01*
X243227335Y-86954491D01*
X243267741Y-86954491D01*
X243207132Y-86206978D02*
X243207132Y-86166572D01*
X243186929Y-86105963D01*
X243085914Y-86004948D01*
X243025305Y-85984745D01*
X242984899Y-85984745D01*
X242924290Y-86004948D01*
X242883883Y-86045354D01*
X242843477Y-86126166D01*
X242843477Y-86611039D01*
X242580838Y-86348400D01*
X243631396Y-70398958D02*
X244055660Y-69974694D01*
X243954645Y-69873679D01*
X243873833Y-69833273D01*
X243793021Y-69833273D01*
X243732412Y-69853476D01*
X243631396Y-69914085D01*
X243570787Y-69974694D01*
X243510178Y-70075709D01*
X243489975Y-70136319D01*
X243489975Y-70217131D01*
X243530381Y-70297943D01*
X243631396Y-70398958D01*
X243429366Y-69348400D02*
X243631396Y-69550430D01*
X243449569Y-69772664D01*
X243449569Y-69732258D01*
X243429366Y-69671648D01*
X243328351Y-69570633D01*
X243267741Y-69550430D01*
X243227335Y-69550430D01*
X243166726Y-69570633D01*
X243065711Y-69671648D01*
X243045508Y-69732258D01*
X243045508Y-69772664D01*
X243065711Y-69833273D01*
X243166726Y-69934288D01*
X243227335Y-69954491D01*
X243267741Y-69954491D01*
X242580838Y-69348400D02*
X242823274Y-69590836D01*
X242702056Y-69469618D02*
X243126320Y-69045354D01*
X243106117Y-69146369D01*
X243106117Y-69227181D01*
X243126320Y-69287790D01*
X223398958Y-121368603D02*
X222974694Y-120944339D01*
X222873679Y-121045354D01*
X222833273Y-121126166D01*
X222833273Y-121206978D01*
X222853476Y-121267587D01*
X222914085Y-121368603D01*
X222974694Y-121429212D01*
X223075709Y-121489821D01*
X223136319Y-121510024D01*
X223217131Y-121510024D01*
X223297943Y-121469618D01*
X223398958Y-121368603D01*
X222348400Y-121570633D02*
X222550430Y-121368603D01*
X222772664Y-121550430D01*
X222732258Y-121550430D01*
X222671648Y-121570633D01*
X222570633Y-121671648D01*
X222550430Y-121732258D01*
X222550430Y-121772664D01*
X222570633Y-121833273D01*
X222671648Y-121934288D01*
X222732258Y-121954491D01*
X222772664Y-121954491D01*
X222833273Y-121934288D01*
X222934288Y-121833273D01*
X222954491Y-121772664D01*
X222954491Y-121732258D01*
X222065557Y-121853476D02*
X222025151Y-121893882D01*
X222004948Y-121954491D01*
X222004948Y-121994897D01*
X222025151Y-122055506D01*
X222085760Y-122156522D01*
X222186775Y-122257537D01*
X222287790Y-122318146D01*
X222348400Y-122338349D01*
X222388806Y-122338349D01*
X222449415Y-122318146D01*
X222489821Y-122277740D01*
X222510024Y-122217131D01*
X222510024Y-122176725D01*
X222489821Y-122116116D01*
X222429212Y-122015100D01*
X222328197Y-121914085D01*
X222227181Y-121853476D01*
X222166572Y-121833273D01*
X222126166Y-121833273D01*
X222065557Y-121853476D01*
X225631396Y-117398958D02*
X226055660Y-116974694D01*
X225954645Y-116873679D01*
X225873833Y-116833273D01*
X225793021Y-116833273D01*
X225732412Y-116853476D01*
X225631396Y-116914085D01*
X225570787Y-116974694D01*
X225510178Y-117075709D01*
X225489975Y-117136319D01*
X225489975Y-117217131D01*
X225530381Y-117297943D01*
X225631396Y-117398958D01*
X225308148Y-116510024D02*
X225025305Y-116792867D01*
X225570787Y-116449415D02*
X225368757Y-116853476D01*
X225106117Y-116590836D01*
X224782868Y-116550430D02*
X224702056Y-116469618D01*
X224681853Y-116409009D01*
X224681853Y-116368603D01*
X224702056Y-116267587D01*
X224762665Y-116166572D01*
X224924290Y-116004948D01*
X224984899Y-115984745D01*
X225025305Y-115984745D01*
X225085914Y-116004948D01*
X225166726Y-116085760D01*
X225186929Y-116146369D01*
X225186929Y-116186775D01*
X225166726Y-116247384D01*
X225065711Y-116348400D01*
X225005102Y-116368603D01*
X224964696Y-116368603D01*
X224904086Y-116348400D01*
X224823274Y-116267587D01*
X224803071Y-116206978D01*
X224803071Y-116166572D01*
X224823274Y-116105963D01*
X225631396Y-100398958D02*
X226055660Y-99974694D01*
X225954645Y-99873679D01*
X225873833Y-99833273D01*
X225793021Y-99833273D01*
X225732412Y-99853476D01*
X225631396Y-99914085D01*
X225570787Y-99974694D01*
X225510178Y-100075709D01*
X225489975Y-100136319D01*
X225489975Y-100217131D01*
X225530381Y-100297943D01*
X225631396Y-100398958D01*
X225308148Y-99510024D02*
X225025305Y-99792867D01*
X225570787Y-99449415D02*
X225368757Y-99853476D01*
X225106117Y-99590836D01*
X224984899Y-99267587D02*
X225045508Y-99287790D01*
X225085914Y-99287790D01*
X225146523Y-99267587D01*
X225166726Y-99247384D01*
X225186929Y-99186775D01*
X225186929Y-99146369D01*
X225166726Y-99085760D01*
X225085914Y-99004948D01*
X225025305Y-98984745D01*
X224984899Y-98984745D01*
X224924290Y-99004948D01*
X224904086Y-99025151D01*
X224883883Y-99085760D01*
X224883883Y-99126166D01*
X224904086Y-99186775D01*
X224984899Y-99267587D01*
X225005102Y-99328197D01*
X225005102Y-99368603D01*
X224984899Y-99429212D01*
X224904086Y-99510024D01*
X224843477Y-99530227D01*
X224803071Y-99530227D01*
X224742462Y-99510024D01*
X224661650Y-99429212D01*
X224641447Y-99368603D01*
X224641447Y-99328197D01*
X224661650Y-99267587D01*
X224742462Y-99186775D01*
X224803071Y-99166572D01*
X224843477Y-99166572D01*
X224904086Y-99186775D01*
X225631396Y-87398958D02*
X226055660Y-86974694D01*
X225954645Y-86873679D01*
X225873833Y-86833273D01*
X225793021Y-86833273D01*
X225732412Y-86853476D01*
X225631396Y-86914085D01*
X225570787Y-86974694D01*
X225510178Y-87075709D01*
X225489975Y-87136319D01*
X225489975Y-87217131D01*
X225530381Y-87297943D01*
X225631396Y-87398958D01*
X225308148Y-86510024D02*
X225025305Y-86792867D01*
X225570787Y-86449415D02*
X225368757Y-86853476D01*
X225106117Y-86590836D01*
X225267741Y-86186775D02*
X224984899Y-85903933D01*
X224742462Y-86510024D01*
X225631396Y-70398958D02*
X226055660Y-69974694D01*
X225954645Y-69873679D01*
X225873833Y-69833273D01*
X225793021Y-69833273D01*
X225732412Y-69853476D01*
X225631396Y-69914085D01*
X225570787Y-69974694D01*
X225510178Y-70075709D01*
X225489975Y-70136319D01*
X225489975Y-70217131D01*
X225530381Y-70297943D01*
X225631396Y-70398958D01*
X225308148Y-69510024D02*
X225025305Y-69792867D01*
X225570787Y-69449415D02*
X225368757Y-69853476D01*
X225106117Y-69590836D01*
X225045508Y-68964542D02*
X225126320Y-69045354D01*
X225146523Y-69105963D01*
X225146523Y-69146369D01*
X225126320Y-69247384D01*
X225065711Y-69348400D01*
X224904086Y-69510024D01*
X224843477Y-69530227D01*
X224803071Y-69530227D01*
X224742462Y-69510024D01*
X224661650Y-69429212D01*
X224641447Y-69368603D01*
X224641447Y-69328197D01*
X224661650Y-69267587D01*
X224762665Y-69166572D01*
X224823274Y-69146369D01*
X224863680Y-69146369D01*
X224924290Y-69166572D01*
X225005102Y-69247384D01*
X225025305Y-69307994D01*
X225025305Y-69348400D01*
X225005102Y-69409009D01*
X205398958Y-121368603D02*
X204974694Y-120944339D01*
X204873679Y-121045354D01*
X204833273Y-121126166D01*
X204833273Y-121206978D01*
X204853476Y-121267587D01*
X204914085Y-121368603D01*
X204974694Y-121429212D01*
X205075709Y-121489821D01*
X205136319Y-121510024D01*
X205217131Y-121510024D01*
X205297943Y-121469618D01*
X205398958Y-121368603D01*
X204510024Y-121691852D02*
X204792867Y-121974694D01*
X204449415Y-121429212D02*
X204853476Y-121631242D01*
X204590836Y-121893882D01*
X203944339Y-121974694D02*
X204146369Y-121772664D01*
X204368603Y-121954491D01*
X204328197Y-121954491D01*
X204267587Y-121974694D01*
X204166572Y-122075709D01*
X204146369Y-122136319D01*
X204146369Y-122176725D01*
X204166572Y-122237334D01*
X204267587Y-122338349D01*
X204328197Y-122358552D01*
X204368603Y-122358552D01*
X204429212Y-122338349D01*
X204530227Y-122237334D01*
X204550430Y-122176725D01*
X204550430Y-122136319D01*
X207631396Y-117398958D02*
X208055660Y-116974694D01*
X207954645Y-116873679D01*
X207873833Y-116833273D01*
X207793021Y-116833273D01*
X207732412Y-116853476D01*
X207631396Y-116914085D01*
X207570787Y-116974694D01*
X207510178Y-117075709D01*
X207489975Y-117136319D01*
X207489975Y-117217131D01*
X207530381Y-117297943D01*
X207631396Y-117398958D01*
X207308148Y-116510024D02*
X207025305Y-116792867D01*
X207570787Y-116449415D02*
X207368757Y-116853476D01*
X207106117Y-116590836D01*
X206904086Y-116105963D02*
X206621244Y-116388806D01*
X207166726Y-116045354D02*
X206964696Y-116449415D01*
X206702056Y-116186775D01*
X207631396Y-100398958D02*
X208055660Y-99974694D01*
X207954645Y-99873679D01*
X207873833Y-99833273D01*
X207793021Y-99833273D01*
X207732412Y-99853476D01*
X207631396Y-99914085D01*
X207570787Y-99974694D01*
X207510178Y-100075709D01*
X207489975Y-100136319D01*
X207489975Y-100217131D01*
X207530381Y-100297943D01*
X207631396Y-100398958D01*
X207308148Y-99510024D02*
X207025305Y-99792867D01*
X207570787Y-99449415D02*
X207368757Y-99853476D01*
X207106117Y-99590836D01*
X207267741Y-99186775D02*
X207005102Y-98924136D01*
X206984899Y-99227181D01*
X206924290Y-99166572D01*
X206863680Y-99146369D01*
X206823274Y-99146369D01*
X206762665Y-99166572D01*
X206661650Y-99267587D01*
X206641447Y-99328197D01*
X206641447Y-99368603D01*
X206661650Y-99429212D01*
X206782868Y-99550430D01*
X206843477Y-99570633D01*
X206883883Y-99570633D01*
X207631396Y-87398958D02*
X208055660Y-86974694D01*
X207954645Y-86873679D01*
X207873833Y-86833273D01*
X207793021Y-86833273D01*
X207732412Y-86853476D01*
X207631396Y-86914085D01*
X207570787Y-86974694D01*
X207510178Y-87075709D01*
X207489975Y-87136319D01*
X207489975Y-87217131D01*
X207530381Y-87297943D01*
X207631396Y-87398958D01*
X207308148Y-86510024D02*
X207025305Y-86792867D01*
X207570787Y-86449415D02*
X207368757Y-86853476D01*
X207106117Y-86590836D01*
X207207132Y-86206978D02*
X207207132Y-86166572D01*
X207186929Y-86105963D01*
X207085914Y-86004948D01*
X207025305Y-85984745D01*
X206984899Y-85984745D01*
X206924290Y-86004948D01*
X206883883Y-86045354D01*
X206843477Y-86126166D01*
X206843477Y-86611039D01*
X206580838Y-86348400D01*
X207631396Y-70398958D02*
X208055660Y-69974694D01*
X207954645Y-69873679D01*
X207873833Y-69833273D01*
X207793021Y-69833273D01*
X207732412Y-69853476D01*
X207631396Y-69914085D01*
X207570787Y-69974694D01*
X207510178Y-70075709D01*
X207489975Y-70136319D01*
X207489975Y-70217131D01*
X207530381Y-70297943D01*
X207631396Y-70398958D01*
X207308148Y-69510024D02*
X207025305Y-69792867D01*
X207570787Y-69449415D02*
X207368757Y-69853476D01*
X207106117Y-69590836D01*
X206580838Y-69348400D02*
X206823274Y-69590836D01*
X206702056Y-69469618D02*
X207126320Y-69045354D01*
X207106117Y-69146369D01*
X207106117Y-69227181D01*
X207126320Y-69287790D01*
X187398958Y-121368603D02*
X186974694Y-120944339D01*
X186873679Y-121045354D01*
X186833273Y-121126166D01*
X186833273Y-121206978D01*
X186853476Y-121267587D01*
X186914085Y-121368603D01*
X186974694Y-121429212D01*
X187075709Y-121489821D01*
X187136319Y-121510024D01*
X187217131Y-121510024D01*
X187297943Y-121469618D01*
X187398958Y-121368603D01*
X186510024Y-121691852D02*
X186792867Y-121974694D01*
X186449415Y-121429212D02*
X186853476Y-121631242D01*
X186590836Y-121893882D01*
X186065557Y-121853476D02*
X186025151Y-121893882D01*
X186004948Y-121954491D01*
X186004948Y-121994897D01*
X186025151Y-122055506D01*
X186085760Y-122156522D01*
X186186775Y-122257537D01*
X186287790Y-122318146D01*
X186348400Y-122338349D01*
X186388806Y-122338349D01*
X186449415Y-122318146D01*
X186489821Y-122277740D01*
X186510024Y-122217131D01*
X186510024Y-122176725D01*
X186489821Y-122116116D01*
X186429212Y-122015100D01*
X186328197Y-121914085D01*
X186227181Y-121853476D01*
X186166572Y-121833273D01*
X186126166Y-121833273D01*
X186065557Y-121853476D01*
X189631396Y-117398958D02*
X190055660Y-116974694D01*
X189954645Y-116873679D01*
X189873833Y-116833273D01*
X189793021Y-116833273D01*
X189732412Y-116853476D01*
X189631396Y-116914085D01*
X189570787Y-116974694D01*
X189510178Y-117075709D01*
X189489975Y-117136319D01*
X189489975Y-117217131D01*
X189530381Y-117297943D01*
X189631396Y-117398958D01*
X189671802Y-116590836D02*
X189409163Y-116328197D01*
X189388960Y-116631242D01*
X189328351Y-116570633D01*
X189267741Y-116550430D01*
X189227335Y-116550430D01*
X189166726Y-116570633D01*
X189065711Y-116671648D01*
X189045508Y-116732258D01*
X189045508Y-116772664D01*
X189065711Y-116833273D01*
X189186929Y-116954491D01*
X189247538Y-116974694D01*
X189287944Y-116974694D01*
X188782868Y-116550430D02*
X188702056Y-116469618D01*
X188681853Y-116409009D01*
X188681853Y-116368603D01*
X188702056Y-116267587D01*
X188762665Y-116166572D01*
X188924290Y-116004948D01*
X188984899Y-115984745D01*
X189025305Y-115984745D01*
X189085914Y-116004948D01*
X189166726Y-116085760D01*
X189186929Y-116146369D01*
X189186929Y-116186775D01*
X189166726Y-116247384D01*
X189065711Y-116348400D01*
X189005102Y-116368603D01*
X188964696Y-116368603D01*
X188904086Y-116348400D01*
X188823274Y-116267587D01*
X188803071Y-116206978D01*
X188803071Y-116166572D01*
X188823274Y-116105963D01*
X189631396Y-100398958D02*
X190055660Y-99974694D01*
X189954645Y-99873679D01*
X189873833Y-99833273D01*
X189793021Y-99833273D01*
X189732412Y-99853476D01*
X189631396Y-99914085D01*
X189570787Y-99974694D01*
X189510178Y-100075709D01*
X189489975Y-100136319D01*
X189489975Y-100217131D01*
X189530381Y-100297943D01*
X189631396Y-100398958D01*
X189671802Y-99590836D02*
X189409163Y-99328197D01*
X189388960Y-99631242D01*
X189328351Y-99570633D01*
X189267741Y-99550430D01*
X189227335Y-99550430D01*
X189166726Y-99570633D01*
X189065711Y-99671648D01*
X189045508Y-99732258D01*
X189045508Y-99772664D01*
X189065711Y-99833273D01*
X189186929Y-99954491D01*
X189247538Y-99974694D01*
X189287944Y-99974694D01*
X188984899Y-99267587D02*
X189045508Y-99287790D01*
X189085914Y-99287790D01*
X189146523Y-99267587D01*
X189166726Y-99247384D01*
X189186929Y-99186775D01*
X189186929Y-99146369D01*
X189166726Y-99085760D01*
X189085914Y-99004948D01*
X189025305Y-98984745D01*
X188984899Y-98984745D01*
X188924290Y-99004948D01*
X188904086Y-99025151D01*
X188883883Y-99085760D01*
X188883883Y-99126166D01*
X188904086Y-99186775D01*
X188984899Y-99267587D01*
X189005102Y-99328197D01*
X189005102Y-99368603D01*
X188984899Y-99429212D01*
X188904086Y-99510024D01*
X188843477Y-99530227D01*
X188803071Y-99530227D01*
X188742462Y-99510024D01*
X188661650Y-99429212D01*
X188641447Y-99368603D01*
X188641447Y-99328197D01*
X188661650Y-99267587D01*
X188742462Y-99186775D01*
X188803071Y-99166572D01*
X188843477Y-99166572D01*
X188904086Y-99186775D01*
X189631396Y-87398958D02*
X190055660Y-86974694D01*
X189954645Y-86873679D01*
X189873833Y-86833273D01*
X189793021Y-86833273D01*
X189732412Y-86853476D01*
X189631396Y-86914085D01*
X189570787Y-86974694D01*
X189510178Y-87075709D01*
X189489975Y-87136319D01*
X189489975Y-87217131D01*
X189530381Y-87297943D01*
X189631396Y-87398958D01*
X189671802Y-86590836D02*
X189409163Y-86328197D01*
X189388960Y-86631242D01*
X189328351Y-86570633D01*
X189267741Y-86550430D01*
X189227335Y-86550430D01*
X189166726Y-86570633D01*
X189065711Y-86671648D01*
X189045508Y-86732258D01*
X189045508Y-86772664D01*
X189065711Y-86833273D01*
X189186929Y-86954491D01*
X189247538Y-86974694D01*
X189287944Y-86974694D01*
X189267741Y-86186775D02*
X188984899Y-85903933D01*
X188742462Y-86510024D01*
X189631396Y-70398958D02*
X190055660Y-69974694D01*
X189954645Y-69873679D01*
X189873833Y-69833273D01*
X189793021Y-69833273D01*
X189732412Y-69853476D01*
X189631396Y-69914085D01*
X189570787Y-69974694D01*
X189510178Y-70075709D01*
X189489975Y-70136319D01*
X189489975Y-70217131D01*
X189530381Y-70297943D01*
X189631396Y-70398958D01*
X189671802Y-69590836D02*
X189409163Y-69328197D01*
X189388960Y-69631242D01*
X189328351Y-69570633D01*
X189267741Y-69550430D01*
X189227335Y-69550430D01*
X189166726Y-69570633D01*
X189065711Y-69671648D01*
X189045508Y-69732258D01*
X189045508Y-69772664D01*
X189065711Y-69833273D01*
X189186929Y-69954491D01*
X189247538Y-69974694D01*
X189287944Y-69974694D01*
X189045508Y-68964542D02*
X189126320Y-69045354D01*
X189146523Y-69105963D01*
X189146523Y-69146369D01*
X189126320Y-69247384D01*
X189065711Y-69348400D01*
X188904086Y-69510024D01*
X188843477Y-69530227D01*
X188803071Y-69530227D01*
X188742462Y-69510024D01*
X188661650Y-69429212D01*
X188641447Y-69368603D01*
X188641447Y-69328197D01*
X188661650Y-69267587D01*
X188762665Y-69166572D01*
X188823274Y-69146369D01*
X188863680Y-69146369D01*
X188924290Y-69166572D01*
X189005102Y-69247384D01*
X189025305Y-69307994D01*
X189025305Y-69348400D01*
X189005102Y-69409009D01*
X169398958Y-121368603D02*
X168974694Y-120944339D01*
X168873679Y-121045354D01*
X168833273Y-121126166D01*
X168833273Y-121206978D01*
X168853476Y-121267587D01*
X168914085Y-121368603D01*
X168974694Y-121429212D01*
X169075709Y-121489821D01*
X169136319Y-121510024D01*
X169217131Y-121510024D01*
X169297943Y-121469618D01*
X169398958Y-121368603D01*
X168590836Y-121328197D02*
X168328197Y-121590836D01*
X168631242Y-121611039D01*
X168570633Y-121671648D01*
X168550430Y-121732258D01*
X168550430Y-121772664D01*
X168570633Y-121833273D01*
X168671648Y-121934288D01*
X168732258Y-121954491D01*
X168772664Y-121954491D01*
X168833273Y-121934288D01*
X168954491Y-121813070D01*
X168974694Y-121752461D01*
X168974694Y-121712055D01*
X167944339Y-121974694D02*
X168146369Y-121772664D01*
X168368603Y-121954491D01*
X168328197Y-121954491D01*
X168267587Y-121974694D01*
X168166572Y-122075709D01*
X168146369Y-122136319D01*
X168146369Y-122176725D01*
X168166572Y-122237334D01*
X168267587Y-122338349D01*
X168328197Y-122358552D01*
X168368603Y-122358552D01*
X168429212Y-122338349D01*
X168530227Y-122237334D01*
X168550430Y-122176725D01*
X168550430Y-122136319D01*
X171631396Y-117398958D02*
X172055660Y-116974694D01*
X171954645Y-116873679D01*
X171873833Y-116833273D01*
X171793021Y-116833273D01*
X171732412Y-116853476D01*
X171631396Y-116914085D01*
X171570787Y-116974694D01*
X171510178Y-117075709D01*
X171489975Y-117136319D01*
X171489975Y-117217131D01*
X171530381Y-117297943D01*
X171631396Y-117398958D01*
X171671802Y-116590836D02*
X171409163Y-116328197D01*
X171388960Y-116631242D01*
X171328351Y-116570633D01*
X171267741Y-116550430D01*
X171227335Y-116550430D01*
X171166726Y-116570633D01*
X171065711Y-116671648D01*
X171045508Y-116732258D01*
X171045508Y-116772664D01*
X171065711Y-116833273D01*
X171186929Y-116954491D01*
X171247538Y-116974694D01*
X171287944Y-116974694D01*
X170904086Y-116105963D02*
X170621244Y-116388806D01*
X171166726Y-116045354D02*
X170964696Y-116449415D01*
X170702056Y-116186775D01*
X171631396Y-100398958D02*
X172055660Y-99974694D01*
X171954645Y-99873679D01*
X171873833Y-99833273D01*
X171793021Y-99833273D01*
X171732412Y-99853476D01*
X171631396Y-99914085D01*
X171570787Y-99974694D01*
X171510178Y-100075709D01*
X171489975Y-100136319D01*
X171489975Y-100217131D01*
X171530381Y-100297943D01*
X171631396Y-100398958D01*
X171671802Y-99590836D02*
X171409163Y-99328197D01*
X171388960Y-99631242D01*
X171328351Y-99570633D01*
X171267741Y-99550430D01*
X171227335Y-99550430D01*
X171166726Y-99570633D01*
X171065711Y-99671648D01*
X171045508Y-99732258D01*
X171045508Y-99772664D01*
X171065711Y-99833273D01*
X171186929Y-99954491D01*
X171247538Y-99974694D01*
X171287944Y-99974694D01*
X171267741Y-99186775D02*
X171005102Y-98924136D01*
X170984899Y-99227181D01*
X170924290Y-99166572D01*
X170863680Y-99146369D01*
X170823274Y-99146369D01*
X170762665Y-99166572D01*
X170661650Y-99267587D01*
X170641447Y-99328197D01*
X170641447Y-99368603D01*
X170661650Y-99429212D01*
X170782868Y-99550430D01*
X170843477Y-99570633D01*
X170883883Y-99570633D01*
X171631396Y-87398958D02*
X172055660Y-86974694D01*
X171954645Y-86873679D01*
X171873833Y-86833273D01*
X171793021Y-86833273D01*
X171732412Y-86853476D01*
X171631396Y-86914085D01*
X171570787Y-86974694D01*
X171510178Y-87075709D01*
X171489975Y-87136319D01*
X171489975Y-87217131D01*
X171530381Y-87297943D01*
X171631396Y-87398958D01*
X171671802Y-86590836D02*
X171409163Y-86328197D01*
X171388960Y-86631242D01*
X171328351Y-86570633D01*
X171267741Y-86550430D01*
X171227335Y-86550430D01*
X171166726Y-86570633D01*
X171065711Y-86671648D01*
X171045508Y-86732258D01*
X171045508Y-86772664D01*
X171065711Y-86833273D01*
X171186929Y-86954491D01*
X171247538Y-86974694D01*
X171287944Y-86974694D01*
X171207132Y-86206978D02*
X171207132Y-86166572D01*
X171186929Y-86105963D01*
X171085914Y-86004948D01*
X171025305Y-85984745D01*
X170984899Y-85984745D01*
X170924290Y-86004948D01*
X170883883Y-86045354D01*
X170843477Y-86126166D01*
X170843477Y-86611039D01*
X170580838Y-86348400D01*
X171631396Y-70398958D02*
X172055660Y-69974694D01*
X171954645Y-69873679D01*
X171873833Y-69833273D01*
X171793021Y-69833273D01*
X171732412Y-69853476D01*
X171631396Y-69914085D01*
X171570787Y-69974694D01*
X171510178Y-70075709D01*
X171489975Y-70136319D01*
X171489975Y-70217131D01*
X171530381Y-70297943D01*
X171631396Y-70398958D01*
X171671802Y-69590836D02*
X171409163Y-69328197D01*
X171388960Y-69631242D01*
X171328351Y-69570633D01*
X171267741Y-69550430D01*
X171227335Y-69550430D01*
X171166726Y-69570633D01*
X171065711Y-69671648D01*
X171045508Y-69732258D01*
X171045508Y-69772664D01*
X171065711Y-69833273D01*
X171186929Y-69954491D01*
X171247538Y-69974694D01*
X171287944Y-69974694D01*
X170580838Y-69348400D02*
X170823274Y-69590836D01*
X170702056Y-69469618D02*
X171126320Y-69045354D01*
X171106117Y-69146369D01*
X171106117Y-69227181D01*
X171126320Y-69287790D01*
X151398958Y-121368603D02*
X150974694Y-120944339D01*
X150873679Y-121045354D01*
X150833273Y-121126166D01*
X150833273Y-121206978D01*
X150853476Y-121267587D01*
X150914085Y-121368603D01*
X150974694Y-121429212D01*
X151075709Y-121489821D01*
X151136319Y-121510024D01*
X151217131Y-121510024D01*
X151297943Y-121469618D01*
X151398958Y-121368603D01*
X150590836Y-121328197D02*
X150328197Y-121590836D01*
X150631242Y-121611039D01*
X150570633Y-121671648D01*
X150550430Y-121732258D01*
X150550430Y-121772664D01*
X150570633Y-121833273D01*
X150671648Y-121934288D01*
X150732258Y-121954491D01*
X150772664Y-121954491D01*
X150833273Y-121934288D01*
X150954491Y-121813070D01*
X150974694Y-121752461D01*
X150974694Y-121712055D01*
X150065557Y-121853476D02*
X150025151Y-121893882D01*
X150004948Y-121954491D01*
X150004948Y-121994897D01*
X150025151Y-122055506D01*
X150085760Y-122156522D01*
X150186775Y-122257537D01*
X150287790Y-122318146D01*
X150348400Y-122338349D01*
X150388806Y-122338349D01*
X150449415Y-122318146D01*
X150489821Y-122277740D01*
X150510024Y-122217131D01*
X150510024Y-122176725D01*
X150489821Y-122116116D01*
X150429212Y-122015100D01*
X150328197Y-121914085D01*
X150227181Y-121853476D01*
X150166572Y-121833273D01*
X150126166Y-121833273D01*
X150065557Y-121853476D01*
X153631396Y-117398958D02*
X154055660Y-116974694D01*
X153954645Y-116873679D01*
X153873833Y-116833273D01*
X153793021Y-116833273D01*
X153732412Y-116853476D01*
X153631396Y-116914085D01*
X153570787Y-116974694D01*
X153510178Y-117075709D01*
X153489975Y-117136319D01*
X153489975Y-117217131D01*
X153530381Y-117297943D01*
X153631396Y-117398958D01*
X153611193Y-116611039D02*
X153611193Y-116570633D01*
X153590990Y-116510024D01*
X153489975Y-116409009D01*
X153429366Y-116388806D01*
X153388960Y-116388806D01*
X153328351Y-116409009D01*
X153287944Y-116449415D01*
X153247538Y-116530227D01*
X153247538Y-117015100D01*
X152984899Y-116752461D01*
X152782868Y-116550430D02*
X152702056Y-116469618D01*
X152681853Y-116409009D01*
X152681853Y-116368603D01*
X152702056Y-116267587D01*
X152762665Y-116166572D01*
X152924290Y-116004948D01*
X152984899Y-115984745D01*
X153025305Y-115984745D01*
X153085914Y-116004948D01*
X153166726Y-116085760D01*
X153186929Y-116146369D01*
X153186929Y-116186775D01*
X153166726Y-116247384D01*
X153065711Y-116348400D01*
X153005102Y-116368603D01*
X152964696Y-116368603D01*
X152904086Y-116348400D01*
X152823274Y-116267587D01*
X152803071Y-116206978D01*
X152803071Y-116166572D01*
X152823274Y-116105963D01*
X153631396Y-100398958D02*
X154055660Y-99974694D01*
X153954645Y-99873679D01*
X153873833Y-99833273D01*
X153793021Y-99833273D01*
X153732412Y-99853476D01*
X153631396Y-99914085D01*
X153570787Y-99974694D01*
X153510178Y-100075709D01*
X153489975Y-100136319D01*
X153489975Y-100217131D01*
X153530381Y-100297943D01*
X153631396Y-100398958D01*
X153611193Y-99611039D02*
X153611193Y-99570633D01*
X153590990Y-99510024D01*
X153489975Y-99409009D01*
X153429366Y-99388806D01*
X153388960Y-99388806D01*
X153328351Y-99409009D01*
X153287944Y-99449415D01*
X153247538Y-99530227D01*
X153247538Y-100015100D01*
X152984899Y-99752461D01*
X152984899Y-99267587D02*
X153045508Y-99287790D01*
X153085914Y-99287790D01*
X153146523Y-99267587D01*
X153166726Y-99247384D01*
X153186929Y-99186775D01*
X153186929Y-99146369D01*
X153166726Y-99085760D01*
X153085914Y-99004948D01*
X153025305Y-98984745D01*
X152984899Y-98984745D01*
X152924290Y-99004948D01*
X152904086Y-99025151D01*
X152883883Y-99085760D01*
X152883883Y-99126166D01*
X152904086Y-99186775D01*
X152984899Y-99267587D01*
X153005102Y-99328197D01*
X153005102Y-99368603D01*
X152984899Y-99429212D01*
X152904086Y-99510024D01*
X152843477Y-99530227D01*
X152803071Y-99530227D01*
X152742462Y-99510024D01*
X152661650Y-99429212D01*
X152641447Y-99368603D01*
X152641447Y-99328197D01*
X152661650Y-99267587D01*
X152742462Y-99186775D01*
X152803071Y-99166572D01*
X152843477Y-99166572D01*
X152904086Y-99186775D01*
X153631396Y-87398958D02*
X154055660Y-86974694D01*
X153954645Y-86873679D01*
X153873833Y-86833273D01*
X153793021Y-86833273D01*
X153732412Y-86853476D01*
X153631396Y-86914085D01*
X153570787Y-86974694D01*
X153510178Y-87075709D01*
X153489975Y-87136319D01*
X153489975Y-87217131D01*
X153530381Y-87297943D01*
X153631396Y-87398958D01*
X153611193Y-86611039D02*
X153611193Y-86570633D01*
X153590990Y-86510024D01*
X153489975Y-86409009D01*
X153429366Y-86388806D01*
X153388960Y-86388806D01*
X153328351Y-86409009D01*
X153287944Y-86449415D01*
X153247538Y-86530227D01*
X153247538Y-87015100D01*
X152984899Y-86752461D01*
X153267741Y-86186775D02*
X152984899Y-85903933D01*
X152742462Y-86510024D01*
X151173248Y-72757106D02*
X151597512Y-72332842D01*
X151496497Y-72231827D01*
X151415685Y-72191421D01*
X151334873Y-72191421D01*
X151274264Y-72211624D01*
X151173248Y-72272233D01*
X151112639Y-72332842D01*
X151052030Y-72433857D01*
X151031827Y-72494467D01*
X151031827Y-72575279D01*
X151072233Y-72656091D01*
X151173248Y-72757106D01*
X151153045Y-71969187D02*
X151153045Y-71928781D01*
X151132842Y-71868172D01*
X151031827Y-71767157D01*
X150971218Y-71746954D01*
X150930812Y-71746954D01*
X150870203Y-71767157D01*
X150829796Y-71807563D01*
X150789390Y-71888375D01*
X150789390Y-72373248D01*
X150526751Y-72110609D01*
X150587360Y-71322690D02*
X150668172Y-71403502D01*
X150688375Y-71464111D01*
X150688375Y-71504517D01*
X150668172Y-71605532D01*
X150607563Y-71706548D01*
X150445938Y-71868172D01*
X150385329Y-71888375D01*
X150344923Y-71888375D01*
X150284314Y-71868172D01*
X150203502Y-71787360D01*
X150183299Y-71726751D01*
X150183299Y-71686345D01*
X150203502Y-71625735D01*
X150304517Y-71524720D01*
X150365126Y-71504517D01*
X150405532Y-71504517D01*
X150466142Y-71524720D01*
X150546954Y-71605532D01*
X150567157Y-71666142D01*
X150567157Y-71706548D01*
X150546954Y-71767157D01*
X133398958Y-121368603D02*
X132974694Y-120944339D01*
X132873679Y-121045354D01*
X132833273Y-121126166D01*
X132833273Y-121206978D01*
X132853476Y-121267587D01*
X132914085Y-121368603D01*
X132974694Y-121429212D01*
X133075709Y-121489821D01*
X133136319Y-121510024D01*
X133217131Y-121510024D01*
X133297943Y-121469618D01*
X133398958Y-121368603D01*
X132611039Y-121388806D02*
X132570633Y-121388806D01*
X132510024Y-121409009D01*
X132409009Y-121510024D01*
X132388806Y-121570633D01*
X132388806Y-121611039D01*
X132409009Y-121671648D01*
X132449415Y-121712055D01*
X132530227Y-121752461D01*
X133015100Y-121752461D01*
X132752461Y-122015100D01*
X131944339Y-121974694D02*
X132146369Y-121772664D01*
X132368603Y-121954491D01*
X132328197Y-121954491D01*
X132267587Y-121974694D01*
X132166572Y-122075709D01*
X132146369Y-122136319D01*
X132146369Y-122176725D01*
X132166572Y-122237334D01*
X132267587Y-122338349D01*
X132328197Y-122358552D01*
X132368603Y-122358552D01*
X132429212Y-122338349D01*
X132530227Y-122237334D01*
X132550430Y-122176725D01*
X132550430Y-122136319D01*
X135631396Y-117398958D02*
X136055660Y-116974694D01*
X135954645Y-116873679D01*
X135873833Y-116833273D01*
X135793021Y-116833273D01*
X135732412Y-116853476D01*
X135631396Y-116914085D01*
X135570787Y-116974694D01*
X135510178Y-117075709D01*
X135489975Y-117136319D01*
X135489975Y-117217131D01*
X135530381Y-117297943D01*
X135631396Y-117398958D01*
X135611193Y-116611039D02*
X135611193Y-116570633D01*
X135590990Y-116510024D01*
X135489975Y-116409009D01*
X135429366Y-116388806D01*
X135388960Y-116388806D01*
X135328351Y-116409009D01*
X135287944Y-116449415D01*
X135247538Y-116530227D01*
X135247538Y-117015100D01*
X134984899Y-116752461D01*
X134904086Y-116105963D02*
X134621244Y-116388806D01*
X135166726Y-116045354D02*
X134964696Y-116449415D01*
X134702056Y-116186775D01*
X135631396Y-100398958D02*
X136055660Y-99974694D01*
X135954645Y-99873679D01*
X135873833Y-99833273D01*
X135793021Y-99833273D01*
X135732412Y-99853476D01*
X135631396Y-99914085D01*
X135570787Y-99974694D01*
X135510178Y-100075709D01*
X135489975Y-100136319D01*
X135489975Y-100217131D01*
X135530381Y-100297943D01*
X135631396Y-100398958D01*
X135611193Y-99611039D02*
X135611193Y-99570633D01*
X135590990Y-99510024D01*
X135489975Y-99409009D01*
X135429366Y-99388806D01*
X135388960Y-99388806D01*
X135328351Y-99409009D01*
X135287944Y-99449415D01*
X135247538Y-99530227D01*
X135247538Y-100015100D01*
X134984899Y-99752461D01*
X135267741Y-99186775D02*
X135005102Y-98924136D01*
X134984899Y-99227181D01*
X134924290Y-99166572D01*
X134863680Y-99146369D01*
X134823274Y-99146369D01*
X134762665Y-99166572D01*
X134661650Y-99267587D01*
X134641447Y-99328197D01*
X134641447Y-99368603D01*
X134661650Y-99429212D01*
X134782868Y-99550430D01*
X134843477Y-99570633D01*
X134883883Y-99570633D01*
X135631396Y-87398958D02*
X136055660Y-86974694D01*
X135954645Y-86873679D01*
X135873833Y-86833273D01*
X135793021Y-86833273D01*
X135732412Y-86853476D01*
X135631396Y-86914085D01*
X135570787Y-86974694D01*
X135510178Y-87075709D01*
X135489975Y-87136319D01*
X135489975Y-87217131D01*
X135530381Y-87297943D01*
X135631396Y-87398958D01*
X135611193Y-86611039D02*
X135611193Y-86570633D01*
X135590990Y-86510024D01*
X135489975Y-86409009D01*
X135429366Y-86388806D01*
X135388960Y-86388806D01*
X135328351Y-86409009D01*
X135287944Y-86449415D01*
X135247538Y-86530227D01*
X135247538Y-87015100D01*
X134984899Y-86752461D01*
X135207132Y-86206978D02*
X135207132Y-86166572D01*
X135186929Y-86105963D01*
X135085914Y-86004948D01*
X135025305Y-85984745D01*
X134984899Y-85984745D01*
X134924290Y-86004948D01*
X134883883Y-86045354D01*
X134843477Y-86126166D01*
X134843477Y-86611039D01*
X134580838Y-86348400D01*
X135631396Y-70398958D02*
X136055660Y-69974694D01*
X135954645Y-69873679D01*
X135873833Y-69833273D01*
X135793021Y-69833273D01*
X135732412Y-69853476D01*
X135631396Y-69914085D01*
X135570787Y-69974694D01*
X135510178Y-70075709D01*
X135489975Y-70136319D01*
X135489975Y-70217131D01*
X135530381Y-70297943D01*
X135631396Y-70398958D01*
X135611193Y-69611039D02*
X135611193Y-69570633D01*
X135590990Y-69510024D01*
X135489975Y-69409009D01*
X135429366Y-69388806D01*
X135388960Y-69388806D01*
X135328351Y-69409009D01*
X135287944Y-69449415D01*
X135247538Y-69530227D01*
X135247538Y-70015100D01*
X134984899Y-69752461D01*
X134580838Y-69348400D02*
X134823274Y-69590836D01*
X134702056Y-69469618D02*
X135126320Y-69045354D01*
X135106117Y-69146369D01*
X135106117Y-69227181D01*
X135126320Y-69287790D01*
X115398958Y-121368603D02*
X114974694Y-120944339D01*
X114873679Y-121045354D01*
X114833273Y-121126166D01*
X114833273Y-121206978D01*
X114853476Y-121267587D01*
X114914085Y-121368603D01*
X114974694Y-121429212D01*
X115075709Y-121489821D01*
X115136319Y-121510024D01*
X115217131Y-121510024D01*
X115297943Y-121469618D01*
X115398958Y-121368603D01*
X114611039Y-121388806D02*
X114570633Y-121388806D01*
X114510024Y-121409009D01*
X114409009Y-121510024D01*
X114388806Y-121570633D01*
X114388806Y-121611039D01*
X114409009Y-121671648D01*
X114449415Y-121712055D01*
X114530227Y-121752461D01*
X115015100Y-121752461D01*
X114752461Y-122015100D01*
X114065557Y-121853476D02*
X114025151Y-121893882D01*
X114004948Y-121954491D01*
X114004948Y-121994897D01*
X114025151Y-122055506D01*
X114085760Y-122156522D01*
X114186775Y-122257537D01*
X114287790Y-122318146D01*
X114348400Y-122338349D01*
X114388806Y-122338349D01*
X114449415Y-122318146D01*
X114489821Y-122277740D01*
X114510024Y-122217131D01*
X114510024Y-122176725D01*
X114489821Y-122116116D01*
X114429212Y-122015100D01*
X114328197Y-121914085D01*
X114227181Y-121853476D01*
X114166572Y-121833273D01*
X114126166Y-121833273D01*
X114065557Y-121853476D01*
X117631396Y-117398958D02*
X118055660Y-116974694D01*
X117954645Y-116873679D01*
X117873833Y-116833273D01*
X117793021Y-116833273D01*
X117732412Y-116853476D01*
X117631396Y-116914085D01*
X117570787Y-116974694D01*
X117510178Y-117075709D01*
X117489975Y-117136319D01*
X117489975Y-117217131D01*
X117530381Y-117297943D01*
X117631396Y-117398958D01*
X116984899Y-116752461D02*
X117227335Y-116994897D01*
X117106117Y-116873679D02*
X117530381Y-116449415D01*
X117510178Y-116550430D01*
X117510178Y-116631242D01*
X117530381Y-116691852D01*
X116782868Y-116550430D02*
X116702056Y-116469618D01*
X116681853Y-116409009D01*
X116681853Y-116368603D01*
X116702056Y-116267587D01*
X116762665Y-116166572D01*
X116924290Y-116004948D01*
X116984899Y-115984745D01*
X117025305Y-115984745D01*
X117085914Y-116004948D01*
X117166726Y-116085760D01*
X117186929Y-116146369D01*
X117186929Y-116186775D01*
X117166726Y-116247384D01*
X117065711Y-116348400D01*
X117005102Y-116368603D01*
X116964696Y-116368603D01*
X116904086Y-116348400D01*
X116823274Y-116267587D01*
X116803071Y-116206978D01*
X116803071Y-116166572D01*
X116823274Y-116105963D01*
X117631396Y-100398958D02*
X118055660Y-99974694D01*
X117954645Y-99873679D01*
X117873833Y-99833273D01*
X117793021Y-99833273D01*
X117732412Y-99853476D01*
X117631396Y-99914085D01*
X117570787Y-99974694D01*
X117510178Y-100075709D01*
X117489975Y-100136319D01*
X117489975Y-100217131D01*
X117530381Y-100297943D01*
X117631396Y-100398958D01*
X116984899Y-99752461D02*
X117227335Y-99994897D01*
X117106117Y-99873679D02*
X117530381Y-99449415D01*
X117510178Y-99550430D01*
X117510178Y-99631242D01*
X117530381Y-99691852D01*
X116984899Y-99267587D02*
X117045508Y-99287790D01*
X117085914Y-99287790D01*
X117146523Y-99267587D01*
X117166726Y-99247384D01*
X117186929Y-99186775D01*
X117186929Y-99146369D01*
X117166726Y-99085760D01*
X117085914Y-99004948D01*
X117025305Y-98984745D01*
X116984899Y-98984745D01*
X116924290Y-99004948D01*
X116904086Y-99025151D01*
X116883883Y-99085760D01*
X116883883Y-99126166D01*
X116904086Y-99186775D01*
X116984899Y-99267587D01*
X117005102Y-99328197D01*
X117005102Y-99368603D01*
X116984899Y-99429212D01*
X116904086Y-99510024D01*
X116843477Y-99530227D01*
X116803071Y-99530227D01*
X116742462Y-99510024D01*
X116661650Y-99429212D01*
X116641447Y-99368603D01*
X116641447Y-99328197D01*
X116661650Y-99267587D01*
X116742462Y-99186775D01*
X116803071Y-99166572D01*
X116843477Y-99166572D01*
X116904086Y-99186775D01*
X117631396Y-87398958D02*
X118055660Y-86974694D01*
X117954645Y-86873679D01*
X117873833Y-86833273D01*
X117793021Y-86833273D01*
X117732412Y-86853476D01*
X117631396Y-86914085D01*
X117570787Y-86974694D01*
X117510178Y-87075709D01*
X117489975Y-87136319D01*
X117489975Y-87217131D01*
X117530381Y-87297943D01*
X117631396Y-87398958D01*
X116984899Y-86752461D02*
X117227335Y-86994897D01*
X117106117Y-86873679D02*
X117530381Y-86449415D01*
X117510178Y-86550430D01*
X117510178Y-86631242D01*
X117530381Y-86691852D01*
X117267741Y-86186775D02*
X116984899Y-85903933D01*
X116742462Y-86510024D01*
X117631396Y-70398958D02*
X118055660Y-69974694D01*
X117954645Y-69873679D01*
X117873833Y-69833273D01*
X117793021Y-69833273D01*
X117732412Y-69853476D01*
X117631396Y-69914085D01*
X117570787Y-69974694D01*
X117510178Y-70075709D01*
X117489975Y-70136319D01*
X117489975Y-70217131D01*
X117530381Y-70297943D01*
X117631396Y-70398958D01*
X116984899Y-69752461D02*
X117227335Y-69994897D01*
X117106117Y-69873679D02*
X117530381Y-69449415D01*
X117510178Y-69550430D01*
X117510178Y-69631242D01*
X117530381Y-69691852D01*
X117045508Y-68964542D02*
X117126320Y-69045354D01*
X117146523Y-69105963D01*
X117146523Y-69146369D01*
X117126320Y-69247384D01*
X117065711Y-69348400D01*
X116904086Y-69510024D01*
X116843477Y-69530227D01*
X116803071Y-69530227D01*
X116742462Y-69510024D01*
X116661650Y-69429212D01*
X116641447Y-69368603D01*
X116641447Y-69328197D01*
X116661650Y-69267587D01*
X116762665Y-69166572D01*
X116823274Y-69146369D01*
X116863680Y-69146369D01*
X116924290Y-69166572D01*
X117005102Y-69247384D01*
X117025305Y-69307994D01*
X117025305Y-69348400D01*
X117005102Y-69409009D01*
X97398958Y-121368603D02*
X96974694Y-120944339D01*
X96873679Y-121045354D01*
X96833273Y-121126166D01*
X96833273Y-121206978D01*
X96853476Y-121267587D01*
X96914085Y-121368603D01*
X96974694Y-121429212D01*
X97075709Y-121489821D01*
X97136319Y-121510024D01*
X97217131Y-121510024D01*
X97297943Y-121469618D01*
X97398958Y-121368603D01*
X96752461Y-122015100D02*
X96994897Y-121772664D01*
X96873679Y-121893882D02*
X96449415Y-121469618D01*
X96550430Y-121489821D01*
X96631242Y-121489821D01*
X96691852Y-121469618D01*
X95944339Y-121974694D02*
X96146369Y-121772664D01*
X96368603Y-121954491D01*
X96328197Y-121954491D01*
X96267587Y-121974694D01*
X96166572Y-122075709D01*
X96146369Y-122136319D01*
X96146369Y-122176725D01*
X96166572Y-122237334D01*
X96267587Y-122338349D01*
X96328197Y-122358552D01*
X96368603Y-122358552D01*
X96429212Y-122338349D01*
X96530227Y-122237334D01*
X96550430Y-122176725D01*
X96550430Y-122136319D01*
X99631396Y-117398958D02*
X100055660Y-116974694D01*
X99954645Y-116873679D01*
X99873833Y-116833273D01*
X99793021Y-116833273D01*
X99732412Y-116853476D01*
X99631396Y-116914085D01*
X99570787Y-116974694D01*
X99510178Y-117075709D01*
X99489975Y-117136319D01*
X99489975Y-117217131D01*
X99530381Y-117297943D01*
X99631396Y-117398958D01*
X98984899Y-116752461D02*
X99227335Y-116994897D01*
X99106117Y-116873679D02*
X99530381Y-116449415D01*
X99510178Y-116550430D01*
X99510178Y-116631242D01*
X99530381Y-116691852D01*
X98904086Y-116105963D02*
X98621244Y-116388806D01*
X99166726Y-116045354D02*
X98964696Y-116449415D01*
X98702056Y-116186775D01*
X99631396Y-100398958D02*
X100055660Y-99974694D01*
X99954645Y-99873679D01*
X99873833Y-99833273D01*
X99793021Y-99833273D01*
X99732412Y-99853476D01*
X99631396Y-99914085D01*
X99570787Y-99974694D01*
X99510178Y-100075709D01*
X99489975Y-100136319D01*
X99489975Y-100217131D01*
X99530381Y-100297943D01*
X99631396Y-100398958D01*
X98984899Y-99752461D02*
X99227335Y-99994897D01*
X99106117Y-99873679D02*
X99530381Y-99449415D01*
X99510178Y-99550430D01*
X99510178Y-99631242D01*
X99530381Y-99691852D01*
X99267741Y-99186775D02*
X99005102Y-98924136D01*
X98984899Y-99227181D01*
X98924290Y-99166572D01*
X98863680Y-99146369D01*
X98823274Y-99146369D01*
X98762665Y-99166572D01*
X98661650Y-99267587D01*
X98641447Y-99328197D01*
X98641447Y-99368603D01*
X98661650Y-99429212D01*
X98782868Y-99550430D01*
X98843477Y-99570633D01*
X98883883Y-99570633D01*
X99631396Y-87398958D02*
X100055660Y-86974694D01*
X99954645Y-86873679D01*
X99873833Y-86833273D01*
X99793021Y-86833273D01*
X99732412Y-86853476D01*
X99631396Y-86914085D01*
X99570787Y-86974694D01*
X99510178Y-87075709D01*
X99489975Y-87136319D01*
X99489975Y-87217131D01*
X99530381Y-87297943D01*
X99631396Y-87398958D01*
X98984899Y-86752461D02*
X99227335Y-86994897D01*
X99106117Y-86873679D02*
X99530381Y-86449415D01*
X99510178Y-86550430D01*
X99510178Y-86631242D01*
X99530381Y-86691852D01*
X99207132Y-86206978D02*
X99207132Y-86166572D01*
X99186929Y-86105963D01*
X99085914Y-86004948D01*
X99025305Y-85984745D01*
X98984899Y-85984745D01*
X98924290Y-86004948D01*
X98883883Y-86045354D01*
X98843477Y-86126166D01*
X98843477Y-86611039D01*
X98580838Y-86348400D01*
X99631396Y-70398958D02*
X100055660Y-69974694D01*
X99954645Y-69873679D01*
X99873833Y-69833273D01*
X99793021Y-69833273D01*
X99732412Y-69853476D01*
X99631396Y-69914085D01*
X99570787Y-69974694D01*
X99510178Y-70075709D01*
X99489975Y-70136319D01*
X99489975Y-70217131D01*
X99530381Y-70297943D01*
X99631396Y-70398958D01*
X98984899Y-69752461D02*
X99227335Y-69994897D01*
X99106117Y-69873679D02*
X99530381Y-69449415D01*
X99510178Y-69550430D01*
X99510178Y-69631242D01*
X99530381Y-69691852D01*
X98580838Y-69348400D02*
X98823274Y-69590836D01*
X98702056Y-69469618D02*
X99126320Y-69045354D01*
X99106117Y-69146369D01*
X99106117Y-69227181D01*
X99126320Y-69287790D01*
X79398958Y-121368603D02*
X78974694Y-120944339D01*
X78873679Y-121045354D01*
X78833273Y-121126166D01*
X78833273Y-121206978D01*
X78853476Y-121267587D01*
X78914085Y-121368603D01*
X78974694Y-121429212D01*
X79075709Y-121489821D01*
X79136319Y-121510024D01*
X79217131Y-121510024D01*
X79297943Y-121469618D01*
X79398958Y-121368603D01*
X78752461Y-122015100D02*
X78994897Y-121772664D01*
X78873679Y-121893882D02*
X78449415Y-121469618D01*
X78550430Y-121489821D01*
X78631242Y-121489821D01*
X78691852Y-121469618D01*
X78065557Y-121853476D02*
X78025151Y-121893882D01*
X78004948Y-121954491D01*
X78004948Y-121994897D01*
X78025151Y-122055506D01*
X78085760Y-122156522D01*
X78186775Y-122257537D01*
X78287790Y-122318146D01*
X78348400Y-122338349D01*
X78388806Y-122338349D01*
X78449415Y-122318146D01*
X78489821Y-122277740D01*
X78510024Y-122217131D01*
X78510024Y-122176725D01*
X78489821Y-122116116D01*
X78429212Y-122015100D01*
X78328197Y-121914085D01*
X78227181Y-121853476D01*
X78166572Y-121833273D01*
X78126166Y-121833273D01*
X78065557Y-121853476D01*
X81429366Y-117196928D02*
X81853630Y-116772664D01*
X81752615Y-116671648D01*
X81671802Y-116631242D01*
X81590990Y-116631242D01*
X81530381Y-116651445D01*
X81429366Y-116712055D01*
X81368757Y-116772664D01*
X81308148Y-116873679D01*
X81287944Y-116934288D01*
X81287944Y-117015100D01*
X81328351Y-117095913D01*
X81429366Y-117196928D01*
X80984899Y-116752461D02*
X80904086Y-116671648D01*
X80883883Y-116611039D01*
X80883883Y-116570633D01*
X80904086Y-116469618D01*
X80964696Y-116368603D01*
X81126320Y-116206978D01*
X81186929Y-116186775D01*
X81227335Y-116186775D01*
X81287944Y-116206978D01*
X81368757Y-116287790D01*
X81388960Y-116348400D01*
X81388960Y-116388806D01*
X81368757Y-116449415D01*
X81267741Y-116550430D01*
X81207132Y-116570633D01*
X81166726Y-116570633D01*
X81106117Y-116550430D01*
X81025305Y-116469618D01*
X81005102Y-116409009D01*
X81005102Y-116368603D01*
X81025305Y-116307994D01*
X81429366Y-100196928D02*
X81853630Y-99772664D01*
X81752615Y-99671648D01*
X81671802Y-99631242D01*
X81590990Y-99631242D01*
X81530381Y-99651445D01*
X81429366Y-99712055D01*
X81368757Y-99772664D01*
X81308148Y-99873679D01*
X81287944Y-99934288D01*
X81287944Y-100015100D01*
X81328351Y-100095913D01*
X81429366Y-100196928D01*
X81186929Y-99469618D02*
X81247538Y-99489821D01*
X81287944Y-99489821D01*
X81348554Y-99469618D01*
X81368757Y-99449415D01*
X81388960Y-99388806D01*
X81388960Y-99348400D01*
X81368757Y-99287790D01*
X81287944Y-99206978D01*
X81227335Y-99186775D01*
X81186929Y-99186775D01*
X81126320Y-99206978D01*
X81106117Y-99227181D01*
X81085914Y-99287790D01*
X81085914Y-99328197D01*
X81106117Y-99388806D01*
X81186929Y-99469618D01*
X81207132Y-99530227D01*
X81207132Y-99570633D01*
X81186929Y-99631242D01*
X81106117Y-99712055D01*
X81045508Y-99732258D01*
X81005102Y-99732258D01*
X80944493Y-99712055D01*
X80863680Y-99631242D01*
X80843477Y-99570633D01*
X80843477Y-99530227D01*
X80863680Y-99469618D01*
X80944493Y-99388806D01*
X81005102Y-99368603D01*
X81045508Y-99368603D01*
X81106117Y-99388806D01*
X81429366Y-87196928D02*
X81853630Y-86772664D01*
X81752615Y-86671648D01*
X81671802Y-86631242D01*
X81590990Y-86631242D01*
X81530381Y-86651445D01*
X81429366Y-86712055D01*
X81368757Y-86772664D01*
X81308148Y-86873679D01*
X81287944Y-86934288D01*
X81287944Y-87015100D01*
X81328351Y-87095913D01*
X81429366Y-87196928D01*
X81469772Y-86388806D02*
X81186929Y-86105963D01*
X80944493Y-86712055D01*
X81429366Y-70196928D02*
X81853630Y-69772664D01*
X81752615Y-69671648D01*
X81671802Y-69631242D01*
X81590990Y-69631242D01*
X81530381Y-69651445D01*
X81429366Y-69712055D01*
X81368757Y-69772664D01*
X81308148Y-69873679D01*
X81287944Y-69934288D01*
X81287944Y-70015100D01*
X81328351Y-70095913D01*
X81429366Y-70196928D01*
X81247538Y-69166572D02*
X81328351Y-69247384D01*
X81348554Y-69307994D01*
X81348554Y-69348400D01*
X81328351Y-69449415D01*
X81267741Y-69550430D01*
X81106117Y-69712055D01*
X81045508Y-69732258D01*
X81005102Y-69732258D01*
X80944493Y-69712055D01*
X80863680Y-69631242D01*
X80843477Y-69570633D01*
X80843477Y-69530227D01*
X80863680Y-69469618D01*
X80964696Y-69368603D01*
X81025305Y-69348400D01*
X81065711Y-69348400D01*
X81126320Y-69368603D01*
X81207132Y-69449415D01*
X81227335Y-69510024D01*
X81227335Y-69550430D01*
X81207132Y-69611039D01*
X61196928Y-121570633D02*
X60772664Y-121146369D01*
X60671648Y-121247384D01*
X60631242Y-121328197D01*
X60631242Y-121409009D01*
X60651445Y-121469618D01*
X60712055Y-121570633D01*
X60772664Y-121631242D01*
X60873679Y-121691852D01*
X60934288Y-121712055D01*
X61015100Y-121712055D01*
X61095913Y-121671648D01*
X61196928Y-121570633D01*
X60146369Y-121772664D02*
X60348400Y-121570633D01*
X60570633Y-121752461D01*
X60530227Y-121752461D01*
X60469618Y-121772664D01*
X60368603Y-121873679D01*
X60348400Y-121934288D01*
X60348400Y-121974694D01*
X60368603Y-122035303D01*
X60469618Y-122136319D01*
X60530227Y-122156522D01*
X60570633Y-122156522D01*
X60631242Y-122136319D01*
X60732258Y-122035303D01*
X60752461Y-121974694D01*
X60752461Y-121934288D01*
X63429366Y-117196928D02*
X63853630Y-116772664D01*
X63752615Y-116671648D01*
X63671802Y-116631242D01*
X63590990Y-116631242D01*
X63530381Y-116651445D01*
X63429366Y-116712055D01*
X63368757Y-116772664D01*
X63308148Y-116873679D01*
X63287944Y-116934288D01*
X63287944Y-117015100D01*
X63328351Y-117095913D01*
X63429366Y-117196928D01*
X63106117Y-116307994D02*
X62823274Y-116590836D01*
X63368757Y-116247384D02*
X63166726Y-116651445D01*
X62904086Y-116388806D01*
X63429366Y-100196928D02*
X63853630Y-99772664D01*
X63752615Y-99671648D01*
X63671802Y-99631242D01*
X63590990Y-99631242D01*
X63530381Y-99651445D01*
X63429366Y-99712055D01*
X63368757Y-99772664D01*
X63308148Y-99873679D01*
X63287944Y-99934288D01*
X63287944Y-100015100D01*
X63328351Y-100095913D01*
X63429366Y-100196928D01*
X63469772Y-99388806D02*
X63207132Y-99126166D01*
X63186929Y-99429212D01*
X63126320Y-99368603D01*
X63065711Y-99348400D01*
X63025305Y-99348400D01*
X62964696Y-99368603D01*
X62863680Y-99469618D01*
X62843477Y-99530227D01*
X62843477Y-99570633D01*
X62863680Y-99631242D01*
X62984899Y-99752461D01*
X63045508Y-99772664D01*
X63085914Y-99772664D01*
X63429366Y-87196928D02*
X63853630Y-86772664D01*
X63752615Y-86671648D01*
X63671802Y-86631242D01*
X63590990Y-86631242D01*
X63530381Y-86651445D01*
X63429366Y-86712055D01*
X63368757Y-86772664D01*
X63308148Y-86873679D01*
X63287944Y-86934288D01*
X63287944Y-87015100D01*
X63328351Y-87095913D01*
X63429366Y-87196928D01*
X63409163Y-86409009D02*
X63409163Y-86368603D01*
X63388960Y-86307994D01*
X63287944Y-86206978D01*
X63227335Y-86186775D01*
X63186929Y-86186775D01*
X63126320Y-86206978D01*
X63085914Y-86247384D01*
X63045508Y-86328197D01*
X63045508Y-86813070D01*
X62782868Y-86550430D01*
X63429366Y-70196928D02*
X63853630Y-69772664D01*
X63752615Y-69671648D01*
X63671802Y-69631242D01*
X63590990Y-69631242D01*
X63530381Y-69651445D01*
X63429366Y-69712055D01*
X63368757Y-69772664D01*
X63308148Y-69873679D01*
X63287944Y-69934288D01*
X63287944Y-70015100D01*
X63328351Y-70095913D01*
X63429366Y-70196928D01*
X62782868Y-69550430D02*
X63025305Y-69792867D01*
X62904086Y-69671648D02*
X63328351Y-69247384D01*
X63308148Y-69348400D01*
X63308148Y-69429212D01*
X63328351Y-69489821D01*
X155900000Y-72714285D02*
X155928571Y-72742857D01*
X156014285Y-72771428D01*
X156071428Y-72771428D01*
X156157142Y-72742857D01*
X156214285Y-72685714D01*
X156242857Y-72628571D01*
X156271428Y-72514285D01*
X156271428Y-72428571D01*
X156242857Y-72314285D01*
X156214285Y-72257142D01*
X156157142Y-72200000D01*
X156071428Y-72171428D01*
X156014285Y-72171428D01*
X155928571Y-72200000D01*
X155900000Y-72228571D01*
X155385714Y-72171428D02*
X155500000Y-72171428D01*
X155557142Y-72200000D01*
X155585714Y-72228571D01*
X155642857Y-72314285D01*
X155671428Y-72428571D01*
X155671428Y-72657142D01*
X155642857Y-72714285D01*
X155614285Y-72742857D01*
X155557142Y-72771428D01*
X155442857Y-72771428D01*
X155385714Y-72742857D01*
X155357142Y-72714285D01*
X155328571Y-72657142D01*
X155328571Y-72514285D01*
X155357142Y-72457142D01*
X155385714Y-72428571D01*
X155442857Y-72400000D01*
X155557142Y-72400000D01*
X155614285Y-72428571D01*
X155642857Y-72457142D01*
X155671428Y-72514285D01*
X154950000Y-64164285D02*
X154978571Y-64192857D01*
X155064285Y-64221428D01*
X155121428Y-64221428D01*
X155207142Y-64192857D01*
X155264285Y-64135714D01*
X155292857Y-64078571D01*
X155321428Y-63964285D01*
X155321428Y-63878571D01*
X155292857Y-63764285D01*
X155264285Y-63707142D01*
X155207142Y-63650000D01*
X155121428Y-63621428D01*
X155064285Y-63621428D01*
X154978571Y-63650000D01*
X154950000Y-63678571D01*
X154407142Y-63621428D02*
X154692857Y-63621428D01*
X154721428Y-63907142D01*
X154692857Y-63878571D01*
X154635714Y-63850000D01*
X154492857Y-63850000D01*
X154435714Y-63878571D01*
X154407142Y-63907142D01*
X154378571Y-63964285D01*
X154378571Y-64107142D01*
X154407142Y-64164285D01*
X154435714Y-64192857D01*
X154492857Y-64221428D01*
X154635714Y-64221428D01*
X154692857Y-64192857D01*
X154721428Y-64164285D01*
X154200000Y-72364285D02*
X154228571Y-72392857D01*
X154314285Y-72421428D01*
X154371428Y-72421428D01*
X154457142Y-72392857D01*
X154514285Y-72335714D01*
X154542857Y-72278571D01*
X154571428Y-72164285D01*
X154571428Y-72078571D01*
X154542857Y-71964285D01*
X154514285Y-71907142D01*
X154457142Y-71850000D01*
X154371428Y-71821428D01*
X154314285Y-71821428D01*
X154228571Y-71850000D01*
X154200000Y-71878571D01*
X153685714Y-72021428D02*
X153685714Y-72421428D01*
X153828571Y-71792857D02*
X153971428Y-72221428D01*
X153600000Y-72221428D01*
X151750000Y-64264285D02*
X151778571Y-64292857D01*
X151864285Y-64321428D01*
X151921428Y-64321428D01*
X152007142Y-64292857D01*
X152064285Y-64235714D01*
X152092857Y-64178571D01*
X152121428Y-64064285D01*
X152121428Y-63978571D01*
X152092857Y-63864285D01*
X152064285Y-63807142D01*
X152007142Y-63750000D01*
X151921428Y-63721428D01*
X151864285Y-63721428D01*
X151778571Y-63750000D01*
X151750000Y-63778571D01*
X151550000Y-63721428D02*
X151178571Y-63721428D01*
X151378571Y-63950000D01*
X151292857Y-63950000D01*
X151235714Y-63978571D01*
X151207142Y-64007142D01*
X151178571Y-64064285D01*
X151178571Y-64207142D01*
X151207142Y-64264285D01*
X151235714Y-64292857D01*
X151292857Y-64321428D01*
X151464285Y-64321428D01*
X151521428Y-64292857D01*
X151550000Y-64264285D01*
X151650000Y-59864285D02*
X151678571Y-59892857D01*
X151764285Y-59921428D01*
X151821428Y-59921428D01*
X151907142Y-59892857D01*
X151964285Y-59835714D01*
X151992857Y-59778571D01*
X152021428Y-59664285D01*
X152021428Y-59578571D01*
X151992857Y-59464285D01*
X151964285Y-59407142D01*
X151907142Y-59350000D01*
X151821428Y-59321428D01*
X151764285Y-59321428D01*
X151678571Y-59350000D01*
X151650000Y-59378571D01*
X151421428Y-59378571D02*
X151392857Y-59350000D01*
X151335714Y-59321428D01*
X151192857Y-59321428D01*
X151135714Y-59350000D01*
X151107142Y-59378571D01*
X151078571Y-59435714D01*
X151078571Y-59492857D01*
X151107142Y-59578571D01*
X151450000Y-59921428D01*
X151078571Y-59921428D01*
X154750000Y-73114285D02*
X154778571Y-73142857D01*
X154864285Y-73171428D01*
X154921428Y-73171428D01*
X155007142Y-73142857D01*
X155064285Y-73085714D01*
X155092857Y-73028571D01*
X155121428Y-72914285D01*
X155121428Y-72828571D01*
X155092857Y-72714285D01*
X155064285Y-72657142D01*
X155007142Y-72600000D01*
X154921428Y-72571428D01*
X154864285Y-72571428D01*
X154778571Y-72600000D01*
X154750000Y-72628571D01*
X154178571Y-73171428D02*
X154521428Y-73171428D01*
X154350000Y-73171428D02*
X154350000Y-72571428D01*
X154407142Y-72657142D01*
X154464285Y-72714285D01*
X154521428Y-72742857D01*
M02*
